<svg width="69" height="70" viewBox="0 0 69 70" fill="none" xmlns="http://www.w3.org/2000/svg">
<path d="M47.9787 16.7104C50.3393 16.7104 52.257 18.6282 52.257 20.9888C52.257 23.3494 50.3393 25.267 47.9787 25.267C45.6181 25.267 43.7003 23.3494 43.7003 20.9888C43.7003 18.6282 45.6181 16.7104 47.9787 16.7104Z" fill="#54D499"/>
<path d="M39.6387 51.9879H15.7472V46.4169L27.0219 35.23C28.5709 33.5393 29.7152 32.0623 30.457 30.8011C31.1991 29.5399 31.57 28.3438 31.57 27.2108C31.57 25.6617 31.1811 24.4454 30.3987 23.5597C29.6162 22.6738 28.499 22.231 27.0467 22.231C25.4819 22.231 24.2499 22.7706 23.3484 23.8475C22.4468 24.9243 21.995 26.3407 21.995 28.0965H15.7338C15.7338 25.9742 15.5607 24.034 16.5724 22.2783C17.5863 20.5247 19.0183 19.1465 20.8708 18.1505C22.7211 17.1524 24.8209 16.6533 27.1657 16.6533C30.7561 16.6533 33.5461 17.5144 35.5336 19.2387C37.5186 20.963 38.5123 23.3956 38.5123 26.5408C38.5123 28.2651 38.0672 30.0186 37.1725 31.806C36.2799 33.5956 34.7466 35.6774 32.5771 38.056L24.6523 46.4103H39.6387V51.9879Z" fill="white"/>
<path d="M51.6604 28.105H44.6843V51.9784H51.6604V28.105Z" fill="white"/>
<path d="M34.304 0.696045C46.7544 0.754535 58.8676 8.03408 64.6612 19.3358C70.3198 30.3789 69.3756 44.5379 62.0308 54.7963C54.5173 65.2909 40.7585 70.9697 27.827 68.5304C14.0479 65.9338 2.39773 54.2477 0.327164 39.7965C-1.47363 27.2358 4.25926 13.8478 15.0662 6.54353C20.6193 2.79146 27.2875 0.749946 33.9735 0.696045H34.304ZM34.1017 6.2513C26.9029 6.28734 19.7784 9.12442 14.5515 14.0503C10.226 18.124 7.20445 23.5645 6.0646 29.3987C3.91089 40.4394 8.83205 52.5639 18.5374 58.9127C27.7573 64.9446 40.4753 65.0435 49.8502 58.9127C56.6464 54.4658 61.4059 47.0626 62.5614 39.0073C63.8518 29.9921 60.5471 20.4464 53.9621 14.1693C48.7711 9.22115 41.7163 6.33441 34.4726 6.2535C34.3489 6.2513 34.2253 6.2513 34.1017 6.2513Z" fill="white"/>
</svg>
