<svg width="1440" height="180" viewBox="0 0 1440 180" fill="none" xmlns="http://www.w3.org/2000/svg">
<path d="M180 90C180 139.706 139.706 180 90 180C40.2944 180 0 139.706 0 90C0 40.2944 40.2944 0 90 0C139.706 0 180 40.2944 180 90Z" fill="url(#paint0_linear_4_1003)"/>
<path d="M360 90C360 139.706 319.706 180 270 180C220.294 180 180 139.706 180 90C180 40.2944 220.294 0 270 0C319.706 0 360 40.2944 360 90Z" fill="url(#paint1_linear_4_1003)"/>
<path d="M540 90C540 139.706 499.706 180 450 180C400.294 180 360 139.706 360 90C360 40.2944 400.294 0 450 0C499.706 0 540 40.2944 540 90Z" fill="url(#paint2_linear_4_1003)"/>
<path d="M720 90C720 139.706 679.706 180 630 180C580.294 180 540 139.706 540 90C540 40.2944 580.294 0 630 0C679.706 0 720 40.2944 720 90Z" fill="url(#paint3_linear_4_1003)"/>
<path d="M901 90C901 139.706 860.482 180 810.5 180C760.518 180 720 139.706 720 90C720 40.2944 760.518 0 810.5 0C860.482 0 901 40.2944 901 90Z" fill="url(#paint4_linear_4_1003)"/>
<path d="M1080 90C1080 139.706 1039.93 180 990.5 180C941.071 180 901 139.706 901 90C901 40.2944 941.071 0 990.5 0C1039.93 0 1080 40.2944 1080 90Z" fill="url(#paint5_linear_4_1003)"/>
<path d="M1261 90C1261 139.706 1220.48 180 1170.5 180C1120.52 180 1080 139.706 1080 90C1080 40.2944 1120.52 0 1170.5 0C1220.48 0 1261 40.2944 1261 90Z" fill="url(#paint6_linear_4_1003)"/>
<path d="M1440 90C1440 139.706 1399.71 180 1350 180C1300.29 180 1260 139.706 1260 90C1260 40.2944 1300.29 0 1350 0C1399.71 0 1440 40.2944 1440 90Z" fill="url(#paint7_linear_4_1003)"/>
<defs>
<linearGradient id="paint0_linear_4_1003" x1="91" y1="98.9999" x2="1337" y2="98.9999" gradientUnits="userSpaceOnUse">
<stop stop-color="#004AD4"/>
<stop offset="0.505618" stop-color="#004AD4" stop-opacity="0"/>
<stop offset="1" stop-color="#004AD4"/>
</linearGradient>
<linearGradient id="paint1_linear_4_1003" x1="91" y1="98.9999" x2="1337" y2="98.9999" gradientUnits="userSpaceOnUse">
<stop stop-color="#004AD4"/>
<stop offset="0.505618" stop-color="#004AD4" stop-opacity="0"/>
<stop offset="1" stop-color="#004AD4"/>
</linearGradient>
<linearGradient id="paint2_linear_4_1003" x1="91" y1="98.9999" x2="1337" y2="98.9999" gradientUnits="userSpaceOnUse">
<stop stop-color="#004AD4"/>
<stop offset="0.505618" stop-color="#004AD4" stop-opacity="0"/>
<stop offset="1" stop-color="#004AD4"/>
</linearGradient>
<linearGradient id="paint3_linear_4_1003" x1="91" y1="98.9999" x2="1337" y2="98.9999" gradientUnits="userSpaceOnUse">
<stop stop-color="#004AD4"/>
<stop offset="0.505618" stop-color="#004AD4" stop-opacity="0"/>
<stop offset="1" stop-color="#004AD4"/>
</linearGradient>
<linearGradient id="paint4_linear_4_1003" x1="91" y1="98.9999" x2="1337" y2="98.9999" gradientUnits="userSpaceOnUse">
<stop stop-color="#004AD4"/>
<stop offset="0.505618" stop-color="#004AD4" stop-opacity="0"/>
<stop offset="1" stop-color="#004AD4"/>
</linearGradient>
<linearGradient id="paint5_linear_4_1003" x1="91" y1="98.9999" x2="1337" y2="98.9999" gradientUnits="userSpaceOnUse">
<stop stop-color="#004AD4"/>
<stop offset="0.505618" stop-color="#004AD4" stop-opacity="0"/>
<stop offset="1" stop-color="#004AD4"/>
</linearGradient>
<linearGradient id="paint6_linear_4_1003" x1="91" y1="98.9999" x2="1337" y2="98.9999" gradientUnits="userSpaceOnUse">
<stop stop-color="#004AD4"/>
<stop offset="0.505618" stop-color="#004AD4" stop-opacity="0"/>
<stop offset="1" stop-color="#004AD4"/>
</linearGradient>
<linearGradient id="paint7_linear_4_1003" x1="91" y1="98.9999" x2="1337" y2="98.9999" gradientUnits="userSpaceOnUse">
<stop stop-color="#004AD4"/>
<stop offset="0.505618" stop-color="#004AD4" stop-opacity="0"/>
<stop offset="1" stop-color="#004AD4"/>
</linearGradient>
</defs>
</svg>
