<svg width="108" height="108" viewBox="0 0 108 108" fill="none" xmlns="http://www.w3.org/2000/svg">
<path d="M67.6643 35.7105C70.025 35.7105 71.9427 37.6282 71.9427 39.9888C71.9427 42.3495 70.025 44.267 67.6643 44.267C65.3037 44.267 63.386 42.3495 63.386 39.9888C63.386 37.6282 65.3037 35.7105 67.6643 35.7105Z" fill="#54D499"/>
<path d="M59.3244 70.9879H35.4329V65.4168L46.7075 54.2299C48.2566 52.5392 49.4008 51.0623 50.1427 49.801C50.8848 48.5398 51.2557 47.3437 51.2557 46.2107C51.2557 44.6617 50.8667 43.4453 50.0844 42.5596C49.3019 41.6738 48.1846 41.2309 46.7324 41.2309C45.1675 41.2309 43.9356 41.7705 43.034 42.8474C42.1325 43.9242 41.6807 45.3406 41.6807 47.0964H35.4194C35.4194 44.9741 35.2464 43.0339 36.258 41.2782C37.2719 39.5246 38.704 38.1464 40.5565 37.1504C42.4067 36.1523 44.5066 35.6532 46.8513 35.6532C50.4418 35.6532 53.2318 36.5143 55.2192 38.2386C57.2043 39.9629 58.1979 42.3956 58.1979 45.5407C58.1979 47.265 57.7529 49.0186 56.8582 50.8059C55.9655 52.5955 54.4323 54.6773 52.2628 57.0559L44.3379 65.4102H59.3244V70.9879Z" fill="white"/>
<path d="M71.3461 47.105H64.37V70.9785H71.3461V47.105Z" fill="white"/>
<path d="M53.9897 19.696C66.44 19.7545 78.5533 27.0341 84.3468 38.3357C90.0055 49.3789 89.0613 63.5379 81.7165 73.7963C74.203 84.2908 60.4442 89.9696 47.5127 87.5303C33.7336 84.9338 22.0834 73.2477 20.0128 58.7964C18.212 46.2357 23.9449 32.8478 34.7519 25.5435C40.3049 21.7914 46.9731 19.7499 53.6592 19.696H53.9897ZM53.7873 25.2513C46.5886 25.2873 39.4641 28.1244 34.2371 33.0503C29.9117 37.124 26.8901 42.5645 25.7503 48.3986C23.5966 59.4394 28.5177 71.5639 38.2231 77.9127C47.443 83.9446 60.161 84.0435 69.5359 77.9127C76.3321 73.4658 81.0916 66.0625 82.247 58.0073C83.5375 48.9921 80.2327 39.4463 73.6478 33.1693C68.4567 28.2211 61.4019 25.3344 54.1583 25.2535C54.0345 25.2513 53.911 25.2513 53.7873 25.2513Z" fill="white"/>
<circle cx="5" cy="54" r="5" fill="#293682"/>
<circle cx="53" cy="5" r="5" fill="#293682"/>
<circle cx="103" cy="5" r="5" fill="#293682"/>
<circle cx="103" cy="103" r="5" fill="#293682"/>
<circle cx="5" cy="103" r="5" fill="#293682"/>
<circle cx="5" cy="5" r="5" fill="#293682"/>
<circle cx="53" cy="103" r="5" fill="#293682"/>
<circle cx="103" cy="54" r="5" fill="#293682"/>
</svg>
