<?xml version="1.0"?>
<svg width="120" height="120" xmlns="http://www.w3.org/2000/svg" xmlns:svg="http://www.w3.org/2000/svg">
 <g class="layer">
  <title>Layer 1</title>
  <rect fill="rgb(41, 54, 130)" height="115" id="svg_1" rx="10.5" stroke="rgb(84, 212, 153)" stroke-width="5" width="115" x="2.5" y="2.5"/>
  <path d="m60.71,61.33c0.38,0 0.75,0.18 0.96,0.51l3.02,4.73c0.98,-0.21 1.92,-0.5 2.84,-0.83l-0.01,-5.64c0,-0.41 0.22,-0.79 0.57,-0.99c0.38,-0.23 0.76,-0.47 1.12,-0.72c0.33,-0.24 0.77,-0.28 1.14,-0.11l5.07,2.33c0.7,-0.71 1.35,-1.46 1.94,-2.24l-3.02,-4.73c-0.22,-0.34 -0.24,-0.78 -0.06,-1.15c0.2,-0.39 0.39,-0.8 0.56,-1.21c0.16,-0.38 0.5,-0.65 0.9,-0.71l5.51,-0.79c0.2,-0.97 0.34,-1.96 0.42,-2.95l-5.06,-2.33c-0.37,-0.16 -0.62,-0.52 -0.66,-0.93c-0.05,-0.45 -0.12,-0.89 -0.2,-1.33c-0.08,-0.4 0.07,-0.82 0.37,-1.08l4.22,-3.68c-0.34,-0.92 -0.76,-1.83 -1.23,-2.7l-5.52,0.8c-0.4,0.06 -0.8,-0.1 -1.06,-0.42c-0.27,-0.35 -0.57,-0.69 -0.87,-1.01c-0.28,-0.3 -0.38,-0.72 -0.27,-1.12l1.58,-5.39c-0.78,-0.59 -1.62,-1.12 -2.49,-1.61l-4.21,3.68c-0.31,0.27 -0.74,0.35 -1.12,0.22c-0.42,-0.14 -0.85,-0.26 -1.28,-0.37c-0.39,-0.1 -0.71,-0.4 -0.82,-0.79l-1.58,-5.42c-0.98,-0.06 -1.96,-0.06 -2.94,0l-1.58,5.42c-0.11,0.39 -0.43,0.69 -0.82,0.79c-0.43,0.11 -0.86,0.23 -1.28,0.37c-0.38,0.13 -0.81,0.05 -1.12,-0.22l-4.21,-3.68c-0.87,0.49 -1.71,1.02 -2.49,1.61l1.58,5.39c0.11,0.4 0.01,0.82 -0.27,1.12c-0.3,0.32 -0.6,0.66 -0.87,1.01c-0.26,0.32 -0.66,0.48 -1.06,0.42l-5.52,-0.8c-0.47,0.87 -0.89,1.78 -1.23,2.7l4.21,3.68c0.31,0.26 0.45,0.68 0.38,1.08c-0.08,0.44 -0.15,0.88 -0.2,1.33c-0.04,0.41 -0.29,0.77 -0.66,0.93l-5.06,2.33c0.07,0.99 0.21,1.98 0.42,2.95l5.51,0.79c0.4,0.06 0.74,0.33 0.9,0.71c0.17,0.41 0.36,0.82 0.56,1.21c0.18,0.37 0.16,0.81 -0.06,1.15l-3.02,4.73c0.59,0.78 1.24,1.53 1.94,2.24l5.07,-2.33c0.37,-0.17 0.81,-0.13 1.14,0.11c0.36,0.25 0.73,0.49 1.12,0.72c0.35,0.2 0.56,0.58 0.56,0.99l0,5.63c0.91,0.34 1.86,0.62 2.84,0.83l3.02,-4.74c0.22,-0.34 0.6,-0.55 1.01,-0.53l0.3,0.02c0.24,0.02 0.48,0.04 0.72,0.02l0.35,0zm3.44,7.67c-0.38,0 -0.75,-0.2 -0.96,-0.53l-3.09,-4.84l-0.2,0l-3.09,4.84c-0.25,0.39 -0.72,0.6 -1.17,0.51c-1.65,-0.31 -3.25,-0.77 -4.75,-1.39c-0.43,-0.18 -0.71,-0.6 -0.71,-1.07l0,-5.77c-0.05,-0.04 -0.1,-0.07 -0.16,-0.11l-5.2,2.4c-0.42,0.19 -0.92,0.11 -1.26,-0.21c-1.22,-1.16 -2.31,-2.42 -3.24,-3.76c-0.27,-0.39 -0.28,-0.89 -0.03,-1.29l3.09,-4.84c-0.02,-0.06 -0.05,-0.12 -0.08,-0.18l-5.65,-0.81c-0.46,-0.07 -0.84,-0.41 -0.95,-0.86c-0.4,-1.61 -0.64,-3.27 -0.7,-4.94c-0.02,-0.47 0.25,-0.9 0.67,-1.1l5.19,-2.38c0.01,-0.06 0.02,-0.13 0.03,-0.2l-4.33,-3.76c-0.35,-0.31 -0.48,-0.8 -0.33,-1.24c0.52,-1.57 1.22,-3.09 2.06,-4.53c0.24,-0.41 0.7,-0.62 1.15,-0.56l5.66,0.83c0.04,-0.05 0.09,-0.1 0.13,-0.15l-1.62,-5.53c-0.13,-0.45 0.02,-0.93 0.38,-1.22c1.27,-1.03 2.67,-1.93 4.17,-2.69c0.41,-0.21 0.92,-0.15 1.27,0.15l4.32,3.78c0.06,-0.02 0.12,-0.04 0.18,-0.06l1.62,-5.54c0.13,-0.45 0.52,-0.78 0.98,-0.82c1.64,-0.17 3.3,-0.17 4.94,0c0.46,0.04 0.85,0.37 0.98,0.82l1.62,5.54c0.06,0.02 0.12,0.04 0.18,0.06l4.32,-3.78c0.35,-0.3 0.86,-0.36 1.27,-0.15c1.49,0.76 2.9,1.66 4.17,2.69c0.36,0.29 0.51,0.77 0.38,1.22l-1.62,5.53c0.04,0.05 0.09,0.1 0.13,0.15l5.66,-0.83c0.45,-0.06 0.91,0.15 1.15,0.56c0.84,1.44 1.54,2.96 2.06,4.53c0.15,0.44 0.02,0.93 -0.34,1.24l-4.32,3.76c0.01,0.07 0.02,0.14 0.03,0.2l5.19,2.38c0.42,0.2 0.69,0.63 0.67,1.1c-0.06,1.67 -0.3,3.33 -0.7,4.94c-0.11,0.45 -0.49,0.79 -0.95,0.86l-5.65,0.81c-0.03,0.06 -0.06,0.12 -0.09,0.18l3.1,4.84c0.25,0.4 0.24,0.9 -0.03,1.29c-0.93,1.34 -2.02,2.6 -3.24,3.76c-0.34,0.32 -0.84,0.4 -1.26,0.21l-5.2,-2.4c-0.06,0.04 -0.11,0.07 -0.16,0.11l0,5.77c0,0.47 -0.28,0.89 -0.71,1.07c-1.5,0.62 -3.1,1.08 -4.75,1.39c-0.07,0.01 -0.14,0.02 -0.21,0.02z" fill="rgb(255, 255, 255)" id="svg_2"/>
  <path d="m60,34.72c-5.7,0 -10.33,4.76 -10.33,10.6c0,5.84 4.63,10.59 10.33,10.59c5.7,0 10.33,-4.75 10.33,-10.59c0,-5.84 -4.63,-10.6 -10.33,-10.6zm0,23.54c-6.96,0 -12.63,-5.8 -12.63,-12.94c0,-7.14 5.67,-12.95 12.63,-12.95c6.96,0 12.63,5.81 12.63,12.95c0,7.14 -5.67,12.94 -12.63,12.94z" fill="rgb(255, 255, 255)" id="svg_3"/>
  <path d="m60,42.95c-1.22,0 -2.21,1.06 -2.21,2.37c0,1.3 0.99,2.36 2.21,2.36c1.22,0 2.21,-1.06 2.21,-2.36c0,-1.31 -0.99,-2.37 -2.21,-2.37zm0,7.1c-2.44,0 -4.42,-2.12 -4.42,-4.73c0,-2.62 1.98,-4.74 4.42,-4.74c2.44,0 4.42,2.12 4.42,4.74c0,2.61 -1.98,4.73 -4.42,4.73z" fill="rgb(255, 255, 255)" id="svg_4"/>
  <path d="m25.47,88l2.37,-8.87l2.04,0l2.34,8.87l-1.33,0l-2.04,-8.05l0.01,0l-2.04,8.05l-1.35,0zm1.37,-2.25l0,-1.08l4.03,0l0,1.08l-4.03,0zm8.98,2.36c-0.45,0 -0.83,-0.07 -1.13,-0.22c-0.3,-0.16 -0.53,-0.36 -0.71,-0.61c-0.18,-0.25 -0.3,-0.53 -0.37,-0.82c-0.07,-0.3 -0.11,-0.59 -0.11,-0.88c0,-0.15 0,-0.3 0,-0.46c0,-0.16 0,-0.33 0,-0.49l0,-3l1.31,0l0,2.81c0,0.15 0,0.29 0,0.43c0,0.13 0,0.26 0,0.38c0,0.31 0.04,0.59 0.12,0.85c0.08,0.26 0.22,0.47 0.42,0.63c0.2,0.15 0.49,0.23 0.85,0.23c0.34,0 0.64,-0.1 0.89,-0.3c0.25,-0.2 0.45,-0.46 0.59,-0.77c0.14,-0.31 0.21,-0.62 0.21,-0.93l0.57,0.3c0,0.37 -0.07,0.73 -0.19,1.07c-0.12,0.34 -0.29,0.64 -0.52,0.91c-0.23,0.27 -0.51,0.48 -0.84,0.64c-0.32,0.16 -0.68,0.23 -1.09,0.23zm2.07,-0.11l0,-6.37l1.3,0l0,6.37l-1.3,0zm5.67,0.11c-0.21,0 -0.42,-0.02 -0.64,-0.07c-0.2,-0.04 -0.4,-0.12 -0.57,-0.24c-0.17,-0.12 -0.31,-0.29 -0.42,-0.51c-0.1,-0.22 -0.15,-0.51 -0.15,-0.86c0,-0.09 0,-0.17 0,-0.27c0,-0.09 0,-0.18 0,-0.28l0,-3.17l-1.53,0l0,-1.08l0.8,0c0.17,0 0.31,-0.01 0.4,-0.02c0.1,-0.02 0.18,-0.05 0.22,-0.1c0.05,-0.06 0.08,-0.15 0.09,-0.27c0.01,-0.12 0.02,-0.28 0.02,-0.49l0,-1.23l1.3,0l0,2.11l1.95,0l0,1.08l-1.95,0l0,2.82c0,0.08 0,0.16 0,0.24c0,0.08 0,0.16 0,0.23c0,0.32 0.04,0.57 0.11,0.75c0.08,0.19 0.26,0.28 0.54,0.28c0.12,0 0.24,-0.01 0.35,-0.03c0.1,-0.02 0.19,-0.04 0.24,-0.07l0,1.06c-0.07,0.03 -0.17,0.06 -0.3,0.08c-0.14,0.03 -0.29,0.04 -0.46,0.04zm5.6,0.01c-0.65,0 -1.23,-0.14 -1.74,-0.43c-0.5,-0.28 -0.89,-0.67 -1.17,-1.17c-0.28,-0.5 -0.42,-1.07 -0.42,-1.71c0,-0.64 0.14,-1.21 0.42,-1.7c0.28,-0.5 0.67,-0.88 1.17,-1.16c0.51,-0.28 1.09,-0.42 1.74,-0.42c0.66,0 1.24,0.14 1.74,0.42c0.5,0.28 0.89,0.66 1.17,1.16c0.29,0.49 0.43,1.06 0.43,1.7c0,0.64 -0.14,1.21 -0.43,1.71c-0.28,0.5 -0.67,0.89 -1.17,1.17c-0.5,0.29 -1.08,0.43 -1.74,0.43zm0,-1.12c0.4,0 0.76,-0.09 1.06,-0.27c0.3,-0.18 0.54,-0.43 0.71,-0.76c0.18,-0.33 0.26,-0.72 0.26,-1.16c0,-0.44 -0.08,-0.82 -0.26,-1.15c-0.17,-0.32 -0.41,-0.57 -0.71,-0.75c-0.3,-0.17 -0.66,-0.26 -1.06,-0.26c-0.39,0 -0.74,0.09 -1.05,0.26c-0.31,0.18 -0.54,0.43 -0.72,0.75c-0.17,0.33 -0.25,0.71 -0.25,1.15c0,0.44 0.08,0.83 0.25,1.16c0.18,0.33 0.41,0.58 0.72,0.76c0.31,0.18 0.66,0.27 1.05,0.27zm8.73,1l0,-2.7c0,-0.24 0,-0.45 0,-0.63c0,-0.18 0,-0.33 0,-0.46c0,-0.15 -0.01,-0.32 -0.03,-0.49c-0.02,-0.18 -0.07,-0.34 -0.15,-0.5c-0.07,-0.15 -0.18,-0.28 -0.34,-0.37c-0.16,-0.1 -0.37,-0.15 -0.64,-0.15c-0.27,0 -0.5,0.06 -0.69,0.16c-0.19,0.11 -0.34,0.26 -0.46,0.44c-0.11,0.17 -0.2,0.37 -0.25,0.59c-0.05,0.22 -0.08,0.43 -0.08,0.65l-0.55,-0.3c0,-0.5 0.1,-0.95 0.29,-1.36c0.2,-0.41 0.48,-0.74 0.84,-0.98c0.37,-0.25 0.8,-0.37 1.29,-0.37c0.5,0 0.9,0.1 1.2,0.31c0.3,0.2 0.52,0.48 0.66,0.84c0.13,0.35 0.2,0.75 0.2,1.2c0,0.16 0,0.38 0,0.64c0,0.26 0,0.57 0,0.92l0,2.56l-1.29,0zm-3.94,0l0,-6.37l1.3,0l0,6.37l-1.3,0zm7.87,0l0,-2.69c0,-0.27 0,-0.49 0,-0.66c0,-0.18 0,-0.33 0,-0.45c0,-0.17 -0.01,-0.34 -0.03,-0.51c-0.02,-0.17 -0.07,-0.34 -0.15,-0.48c-0.07,-0.15 -0.19,-0.27 -0.35,-0.36c-0.16,-0.1 -0.38,-0.15 -0.66,-0.15c-0.27,0 -0.5,0.06 -0.69,0.16c-0.19,0.11 -0.33,0.25 -0.45,0.42c-0.11,0.18 -0.19,0.37 -0.24,0.57c-0.04,0.21 -0.07,0.42 -0.07,0.62l-0.55,-0.29c0,-0.48 0.1,-0.92 0.29,-1.32c0.19,-0.41 0.47,-0.73 0.83,-0.97c0.36,-0.24 0.78,-0.36 1.27,-0.36c0.48,0 0.88,0.09 1.19,0.28c0.3,0.2 0.53,0.46 0.68,0.8c0.15,0.34 0.22,0.74 0.22,1.18c0,0.18 0,0.39 0,0.65c0,0.26 0,0.56 0,0.91l0,2.65l-1.29,0zm5.15,0.13c-0.48,0 -0.9,-0.08 -1.26,-0.23c-0.36,-0.15 -0.64,-0.37 -0.84,-0.66c-0.2,-0.28 -0.3,-0.62 -0.3,-1.02c0,-0.43 0.11,-0.78 0.33,-1.06c0.23,-0.28 0.54,-0.5 0.94,-0.65c0.4,-0.16 0.85,-0.26 1.36,-0.31c0.76,-0.07 1.29,-0.15 1.6,-0.22c0.31,-0.07 0.47,-0.19 0.47,-0.35c0,-0.01 0,-0.01 0,-0.02c0,-0.32 -0.14,-0.57 -0.42,-0.73c-0.27,-0.17 -0.67,-0.26 -1.18,-0.26c-0.54,0 -0.96,0.1 -1.25,0.29c-0.3,0.19 -0.44,0.49 -0.44,0.9l-1.28,0c0,-0.49 0.13,-0.9 0.38,-1.24c0.25,-0.34 0.61,-0.6 1.05,-0.77c0.45,-0.18 0.97,-0.27 1.55,-0.27c0.53,0 1.01,0.08 1.45,0.24c0.44,0.16 0.79,0.4 1.05,0.72c0.26,0.32 0.39,0.72 0.39,1.2c0,0.08 0,0.16 0,0.25c0,0.08 0,0.16 0,0.24l0,2.55c0,0.15 0,0.29 0.02,0.43c0.01,0.14 0.03,0.26 0.06,0.37c0.04,0.12 0.08,0.22 0.13,0.3c0.05,0.08 0.09,0.14 0.12,0.17l-1.29,0c-0.03,-0.02 -0.06,-0.07 -0.11,-0.15c-0.04,-0.08 -0.08,-0.17 -0.12,-0.28c-0.04,-0.1 -0.06,-0.21 -0.08,-0.34c-0.02,-0.13 -0.03,-0.27 -0.03,-0.42l0.24,0.16c-0.12,0.24 -0.3,0.44 -0.54,0.61c-0.24,0.17 -0.53,0.31 -0.87,0.4c-0.34,0.1 -0.71,0.15 -1.13,0.15zm0.27,-1.08c0.38,0 0.71,-0.06 1.02,-0.18c0.31,-0.12 0.55,-0.3 0.74,-0.54c0.18,-0.24 0.27,-0.55 0.27,-0.92l0,-1.05l0.31,0.4c-0.26,0.1 -0.57,0.18 -0.94,0.25c-0.37,0.06 -0.75,0.11 -1.14,0.15c-0.54,0.04 -0.95,0.14 -1.22,0.28c-0.27,0.13 -0.41,0.36 -0.41,0.68c0,0.31 0.11,0.54 0.34,0.7c0.22,0.15 0.57,0.23 1.03,0.23zm7.47,1.06c-0.21,0 -0.43,-0.02 -0.64,-0.07c-0.21,-0.04 -0.4,-0.12 -0.57,-0.24c-0.18,-0.12 -0.31,-0.29 -0.42,-0.51c-0.1,-0.22 -0.15,-0.51 -0.15,-0.86c0,-0.09 0,-0.17 0,-0.27c0,-0.09 0,-0.18 0,-0.28l0,-3.17l-1.53,0l0,-1.08l0.8,0c0.17,0 0.31,-0.01 0.4,-0.02c0.1,-0.02 0.17,-0.05 0.22,-0.1c0.05,-0.06 0.08,-0.15 0.09,-0.27c0.01,-0.12 0.02,-0.28 0.02,-0.49l0,-1.23l1.3,0l0,2.11l1.95,0l0,1.08l-1.95,0l0,2.82c0,0.08 0,0.16 0,0.24c0,0.08 0,0.16 0,0.23c0,0.32 0.04,0.57 0.11,0.75c0.08,0.19 0.26,0.28 0.54,0.28c0.12,0 0.24,-0.01 0.34,-0.03c0.11,-0.02 0.19,-0.04 0.25,-0.07l0,1.06c-0.07,0.03 -0.17,0.06 -0.31,0.08c-0.13,0.03 -0.28,0.04 -0.45,0.04zm2.73,-0.11l0,-6.37l1.28,0l0,6.37l-1.28,0zm0.65,-7.69c-0.23,0 -0.42,-0.06 -0.58,-0.18c-0.16,-0.13 -0.24,-0.3 -0.24,-0.51c0,-0.21 0.08,-0.38 0.24,-0.5c0.16,-0.12 0.35,-0.19 0.58,-0.19c0.22,0 0.41,0.07 0.57,0.19c0.16,0.12 0.24,0.29 0.24,0.5c0,0.21 -0.08,0.38 -0.24,0.51c-0.16,0.12 -0.35,0.18 -0.57,0.18zm5.45,7.81c-0.66,0 -1.24,-0.14 -1.74,-0.43c-0.5,-0.28 -0.9,-0.67 -1.18,-1.17c-0.28,-0.5 -0.42,-1.07 -0.42,-1.71c0,-0.64 0.14,-1.21 0.42,-1.7c0.28,-0.5 0.68,-0.88 1.18,-1.16c0.5,-0.28 1.08,-0.42 1.74,-0.42c0.65,0 1.23,0.14 1.73,0.42c0.5,0.28 0.9,0.66 1.18,1.16c0.28,0.49 0.42,1.06 0.42,1.7c0,0.64 -0.14,1.21 -0.42,1.71c-0.28,0.5 -0.68,0.89 -1.18,1.17c-0.5,0.29 -1.08,0.43 -1.73,0.43zm0,-1.12c0.4,0 0.75,-0.09 1.05,-0.27c0.31,-0.18 0.54,-0.43 0.72,-0.76c0.17,-0.33 0.25,-0.72 0.25,-1.16c0,-0.44 -0.08,-0.82 -0.25,-1.15c-0.18,-0.32 -0.41,-0.57 -0.72,-0.75c-0.3,-0.17 -0.65,-0.26 -1.05,-0.26c-0.4,0 -0.75,0.09 -1.06,0.26c-0.3,0.18 -0.54,0.43 -0.71,0.75c-0.18,0.33 -0.26,0.71 -0.26,1.15c0,0.44 0.08,0.83 0.26,1.16c0.17,0.33 0.41,0.58 0.71,0.76c0.31,0.18 0.66,0.27 1.06,0.27zm9.32,1l0,-2.94c0,-0.17 0,-0.32 0,-0.44c0,-0.12 0,-0.23 0,-0.33c0,-0.32 -0.05,-0.59 -0.15,-0.83c-0.09,-0.24 -0.25,-0.42 -0.47,-0.55c-0.22,-0.14 -0.52,-0.21 -0.88,-0.21c-0.33,0 -0.62,0.08 -0.89,0.24c-0.26,0.16 -0.46,0.38 -0.62,0.66c-0.15,0.27 -0.23,0.58 -0.23,0.93l-0.56,-0.28c0,-0.52 0.13,-0.98 0.37,-1.39c0.24,-0.41 0.57,-0.73 0.98,-0.97c0.41,-0.24 0.86,-0.36 1.35,-0.36c0.5,0 0.93,0.09 1.29,0.29c0.36,0.19 0.63,0.47 0.82,0.83c0.19,0.35 0.29,0.78 0.29,1.28c0,0.18 0,0.38 0,0.61c0,0.22 0,0.44 0,0.65l0,2.81l-1.3,0zm-4.54,0l0,-6.37l1.3,0l0,6.37l-1.3,0zm-51.86,14.12c-0.58,0 -1.1,-0.09 -1.56,-0.27c-0.46,-0.18 -0.82,-0.44 -1.09,-0.79c-0.26,-0.34 -0.39,-0.76 -0.39,-1.25c0,-0.42 0.11,-0.8 0.33,-1.13c0.22,-0.33 0.53,-0.64 0.94,-0.94c0.41,-0.3 0.9,-0.61 1.47,-0.92c0.53,-0.3 0.93,-0.61 1.19,-0.92c0.25,-0.3 0.38,-0.63 0.38,-0.98c0,-0.22 -0.05,-0.41 -0.15,-0.55c-0.1,-0.15 -0.22,-0.26 -0.38,-0.33c-0.16,-0.07 -0.33,-0.11 -0.51,-0.11c-0.18,0 -0.35,0.04 -0.53,0.11c-0.16,0.07 -0.3,0.17 -0.41,0.32c-0.1,0.15 -0.16,0.33 -0.16,0.55c0,0.3 0.09,0.59 0.27,0.9c0.18,0.3 0.42,0.65 0.72,1.04l3.11,3.87c0.15,0.18 0.28,0.3 0.4,0.35c0.11,0.05 0.21,0.08 0.29,0.08c0.08,0 0.15,-0.01 0.22,-0.03c0.08,-0.01 0.13,-0.03 0.16,-0.04l0,0.91c-0.02,0.01 -0.07,0.03 -0.17,0.05c-0.1,0.03 -0.23,0.04 -0.39,0.04c-0.18,0 -0.37,-0.04 -0.57,-0.13c-0.2,-0.09 -0.39,-0.24 -0.57,-0.45l-3.3,-4.08c-0.2,-0.25 -0.4,-0.51 -0.59,-0.78c-0.19,-0.28 -0.35,-0.56 -0.48,-0.86c-0.13,-0.29 -0.19,-0.6 -0.19,-0.93c0,-0.34 0.1,-0.65 0.29,-0.92c0.2,-0.27 0.46,-0.48 0.79,-0.64c0.32,-0.15 0.69,-0.22 1.09,-0.22c0.42,0 0.78,0.07 1.09,0.22c0.32,0.15 0.56,0.36 0.74,0.63c0.18,0.27 0.27,0.58 0.27,0.93c0,0.39 -0.08,0.74 -0.25,1.05c-0.17,0.32 -0.41,0.61 -0.72,0.88c-0.31,0.27 -0.68,0.53 -1.11,0.77c-0.66,0.38 -1.17,0.74 -1.53,1.06c-0.36,0.32 -0.54,0.7 -0.54,1.14c0,0.28 0.08,0.53 0.24,0.74c0.17,0.22 0.39,0.39 0.67,0.51c0.28,0.12 0.59,0.18 0.93,0.18c0.56,0 1.03,-0.08 1.4,-0.24c0.37,-0.16 0.68,-0.37 0.93,-0.63c0.28,-0.3 0.49,-0.65 0.63,-1.04c0.14,-0.4 0.21,-0.84 0.21,-1.33l1.08,0c0,0.46 -0.06,0.88 -0.16,1.25c-0.1,0.38 -0.24,0.72 -0.42,1.02c-0.18,0.3 -0.38,0.57 -0.61,0.8c-0.32,0.32 -0.74,0.59 -1.24,0.8c-0.51,0.21 -1.11,0.31 -1.82,0.31zm14.38,-7.89l-2.69,0l0.41,-0.68l0,8.45l-1.3,0l0,-8.45l0.45,0.68l-2.72,0l0,-1.08l5.85,0l0,1.08zm3.4,7.89c-0.65,0 -1.23,-0.14 -1.74,-0.43c-0.5,-0.28 -0.89,-0.67 -1.17,-1.17c-0.28,-0.5 -0.42,-1.07 -0.42,-1.71c0,-0.64 0.14,-1.21 0.42,-1.7c0.28,-0.5 0.67,-0.88 1.17,-1.16c0.51,-0.28 1.09,-0.42 1.74,-0.42c0.66,0 1.24,0.14 1.74,0.42c0.5,0.28 0.89,0.66 1.17,1.16c0.29,0.49 0.43,1.06 0.43,1.7c0,0.64 -0.14,1.21 -0.43,1.71c-0.28,0.5 -0.67,0.89 -1.17,1.17c-0.5,0.29 -1.08,0.43 -1.74,0.43zm0,-1.12c0.4,0 0.76,-0.09 1.06,-0.27c0.3,-0.18 0.54,-0.43 0.71,-0.76c0.18,-0.33 0.26,-0.72 0.26,-1.16c0,-0.44 -0.08,-0.82 -0.26,-1.15c-0.17,-0.32 -0.41,-0.57 -0.71,-0.75c-0.3,-0.17 -0.66,-0.26 -1.06,-0.26c-0.39,0 -0.74,0.09 -1.05,0.26c-0.31,0.18 -0.54,0.43 -0.72,0.75c-0.17,0.33 -0.25,0.71 -0.25,1.15c0,0.44 0.08,0.83 0.25,1.16c0.18,0.33 0.41,0.58 0.72,0.76c0.31,0.18 0.66,0.27 1.05,0.27zm7.87,1.12c-0.66,0 -1.24,-0.14 -1.74,-0.43c-0.5,-0.28 -0.89,-0.67 -1.18,-1.17c-0.28,-0.5 -0.42,-1.07 -0.42,-1.71c0,-0.64 0.14,-1.21 0.42,-1.7c0.29,-0.5 0.68,-0.88 1.18,-1.16c0.5,-0.28 1.08,-0.42 1.74,-0.42c0.65,0 1.23,0.14 1.73,0.42c0.51,0.28 0.9,0.66 1.18,1.16c0.28,0.49 0.42,1.06 0.42,1.7c0,0.64 -0.14,1.21 -0.42,1.71c-0.28,0.5 -0.67,0.89 -1.18,1.17c-0.5,0.29 -1.08,0.43 -1.73,0.43zm0,-1.12c0.4,0 0.75,-0.09 1.05,-0.27c0.31,-0.18 0.55,-0.43 0.72,-0.76c0.17,-0.33 0.26,-0.72 0.26,-1.16c0,-0.44 -0.09,-0.82 -0.26,-1.15c-0.17,-0.32 -0.41,-0.57 -0.72,-0.75c-0.3,-0.17 -0.65,-0.26 -1.05,-0.26c-0.4,0 -0.75,0.09 -1.06,0.26c-0.3,0.18 -0.54,0.43 -0.71,0.75c-0.17,0.33 -0.26,0.71 -0.26,1.15c0,0.44 0.09,0.83 0.26,1.16c0.17,0.33 0.41,0.58 0.71,0.76c0.31,0.18 0.66,0.27 1.06,0.27zm6.16,-8.38l0,9.38l-1.29,0l0,-9.38l1.29,0zm1.76,9.38l0,-6.37l1.28,0l0,6.37l-1.28,0zm0.65,-7.69c-0.23,0 -0.42,-0.06 -0.59,-0.18c-0.16,-0.13 -0.24,-0.3 -0.24,-0.51c0,-0.21 0.08,-0.38 0.24,-0.5c0.17,-0.12 0.36,-0.19 0.59,-0.19c0.22,0 0.41,0.07 0.57,0.19c0.16,0.12 0.24,0.29 0.24,0.5c0,0.21 -0.08,0.38 -0.24,0.51c-0.16,0.12 -0.35,0.18 -0.57,0.18zm6.9,7.69l0,-2.94c0,-0.17 0,-0.32 0,-0.44c0,-0.12 0,-0.23 0,-0.33c0,-0.32 -0.05,-0.59 -0.14,-0.83c-0.1,-0.24 -0.26,-0.42 -0.48,-0.55c-0.22,-0.14 -0.51,-0.21 -0.88,-0.21c-0.32,0 -0.62,0.08 -0.88,0.24c-0.26,0.16 -0.47,0.38 -0.62,0.66c-0.16,0.27 -0.23,0.58 -0.23,0.93l-0.56,-0.28c0,-0.52 0.12,-0.98 0.37,-1.39c0.24,-0.41 0.57,-0.73 0.97,-0.97c0.42,-0.24 0.87,-0.36 1.35,-0.36c0.51,0 0.94,0.09 1.29,0.29c0.36,0.19 0.64,0.47 0.83,0.83c0.19,0.35 0.28,0.78 0.28,1.28c0,0.18 0,0.38 0,0.61c0,0.22 0,0.44 0,0.65l0,2.81l-1.3,0zm-4.53,0l0,-6.37l1.3,0l0,6.37l-1.3,0zm11.65,-0.51c0.36,0.03 0.68,0.1 0.95,0.2c0.27,0.1 0.49,0.25 0.64,0.45c0.15,0.2 0.23,0.46 0.23,0.78c0,0.37 -0.12,0.68 -0.37,0.95c-0.24,0.27 -0.61,0.48 -1.1,0.63c-0.49,0.15 -1.09,0.23 -1.82,0.23c-1.03,0 -1.82,-0.15 -2.37,-0.45c-0.54,-0.3 -0.81,-0.71 -0.81,-1.22c0,-0.16 0.02,-0.3 0.05,-0.42c0.04,-0.12 0.08,-0.22 0.13,-0.3l1.22,0.18c-0.03,0.04 -0.06,0.1 -0.09,0.18c-0.03,0.08 -0.04,0.17 -0.04,0.28c0,0.29 0.17,0.49 0.52,0.61c0.35,0.12 0.83,0.18 1.45,0.18c0.45,0 0.82,-0.03 1.12,-0.1c0.3,-0.06 0.52,-0.14 0.67,-0.26c0.15,-0.12 0.22,-0.25 0.22,-0.41c0,-0.23 -0.1,-0.38 -0.3,-0.44c-0.21,-0.06 -0.45,-0.1 -0.74,-0.13l-2.42,-0.2c-0.42,-0.03 -0.76,-0.16 -1.03,-0.37c-0.26,-0.22 -0.4,-0.49 -0.4,-0.82c0,-0.2 0.06,-0.39 0.16,-0.57c0.1,-0.18 0.22,-0.32 0.36,-0.44c0.14,-0.12 0.26,-0.2 0.36,-0.23l0.85,0.41c-0.09,0.01 -0.2,0.08 -0.33,0.19c-0.13,0.11 -0.2,0.23 -0.2,0.38c0,0.14 0.06,0.25 0.17,0.34c0.12,0.09 0.34,0.14 0.67,0.17l2.25,0.2zm0.8,-5.86l1.18,0l-0.48,2.49c-0.09,0.46 -0.25,0.88 -0.49,1.26c-0.23,0.37 -0.55,0.66 -0.95,0.88c-0.39,0.22 -0.89,0.32 -1.48,0.32c-0.61,0 -1.14,-0.1 -1.59,-0.31c-0.44,-0.22 -0.78,-0.51 -1.02,-0.89c-0.24,-0.38 -0.36,-0.81 -0.36,-1.29c0,-0.49 0.12,-0.93 0.37,-1.32c0.25,-0.39 0.59,-0.69 1.02,-0.91c0.43,-0.22 0.93,-0.33 1.49,-0.33c0.47,0 0.89,0.08 1.26,0.24c0.36,0.16 0.66,0.36 0.87,0.61c0.22,0.25 0.34,0.5 0.36,0.77l-0.38,0.04l0.2,-1.56zm-2.22,3.89c0.34,0 0.64,-0.05 0.9,-0.17c0.25,-0.11 0.44,-0.28 0.58,-0.49c0.13,-0.22 0.2,-0.49 0.2,-0.8c0,-0.3 -0.07,-0.56 -0.2,-0.78c-0.14,-0.22 -0.33,-0.38 -0.58,-0.5c-0.26,-0.12 -0.55,-0.18 -0.9,-0.18c-0.33,0 -0.62,0.06 -0.88,0.19c-0.25,0.12 -0.45,0.29 -0.59,0.51c-0.15,0.22 -0.22,0.48 -0.22,0.78c0,0.31 0.07,0.57 0.2,0.78c0.14,0.21 0.33,0.38 0.59,0.49c0.25,0.12 0.55,0.17 0.9,0.17z" fill="rgb(255, 255, 255)" id="svg_5"/>
 </g>
</svg>