<svg width="120" height="120" viewBox="0 0 120 120" fill="none" xmlns="http://www.w3.org/2000/svg">
<rect x="2.5" y="2.5" width="115" height="115" rx="10.5" fill="#DCE6FA" stroke="#3670DE" stroke-width="5"/>
<path d="M60.7064 61.328C61.0944 61.328 61.4586 61.5091 61.6693 61.8394L64.6921 66.5699C65.6653 66.3553 66.6146 66.0732 67.5284 65.7354L67.5247 60.102C67.5247 59.6931 67.7402 59.3137 68.0904 59.1064C68.4741 58.8804 68.8496 58.6422 69.2113 58.3863C69.5447 58.1511 69.9774 58.1098 70.3471 58.279L75.4162 60.6112C76.1204 59.9003 76.7719 59.1477 77.3592 58.3668L74.3386 53.6401C74.1177 53.2957 74.0961 52.8576 74.2815 52.4937C74.483 52.0958 74.6732 51.6902 74.8424 51.2754C74.996 50.8964 75.3382 50.629 75.7401 50.5715L81.25 49.7776C81.4548 48.8075 81.5944 47.8201 81.6677 46.8256L76.6125 44.5048C76.2417 44.3356 75.9885 43.9794 75.9475 43.5716C75.9028 43.1199 75.8284 42.6774 75.7482 42.2383C75.6738 41.836 75.8182 41.4248 76.1248 41.1586L80.3432 37.4828C79.9973 36.5587 79.584 35.6531 79.1099 34.7763L73.5908 35.5783C73.1892 35.638 72.7862 35.4754 72.533 35.1565C72.256 34.8073 71.9618 34.4732 71.657 34.1495C71.3778 33.8508 71.277 33.4268 71.3913 33.0341L72.9705 27.6366C72.1871 27.0526 71.3536 26.5153 70.4801 26.0316L66.2654 29.7107C65.9573 29.9792 65.5315 30.0632 65.1479 29.9309C64.7298 29.7893 64.3041 29.668 63.8721 29.5599C63.476 29.4607 63.1635 29.1576 63.0492 28.7661L61.4737 23.3535C60.491 23.2868 59.5087 23.2868 58.5252 23.3535L56.9497 28.7661C56.8361 29.1576 56.5225 29.4607 56.1275 29.5599C55.6959 29.668 55.2698 29.7893 54.8521 29.9309C54.4674 30.0632 54.0413 29.9792 53.7335 29.7107L49.5199 26.0316C48.646 26.5153 47.8125 27.0526 47.0295 27.6366L48.6072 33.0341C48.7215 33.4268 48.6208 33.8508 48.3427 34.1495C48.0382 34.4732 47.744 34.8073 47.4666 35.1565C47.2138 35.4754 46.814 35.638 46.4077 35.5783L40.8897 34.7763C40.416 35.6531 40.0027 36.5587 39.6557 37.4828L43.8748 41.1586C44.1818 41.4248 44.3247 41.836 44.2515 42.2383C44.1716 42.6774 44.0957 43.1199 44.0514 43.5716C44.01 43.9794 43.7583 44.3356 43.3871 44.5048L38.3308 46.8256C38.4041 47.8201 38.5448 48.8075 38.75 49.7776L44.2595 50.5715C44.6615 50.629 45.0026 50.8964 45.1572 51.2754C45.3257 51.6902 45.5155 52.0958 45.7171 52.4937C45.9028 52.8576 45.8808 53.2957 45.6599 53.6401L42.6393 58.3668C43.2281 59.1477 43.8785 59.9003 44.5827 60.6112L49.6525 58.279C50.0237 58.1087 50.4553 58.15 50.7884 58.3852C51.1489 58.6422 51.5245 58.8782 51.9092 59.1053C52.2598 59.3126 52.4749 59.6905 52.4749 60.0998L52.4705 65.731C53.3839 66.0684 54.3344 66.346 55.3064 66.5606L58.3292 61.8225C58.5491 61.4766 58.9257 61.2694 59.3416 61.2934L59.6369 61.3107C59.8773 61.3269 60.1213 61.3454 60.3616 61.328H60.7064ZM64.1517 68.9976C63.7658 68.9976 63.4016 68.8018 63.1877 68.4688L60.103 63.6326H59.8956L56.8112 68.4688C56.5602 68.8626 56.0942 69.0691 55.641 68.9791C53.9922 68.6738 52.3936 68.2059 50.8913 67.5872C50.4608 67.4087 50.1794 66.988 50.1805 66.519L50.1838 60.7473C50.13 60.7126 50.075 60.678 50.0211 60.6437L44.8241 63.0356C44.4039 63.2292 43.9034 63.1484 43.5634 62.8273C42.3396 61.6713 41.2459 60.4062 40.3152 59.0685C40.047 58.6846 40.0379 58.1776 40.29 57.7834L43.3849 52.9406C43.3574 52.8808 43.3289 52.8207 43.3025 52.761L37.6486 51.9472C37.188 51.8816 36.8125 51.5405 36.7003 51.0866C36.3006 49.4779 36.065 47.8164 36.0009 46.1479C35.9826 45.68 36.2471 45.2482 36.6696 45.0546L41.8563 42.6748C41.8655 42.6081 41.8757 42.5413 41.886 42.4746L37.5647 38.7088C37.2133 38.4024 37.0807 37.9127 37.2294 37.4691C37.7526 35.9042 38.4477 34.3799 39.2937 32.9371C39.5297 32.5348 39.9855 32.3151 40.4435 32.3829L46.1018 33.2055C46.1443 33.1572 46.1857 33.1089 46.2278 33.0603L44.6113 27.5308C44.4805 27.0824 44.6307 26.5983 44.9934 26.3059C46.2634 25.2849 47.6648 24.3804 49.1601 23.6164C49.5734 23.4055 50.075 23.4667 50.4278 23.7742L54.7502 27.5478C54.8118 27.5293 54.8726 27.5124 54.9334 27.4939L56.5489 21.9479C56.6793 21.4984 57.0677 21.1725 57.5312 21.1253C59.1664 20.9582 60.8325 20.9582 62.4684 21.1253C62.9312 21.1725 63.3203 21.4984 63.4507 21.9479L65.0655 27.4939C65.127 27.5124 65.1878 27.5293 65.2487 27.5478L69.5711 23.7742C69.9235 23.4678 70.4262 23.4077 70.8395 23.6164C72.3348 24.3804 73.7363 25.2849 75.0051 26.3059C75.3679 26.5983 75.5192 27.0824 75.3887 27.5308L73.7718 33.0603C73.8132 33.1089 73.8554 33.1572 73.8968 33.2055L79.5554 32.3829C80.0087 32.3195 80.4689 32.5348 80.7059 32.9371C81.5523 34.3799 82.2459 35.9042 82.7706 37.4691C82.9182 37.9127 82.7863 38.4024 82.4349 38.7088L78.1125 42.4746C78.1228 42.5413 78.1331 42.6081 78.1433 42.6748L83.3304 45.0546C83.7529 45.2482 84.0174 45.68 83.9991 46.1479C83.935 47.8164 83.699 49.4779 83.2993 51.0866C83.1861 51.5405 82.8116 51.8816 82.3503 51.9472L76.6975 52.761C76.67 52.8207 76.6426 52.8808 76.6136 52.9406L79.7097 57.7834C79.9607 58.1776 79.9515 58.6846 79.6848 59.0685C78.7526 60.4062 77.6593 61.6713 76.4352 62.8273C76.0952 63.1484 75.5983 63.2292 75.1755 63.0356L69.9774 60.6437C69.9235 60.678 69.8697 60.7126 69.8158 60.7473L69.8195 66.519C69.8195 66.988 69.5388 67.4087 69.1083 67.5872C67.605 68.2059 66.0064 68.6738 64.3576 68.9791C64.2891 68.9917 64.2202 68.9976 64.1517 68.9976Z" fill="#293682"/>
<path d="M60 34.723C54.3021 34.723 49.6651 39.4758 49.6651 45.3167C49.6651 51.1573 54.3021 55.909 60 55.909C65.6979 55.909 70.3349 51.1573 70.3349 45.3167C70.3349 39.4758 65.6979 34.723 60 34.723ZM60 58.2632C53.0355 58.2632 47.3684 52.4557 47.3684 45.3164C47.3684 38.1774 53.0355 32.3684 60 32.3684C66.9646 32.3688 72.6316 38.1774 72.6316 45.3167C72.6316 52.4557 66.9646 58.2632 60 58.2632Z" fill="#293682"/>
<path d="M60 42.948C58.7809 42.948 57.7895 44.0103 57.7895 45.3167C57.7895 46.6216 58.7809 47.6839 60 47.6839C61.2192 47.6839 62.2105 46.6216 62.2105 45.3167C62.2105 44.0103 61.2192 42.948 60 42.948ZM60 50.0526C57.5617 50.0526 55.5789 47.9291 55.5789 45.3167C55.5789 42.704 57.5617 40.5789 60 40.5789C62.4383 40.5793 64.4211 42.704 64.4211 45.3167C64.4211 47.9291 62.4383 50.0526 60 50.0526Z" fill="#293682"/>
<path d="M25.4747 88L27.8387 79.132H29.8847L32.2247 88H30.8867L28.8527 79.954H28.8647L26.8187 88H25.4747ZM26.8427 85.75V84.67H30.8747V85.75H26.8427ZM35.8224 88.114C35.3704 88.114 34.9944 88.038 34.6944 87.886C34.3944 87.73 34.1564 87.528 33.9804 87.28C33.8044 87.028 33.6804 86.754 33.6084 86.458C33.5364 86.158 33.5004 85.866 33.5004 85.582C33.5004 85.434 33.5004 85.28 33.5004 85.12C33.5004 84.956 33.5004 84.792 33.5004 84.628V81.628H34.8084V84.442C34.8084 84.586 34.8084 84.728 34.8084 84.868C34.8084 85.004 34.8084 85.132 34.8084 85.252C34.8084 85.56 34.8484 85.844 34.9284 86.104C35.0084 86.36 35.1484 86.568 35.3484 86.728C35.5524 86.884 35.8364 86.962 36.2004 86.962C36.5404 86.962 36.8364 86.862 37.0884 86.662C37.3404 86.458 37.5364 86.202 37.6764 85.894C37.8164 85.582 37.8864 85.27 37.8864 84.958L38.4564 85.264C38.4564 85.632 38.3944 85.986 38.2704 86.326C38.1504 86.666 37.9764 86.972 37.7484 87.244C37.5204 87.512 37.2424 87.724 36.9144 87.88C36.5904 88.036 36.2264 88.114 35.8224 88.114ZM37.8864 88V81.628H39.1884V88H37.8864ZM43.5604 88.108C43.3484 88.108 43.1364 88.086 42.9244 88.042C42.7164 87.998 42.5244 87.918 42.3484 87.802C42.1764 87.682 42.0384 87.512 41.9344 87.292C41.8304 87.072 41.7784 86.784 41.7784 86.428C41.7784 86.344 41.7784 86.256 41.7784 86.164C41.7784 86.072 41.7784 85.978 41.7784 85.882V82.708H40.2484V81.628H41.0524C41.2244 81.628 41.3584 81.622 41.4544 81.61C41.5544 81.594 41.6264 81.56 41.6704 81.508C41.7184 81.452 41.7484 81.364 41.7604 81.244C41.7724 81.124 41.7784 80.96 41.7784 80.752V79.522H43.0804V81.628H45.0304V82.708H43.0804V85.534C43.0804 85.614 43.0804 85.694 43.0804 85.774C43.0804 85.854 43.0804 85.928 43.0804 85.996C43.0804 86.316 43.1184 86.568 43.1944 86.752C43.2744 86.936 43.4544 87.028 43.7344 87.028C43.8544 87.028 43.9684 87.018 44.0764 86.998C44.1844 86.978 44.2664 86.956 44.3224 86.932V87.994C44.2504 88.022 44.1484 88.048 44.0164 88.072C43.8844 88.096 43.7324 88.108 43.5604 88.108ZM49.1644 88.12C48.5084 88.12 47.9284 87.978 47.4244 87.694C46.9244 87.41 46.5324 87.02 46.2484 86.524C45.9684 86.024 45.8284 85.452 45.8284 84.808C45.8284 84.168 45.9684 83.602 46.2484 83.11C46.5324 82.614 46.9244 82.228 47.4244 81.952C47.9284 81.672 48.5084 81.532 49.1644 81.532C49.8204 81.532 50.3984 81.672 50.8984 81.952C51.4024 82.228 51.7944 82.614 52.0744 83.11C52.3584 83.602 52.5004 84.168 52.5004 84.808C52.5004 85.452 52.3584 86.024 52.0744 86.524C51.7944 87.02 51.4024 87.41 50.8984 87.694C50.3984 87.978 49.8204 88.12 49.1644 88.12ZM49.1644 87.004C49.5644 87.004 49.9164 86.914 50.2204 86.734C50.5244 86.554 50.7624 86.3 50.9344 85.972C51.1064 85.64 51.1924 85.252 51.1924 84.808C51.1924 84.368 51.1064 83.986 50.9344 83.662C50.7624 83.338 50.5244 83.088 50.2204 82.912C49.9164 82.736 49.5644 82.648 49.1644 82.648C48.7684 82.648 48.4164 82.736 48.1084 82.912C47.8044 83.088 47.5664 83.338 47.3944 83.662C47.2224 83.986 47.1364 84.368 47.1364 84.808C47.1364 85.252 47.2224 85.64 47.3944 85.972C47.5664 86.3 47.8044 86.554 48.1084 86.734C48.4164 86.914 48.7684 87.004 49.1644 87.004ZM57.8917 88V85.3C57.8917 85.056 57.8917 84.846 57.8917 84.67C57.8917 84.49 57.8917 84.338 57.8917 84.214C57.8917 84.058 57.8797 83.892 57.8557 83.716C57.8357 83.54 57.7877 83.376 57.7117 83.224C57.6397 83.068 57.5257 82.942 57.3697 82.846C57.2137 82.75 56.9997 82.702 56.7277 82.702C56.4557 82.702 56.2257 82.756 56.0377 82.864C55.8497 82.972 55.6977 83.116 55.5817 83.296C55.4657 83.472 55.3817 83.67 55.3297 83.89C55.2777 84.106 55.2517 84.324 55.2517 84.544L54.6997 84.244C54.6997 83.744 54.7977 83.29 54.9937 82.882C55.1937 82.47 55.4737 82.142 55.8337 81.898C56.1977 81.65 56.6257 81.526 57.1177 81.526C57.6177 81.526 58.0177 81.63 58.3177 81.838C58.6217 82.042 58.8417 82.322 58.9777 82.678C59.1137 83.03 59.1817 83.43 59.1817 83.878C59.1817 84.042 59.1817 84.256 59.1817 84.52C59.1817 84.784 59.1817 85.09 59.1817 85.438V88H57.8917ZM53.9497 88V81.628H55.2517V88H53.9497ZM61.8157 88V85.306C61.8157 85.042 61.8157 84.822 61.8157 84.646C61.8157 84.466 61.8157 84.316 61.8157 84.196C61.8157 84.032 61.8057 83.864 61.7857 83.692C61.7657 83.516 61.7177 83.354 61.6417 83.206C61.5657 83.058 61.4477 82.938 61.2877 82.846C61.1317 82.75 60.9137 82.702 60.6337 82.702C60.3577 82.702 60.1257 82.756 59.9377 82.864C59.7537 82.968 59.6057 83.108 59.4937 83.284C59.3817 83.456 59.3017 83.646 59.2537 83.854C59.2057 84.062 59.1817 84.268 59.1817 84.472L58.6297 84.184C58.6297 83.704 58.7257 83.262 58.9177 82.858C59.1137 82.454 59.3897 82.132 59.7457 81.892C60.1057 81.648 60.5317 81.526 61.0237 81.526C61.5037 81.526 61.8977 81.622 62.2057 81.814C62.5137 82.006 62.7417 82.272 62.8897 82.612C63.0377 82.952 63.1117 83.346 63.1117 83.794C63.1117 83.966 63.1117 84.182 63.1117 84.442C63.1117 84.702 63.1117 85.004 63.1117 85.348V88H61.8157ZM66.9741 88.126C66.4941 88.126 66.0721 88.05 65.7081 87.898C65.3481 87.746 65.0681 87.528 64.8681 87.244C64.6681 86.96 64.5681 86.618 64.5681 86.218C64.5681 85.79 64.6801 85.436 64.9041 85.156C65.1321 84.876 65.4441 84.66 65.8401 84.508C66.2401 84.352 66.6941 84.25 67.2021 84.202C67.9581 84.126 68.4901 84.052 68.7981 83.98C69.1101 83.908 69.2661 83.79 69.2661 83.626C69.2661 83.622 69.2661 83.618 69.2661 83.614C69.2661 83.29 69.1281 83.044 68.8521 82.876C68.5761 82.708 68.1821 82.624 67.6701 82.624C67.1301 82.624 66.7121 82.72 66.4161 82.912C66.1241 83.1 65.9781 83.4 65.9781 83.812H64.7001C64.7001 83.324 64.8261 82.91 65.0781 82.57C65.3341 82.23 65.6861 81.972 66.1341 81.796C66.5821 81.616 67.0961 81.526 67.6761 81.526C68.2081 81.526 68.6921 81.608 69.1281 81.772C69.5681 81.932 69.9181 82.172 70.1781 82.492C70.4381 82.812 70.5681 83.21 70.5681 83.686C70.5681 83.77 70.5681 83.854 70.5681 83.938C70.5681 84.018 70.5681 84.1 70.5681 84.184V86.728C70.5681 86.876 70.5741 87.02 70.5861 87.16C70.5981 87.296 70.6201 87.418 70.6521 87.526C70.6881 87.65 70.7301 87.752 70.7781 87.832C70.8301 87.912 70.8721 87.968 70.9041 88H69.6081C69.5841 87.976 69.5481 87.926 69.5001 87.85C69.4561 87.77 69.4161 87.678 69.3801 87.574C69.3441 87.474 69.3161 87.36 69.2961 87.232C69.2801 87.1 69.2721 86.958 69.2721 86.806L69.5121 86.974C69.3921 87.206 69.2101 87.408 68.9661 87.58C68.7261 87.752 68.4361 87.886 68.0961 87.982C67.7601 88.078 67.3861 88.126 66.9741 88.126ZM67.2441 87.046C67.6161 87.046 67.9541 86.988 68.2581 86.872C68.5661 86.752 68.8121 86.572 68.9961 86.332C69.1801 86.088 69.2721 85.782 69.2721 85.414V84.358L69.5781 84.76C69.3221 84.86 69.0081 84.942 68.6361 85.006C68.2681 85.066 67.8881 85.116 67.4961 85.156C66.9561 85.204 66.5501 85.298 66.2781 85.438C66.0061 85.574 65.8701 85.802 65.8701 86.122C65.8701 86.43 65.9821 86.662 66.2061 86.818C66.4341 86.97 66.7801 87.046 67.2441 87.046ZM74.7088 88.108C74.4968 88.108 74.2848 88.086 74.0728 88.042C73.8648 87.998 73.6728 87.918 73.4968 87.802C73.3248 87.682 73.1868 87.512 73.0828 87.292C72.9788 87.072 72.9268 86.784 72.9268 86.428C72.9268 86.344 72.9268 86.256 72.9268 86.164C72.9268 86.072 72.9268 85.978 72.9268 85.882V82.708H71.3968V81.628H72.2008C72.3728 81.628 72.5068 81.622 72.6028 81.61C72.7028 81.594 72.7748 81.56 72.8188 81.508C72.8668 81.452 72.8968 81.364 72.9088 81.244C72.9208 81.124 72.9268 80.96 72.9268 80.752V79.522H74.2288V81.628H76.1788V82.708H74.2288V85.534C74.2288 85.614 74.2288 85.694 74.2288 85.774C74.2288 85.854 74.2288 85.928 74.2288 85.996C74.2288 86.316 74.2668 86.568 74.3428 86.752C74.4228 86.936 74.6028 87.028 74.8828 87.028C75.0028 87.028 75.1168 87.018 75.2248 86.998C75.3328 86.978 75.4148 86.956 75.4708 86.932V87.994C75.3988 88.022 75.2968 88.048 75.1648 88.072C75.0328 88.096 74.8808 88.108 74.7088 88.108ZM77.4403 88V81.628H78.7243V88H77.4403ZM78.0883 80.308C77.8643 80.308 77.6703 80.248 77.5063 80.128C77.3463 80.004 77.2663 79.834 77.2663 79.618C77.2663 79.406 77.3463 79.24 77.5063 79.12C77.6703 78.996 77.8643 78.934 78.0883 78.934C78.3083 78.934 78.4983 78.996 78.6583 79.12C78.8223 79.24 78.9043 79.406 78.9043 79.618C78.9043 79.834 78.8223 80.004 78.6583 80.128C78.4983 80.248 78.3083 80.308 78.0883 80.308ZM83.5355 88.12C82.8795 88.12 82.2995 87.978 81.7955 87.694C81.2955 87.41 80.9035 87.02 80.6195 86.524C80.3395 86.024 80.1995 85.452 80.1995 84.808C80.1995 84.168 80.3395 83.602 80.6195 83.11C80.9035 82.614 81.2955 82.228 81.7955 81.952C82.2995 81.672 82.8795 81.532 83.5355 81.532C84.1915 81.532 84.7695 81.672 85.2695 81.952C85.7735 82.228 86.1655 82.614 86.4455 83.11C86.7295 83.602 86.8715 84.168 86.8715 84.808C86.8715 85.452 86.7295 86.024 86.4455 86.524C86.1655 87.02 85.7735 87.41 85.2695 87.694C84.7695 87.978 84.1915 88.12 83.5355 88.12ZM83.5355 87.004C83.9355 87.004 84.2875 86.914 84.5915 86.734C84.8955 86.554 85.1335 86.3 85.3055 85.972C85.4775 85.64 85.5635 85.252 85.5635 84.808C85.5635 84.368 85.4775 83.986 85.3055 83.662C85.1335 83.338 84.8955 83.088 84.5915 82.912C84.2875 82.736 83.9355 82.648 83.5355 82.648C83.1395 82.648 82.7875 82.736 82.4795 82.912C82.1755 83.088 81.9375 83.338 81.7655 83.662C81.5935 83.986 81.5075 84.368 81.5075 84.808C81.5075 85.252 81.5935 85.64 81.7655 85.972C81.9375 86.3 82.1755 86.554 82.4795 86.734C82.7875 86.914 83.1395 87.004 83.5355 87.004ZM92.8568 88V85.06C92.8568 84.888 92.8568 84.742 92.8568 84.622C92.8568 84.502 92.8568 84.39 92.8568 84.286C92.8568 83.974 92.8088 83.7 92.7128 83.464C92.6168 83.224 92.4588 83.038 92.2388 82.906C92.0188 82.77 91.7248 82.702 91.3568 82.702C91.0328 82.702 90.7388 82.782 90.4748 82.942C90.2148 83.102 90.0068 83.32 89.8508 83.596C89.6988 83.868 89.6228 84.178 89.6228 84.526L89.0648 84.25C89.0648 83.734 89.1868 83.272 89.4308 82.864C89.6748 82.452 90.0008 82.126 90.4088 81.886C90.8208 81.646 91.2708 81.526 91.7588 81.526C92.2628 81.526 92.6928 81.624 93.0488 81.82C93.4088 82.012 93.6828 82.288 93.8708 82.648C94.0628 83.004 94.1588 83.43 94.1588 83.926C94.1588 84.11 94.1588 84.314 94.1588 84.538C94.1588 84.762 94.1588 84.978 94.1588 85.186V88H92.8568ZM88.3208 88V81.628H89.6228V88H88.3208ZM36.4575 102.12C35.8775 102.12 35.3575 102.03 34.8975 101.85C34.4415 101.67 34.0795 101.408 33.8115 101.064C33.5475 100.716 33.4155 100.298 33.4155 99.81C33.4155 99.386 33.5255 99.01 33.7455 98.682C33.9655 98.35 34.2795 98.036 34.6875 97.74C35.0995 97.44 35.5895 97.132 36.1575 96.816C36.6935 96.516 37.0895 96.212 37.3455 95.904C37.6015 95.596 37.7295 95.268 37.7295 94.92C37.7295 94.696 37.6795 94.512 37.5795 94.368C37.4835 94.22 37.3555 94.11 37.1955 94.038C37.0395 93.966 36.8695 93.93 36.6855 93.93C36.5095 93.93 36.3355 93.966 36.1635 94.038C35.9955 94.106 35.8575 94.214 35.7495 94.362C35.6455 94.506 35.5935 94.69 35.5935 94.914C35.5935 95.206 35.6815 95.504 35.8575 95.808C36.0375 96.112 36.2795 96.458 36.5835 96.846L39.6915 100.716C39.8395 100.9 39.9715 101.018 40.0875 101.07C40.2035 101.122 40.3015 101.148 40.3815 101.148C40.4575 101.148 40.5315 101.14 40.6035 101.124C40.6795 101.108 40.7315 101.092 40.7595 101.076V101.994C40.7435 102.002 40.6855 102.018 40.5855 102.042C40.4855 102.07 40.3575 102.084 40.2015 102.084C40.0215 102.084 39.8295 102.04 39.6255 101.952C39.4255 101.86 39.2375 101.708 39.0615 101.496L35.7615 97.422C35.5615 97.17 35.3635 96.908 35.1675 96.636C34.9755 96.364 34.8155 96.08 34.6875 95.784C34.5635 95.488 34.5015 95.178 34.5015 94.854C34.5015 94.506 34.5975 94.198 34.7895 93.93C34.9855 93.658 35.2475 93.446 35.5755 93.294C35.9035 93.142 36.2695 93.066 36.6735 93.066C37.0855 93.066 37.4475 93.142 37.7595 93.294C38.0755 93.442 38.3235 93.65 38.5035 93.918C38.6835 94.186 38.7735 94.498 38.7735 94.854C38.7735 95.238 38.6895 95.588 38.5215 95.904C38.3535 96.216 38.1135 96.508 37.8015 96.78C37.4935 97.048 37.1215 97.306 36.6855 97.554C36.0255 97.934 35.5155 98.286 35.1555 98.61C34.7955 98.934 34.6155 99.314 34.6155 99.75C34.6155 100.03 34.6975 100.278 34.8615 100.494C35.0295 100.71 35.2535 100.88 35.5335 101.004C35.8135 101.124 36.1235 101.184 36.4635 101.184C37.0235 101.184 37.4875 101.104 37.8555 100.944C38.2275 100.784 38.5395 100.572 38.7915 100.308C39.0715 100.008 39.2815 99.662 39.4215 99.27C39.5615 98.874 39.6315 98.43 39.6315 97.938H40.7055C40.7055 98.398 40.6535 98.816 40.5495 99.192C40.4455 99.568 40.3055 99.908 40.1295 100.212C39.9535 100.512 39.7495 100.778 39.5175 101.01C39.1975 101.334 38.7835 101.6 38.2755 101.808C37.7715 102.016 37.1655 102.12 36.4575 102.12ZM50.8368 94.23H48.1548L48.5628 93.546V102H47.2608V93.546L47.7108 94.23H44.9928V93.15H50.8368V94.23ZM54.2445 102.12C53.5885 102.12 53.0085 101.978 52.5045 101.694C52.0045 101.41 51.6125 101.02 51.3285 100.524C51.0485 100.024 50.9085 99.452 50.9085 98.808C50.9085 98.168 51.0485 97.602 51.3285 97.11C51.6125 96.614 52.0045 96.228 52.5045 95.952C53.0085 95.672 53.5885 95.532 54.2445 95.532C54.9005 95.532 55.4785 95.672 55.9785 95.952C56.4825 96.228 56.8745 96.614 57.1545 97.11C57.4385 97.602 57.5805 98.168 57.5805 98.808C57.5805 99.452 57.4385 100.024 57.1545 100.524C56.8745 101.02 56.4825 101.41 55.9785 101.694C55.4785 101.978 54.9005 102.12 54.2445 102.12ZM54.2445 101.004C54.6445 101.004 54.9965 100.914 55.3005 100.734C55.6045 100.554 55.8425 100.3 56.0145 99.972C56.1865 99.64 56.2725 99.252 56.2725 98.808C56.2725 98.368 56.1865 97.986 56.0145 97.662C55.8425 97.338 55.6045 97.088 55.3005 96.912C54.9965 96.736 54.6445 96.648 54.2445 96.648C53.8485 96.648 53.4965 96.736 53.1885 96.912C52.8845 97.088 52.6465 97.338 52.4745 97.662C52.3025 97.986 52.2165 98.368 52.2165 98.808C52.2165 99.252 52.3025 99.64 52.4745 99.972C52.6465 100.3 52.8845 100.554 53.1885 100.734C53.4965 100.914 53.8485 101.004 54.2445 101.004ZM62.1077 102.12C61.4517 102.12 60.8717 101.978 60.3677 101.694C59.8677 101.41 59.4757 101.02 59.1917 100.524C58.9117 100.024 58.7717 99.452 58.7717 98.808C58.7717 98.168 58.9117 97.602 59.1917 97.11C59.4757 96.614 59.8677 96.228 60.3677 95.952C60.8717 95.672 61.4517 95.532 62.1077 95.532C62.7637 95.532 63.3417 95.672 63.8417 95.952C64.3457 96.228 64.7377 96.614 65.0177 97.11C65.3017 97.602 65.4437 98.168 65.4437 98.808C65.4437 99.452 65.3017 100.024 65.0177 100.524C64.7377 101.02 64.3457 101.41 63.8417 101.694C63.3417 101.978 62.7637 102.12 62.1077 102.12ZM62.1077 101.004C62.5077 101.004 62.8597 100.914 63.1637 100.734C63.4677 100.554 63.7057 100.3 63.8777 99.972C64.0497 99.64 64.1357 99.252 64.1357 98.808C64.1357 98.368 64.0497 97.986 63.8777 97.662C63.7057 97.338 63.4677 97.088 63.1637 96.912C62.8597 96.736 62.5077 96.648 62.1077 96.648C61.7117 96.648 61.3597 96.736 61.0517 96.912C60.7477 97.088 60.5097 97.338 60.3377 97.662C60.1657 97.986 60.0797 98.368 60.0797 98.808C60.0797 99.252 60.1657 99.64 60.3377 99.972C60.5097 100.3 60.7477 100.554 61.0517 100.734C61.3597 100.914 61.7117 101.004 62.1077 101.004ZM68.267 92.622V102H66.983V92.622H68.267ZM70.0282 102V95.628H71.3122V102H70.0282ZM70.6762 94.308C70.4522 94.308 70.2582 94.248 70.0942 94.128C69.9342 94.004 69.8542 93.834 69.8542 93.618C69.8542 93.406 69.9342 93.24 70.0942 93.12C70.2582 92.996 70.4522 92.934 70.6762 92.934C70.8962 92.934 71.0862 92.996 71.2462 93.12C71.4102 93.24 71.4922 93.406 71.4922 93.618C71.4922 93.834 71.4102 94.004 71.2462 94.128C71.0862 94.248 70.8962 94.308 70.6762 94.308ZM77.5814 102V99.06C77.5814 98.888 77.5814 98.742 77.5814 98.622C77.5814 98.502 77.5814 98.39 77.5814 98.286C77.5814 97.974 77.5334 97.7 77.4374 97.464C77.3414 97.224 77.1834 97.038 76.9634 96.906C76.7434 96.77 76.4494 96.702 76.0814 96.702C75.7574 96.702 75.4634 96.782 75.1994 96.942C74.9394 97.102 74.7314 97.32 74.5754 97.596C74.4234 97.868 74.3474 98.178 74.3474 98.526L73.7894 98.25C73.7894 97.734 73.9114 97.272 74.1554 96.864C74.3994 96.452 74.7254 96.126 75.1334 95.886C75.5454 95.646 75.9954 95.526 76.4834 95.526C76.9874 95.526 77.4174 95.624 77.7734 95.82C78.1334 96.012 78.4074 96.288 78.5954 96.648C78.7874 97.004 78.8834 97.43 78.8834 97.926C78.8834 98.11 78.8834 98.314 78.8834 98.538C78.8834 98.762 78.8834 98.978 78.8834 99.186V102H77.5814ZM73.0454 102V95.628H74.3474V102H73.0454ZM84.7039 101.49C85.0639 101.522 85.3799 101.59 85.6519 101.694C85.9239 101.794 86.1359 101.942 86.2879 102.138C86.4439 102.338 86.5219 102.6 86.5219 102.924C86.5219 103.288 86.3979 103.604 86.1499 103.872C85.9059 104.144 85.5399 104.354 85.0519 104.502C84.5639 104.654 83.9579 104.73 83.2339 104.73C82.1979 104.73 81.4079 104.58 80.8639 104.28C80.3199 103.98 80.0479 103.572 80.0479 103.056C80.0479 102.9 80.0659 102.762 80.1019 102.642C80.1379 102.522 80.1819 102.422 80.2339 102.342L81.4459 102.522C81.4179 102.562 81.3899 102.62 81.3619 102.696C81.3339 102.776 81.3199 102.872 81.3199 102.984C81.3199 103.268 81.4939 103.47 81.8419 103.59C82.1899 103.71 82.6719 103.77 83.2879 103.77C83.7399 103.77 84.1139 103.738 84.4099 103.674C84.7099 103.614 84.9339 103.526 85.0819 103.41C85.2299 103.294 85.3039 103.158 85.3039 103.002C85.3039 102.766 85.2019 102.618 84.9979 102.558C84.7939 102.498 84.5479 102.456 84.2599 102.432L81.8419 102.234C81.4219 102.198 81.0779 102.072 80.8099 101.856C80.5459 101.64 80.4139 101.368 80.4139 101.04C80.4139 100.836 80.4659 100.646 80.5699 100.47C80.6739 100.294 80.7939 100.146 80.9299 100.026C81.0699 99.906 81.1899 99.832 81.2899 99.804L82.1419 100.212C82.0499 100.224 81.9379 100.286 81.8059 100.398C81.6779 100.506 81.6139 100.634 81.6139 100.782C81.6139 100.918 81.6699 101.03 81.7819 101.118C81.8979 101.206 82.1219 101.264 82.4539 101.292L84.7039 101.49ZM85.5019 95.628H86.6839L86.1979 98.118C86.1099 98.582 85.9479 99.002 85.7119 99.378C85.4799 99.75 85.1639 100.044 84.7639 100.26C84.3679 100.476 83.8739 100.584 83.2819 100.584C82.6659 100.584 82.1359 100.478 81.6919 100.266C81.2479 100.054 80.9059 99.76 80.6659 99.384C80.4299 99.004 80.3119 98.572 80.3119 98.088C80.3119 97.596 80.4339 97.156 80.6779 96.768C80.9259 96.38 81.2659 96.076 81.6979 95.856C82.1339 95.636 82.6319 95.526 83.1919 95.526C83.6639 95.526 84.0819 95.606 84.4459 95.766C84.8139 95.926 85.1059 96.13 85.3219 96.378C85.5379 96.626 85.6559 96.884 85.6759 97.152L85.3039 97.194L85.5019 95.628ZM83.2759 99.522C83.6239 99.522 83.9239 99.466 84.1759 99.354C84.4279 99.238 84.6219 99.072 84.7579 98.856C84.8939 98.636 84.9619 98.372 84.9619 98.064C84.9619 97.76 84.8939 97.5 84.7579 97.284C84.6219 97.064 84.4279 96.896 84.1759 96.78C83.9239 96.66 83.6259 96.6 83.2819 96.6C82.9499 96.6 82.6559 96.662 82.3999 96.786C82.1479 96.906 81.9499 97.076 81.8059 97.296C81.6619 97.516 81.5899 97.778 81.5899 98.082C81.5899 98.386 81.6579 98.646 81.7939 98.862C81.9299 99.074 82.1239 99.238 82.3759 99.354C82.6279 99.466 82.9279 99.522 83.2759 99.522Z" fill="#293682"/>
</svg>
