<?xml version="1.0" encoding="utf-8"?>
<svg width="120" height="120" viewBox="0 0 120 120" fill="none" xmlns="http://www.w3.org/2000/svg">
  <rect x="2.5" y="2.5" width="115" height="115" rx="10.5" stroke-width="5" style="fill: rgb(220, 230, 250); stroke: rgb(54, 112, 222);"/>
  <path d="M33.2942 85.868C33.2942 86.236 33.2262 86.61 33.0902 86.99C32.9542 87.37 32.7482 87.722 32.4722 88.046C32.1962 88.37 31.8482 88.632 31.4282 88.832C31.0082 89.028 30.5142 89.126 29.9462 89.126C29.1742 89.126 28.5162 88.932 27.9722 88.544C27.4322 88.152 27.0202 87.614 26.7362 86.93C26.4522 86.246 26.3102 85.462 26.3102 84.578C26.3102 83.69 26.4522 82.906 26.7362 82.226C27.0202 81.542 27.4322 81.006 27.9722 80.618C28.5162 80.23 29.1742 80.036 29.9462 80.036C30.5902 80.036 31.1382 80.162 31.5902 80.414C32.0462 80.666 32.4082 80.99 32.6762 81.386C32.9482 81.782 33.1282 82.194 33.2162 82.622C33.2682 82.854 33.2942 83.074 33.2942 83.282H31.9862C31.9862 83.17 31.9762 83.048 31.9562 82.916C31.9122 82.596 31.8042 82.302 31.6322 82.034C31.4642 81.766 31.2382 81.552 30.9542 81.392C30.6742 81.232 30.3382 81.152 29.9462 81.152C29.4902 81.152 29.0882 81.28 28.7402 81.536C28.3922 81.788 28.1202 82.168 27.9242 82.676C27.7322 83.184 27.6362 83.818 27.6362 84.578C27.6362 85.334 27.7322 85.968 27.9242 86.48C28.1202 86.988 28.3922 87.372 28.7402 87.632C29.0882 87.888 29.4902 88.016 29.9462 88.016C30.2782 88.016 30.5702 87.956 30.8222 87.836C31.0742 87.716 31.2862 87.554 31.4582 87.35C31.6302 87.146 31.7602 86.916 31.8482 86.66C31.9402 86.404 31.9862 86.14 31.9862 85.868H33.2942ZM37.7913 89.12C37.1353 89.12 36.5553 88.978 36.0513 88.694C35.5513 88.41 35.1593 88.02 34.8753 87.524C34.5953 87.024 34.4553 86.452 34.4553 85.808C34.4553 85.168 34.5953 84.602 34.8753 84.11C35.1593 83.614 35.5513 83.228 36.0513 82.952C36.5553 82.672 37.1353 82.532 37.7913 82.532C38.4473 82.532 39.0253 82.672 39.5253 82.952C40.0293 83.228 40.4213 83.614 40.7013 84.11C40.9853 84.602 41.1273 85.168 41.1273 85.808C41.1273 86.452 40.9853 87.024 40.7013 87.524C40.4213 88.02 40.0293 88.41 39.5253 88.694C39.0253 88.978 38.4473 89.12 37.7913 89.12ZM37.7913 88.004C38.1913 88.004 38.5433 87.914 38.8473 87.734C39.1513 87.554 39.3893 87.3 39.5613 86.972C39.7333 86.64 39.8193 86.252 39.8193 85.808C39.8193 85.368 39.7333 84.986 39.5613 84.662C39.3893 84.338 39.1513 84.088 38.8473 83.912C38.5433 83.736 38.1913 83.648 37.7913 83.648C37.3953 83.648 37.0433 83.736 36.7353 83.912C36.4313 84.088 36.1933 84.338 36.0213 84.662C35.8493 84.986 35.7633 85.368 35.7633 85.808C35.7633 86.252 35.8493 86.64 36.0213 86.972C36.1933 87.3 36.4313 87.554 36.7353 87.734C37.0433 87.914 37.3953 88.004 37.7913 88.004ZM47.1126 89V86.06C47.1126 85.888 47.1126 85.742 47.1126 85.622C47.1126 85.502 47.1126 85.39 47.1126 85.286C47.1126 84.974 47.0646 84.7 46.9686 84.464C46.8726 84.224 46.7146 84.038 46.4946 83.906C46.2746 83.77 45.9806 83.702 45.6126 83.702C45.2886 83.702 44.9946 83.782 44.7306 83.942C44.4706 84.102 44.2626 84.32 44.1066 84.596C43.9546 84.868 43.8786 85.178 43.8786 85.526L43.3206 85.25C43.3206 84.734 43.4426 84.272 43.6866 83.864C43.9306 83.452 44.2566 83.126 44.6646 82.886C45.0766 82.646 45.5266 82.526 46.0146 82.526C46.5186 82.526 46.9486 82.624 47.3046 82.82C47.6646 83.012 47.9386 83.288 48.1266 83.648C48.3186 84.004 48.4146 84.43 48.4146 84.926C48.4146 85.11 48.4146 85.314 48.4146 85.538C48.4146 85.762 48.4146 85.978 48.4146 86.186V89H47.1126ZM42.5766 89V82.628H43.8786V89H42.5766ZM52.6131 89.108C52.4011 89.108 52.1891 89.086 51.9771 89.042C51.7691 88.998 51.5771 88.918 51.4011 88.802C51.2291 88.682 51.0911 88.512 50.9871 88.292C50.8831 88.072 50.8311 87.784 50.8311 87.428C50.8311 87.344 50.8311 87.256 50.8311 87.164C50.8311 87.072 50.8311 86.978 50.8311 86.882V83.708H49.3011V82.628H50.1051C50.2771 82.628 50.4111 82.622 50.5071 82.61C50.6071 82.594 50.6791 82.56 50.7231 82.508C50.7711 82.452 50.8011 82.364 50.8131 82.244C50.8251 82.124 50.8311 81.96 50.8311 81.752V80.522H52.1331V82.628H54.0831V83.708H52.1331V86.534C52.1331 86.614 52.1331 86.694 52.1331 86.774C52.1331 86.854 52.1331 86.928 52.1331 86.996C52.1331 87.316 52.1711 87.568 52.2471 87.752C52.3271 87.936 52.5071 88.028 52.7871 88.028C52.9071 88.028 53.0211 88.018 53.1291 87.998C53.2371 87.978 53.3191 87.956 53.3751 87.932V88.994C53.3031 89.022 53.2011 89.048 53.0691 89.072C52.9371 89.096 52.7851 89.108 52.6131 89.108ZM55.3446 89V82.628H56.6286V89H55.3446ZM55.9926 81.308C55.7686 81.308 55.5746 81.248 55.4106 81.128C55.2506 81.004 55.1706 80.834 55.1706 80.618C55.1706 80.406 55.2506 80.24 55.4106 80.12C55.5746 79.996 55.7686 79.934 55.9926 79.934C56.2126 79.934 56.4026 79.996 56.5626 80.12C56.7266 80.24 56.8086 80.406 56.8086 80.618C56.8086 80.834 56.7266 81.004 56.5626 81.128C56.4026 81.248 56.2126 81.308 55.9926 81.308ZM62.8978 89V86.06C62.8978 85.888 62.8978 85.742 62.8978 85.622C62.8978 85.502 62.8978 85.39 62.8978 85.286C62.8978 84.974 62.8498 84.7 62.7538 84.464C62.6578 84.224 62.4998 84.038 62.2798 83.906C62.0598 83.77 61.7658 83.702 61.3978 83.702C61.0738 83.702 60.7798 83.782 60.5158 83.942C60.2558 84.102 60.0478 84.32 59.8918 84.596C59.7398 84.868 59.6638 85.178 59.6638 85.526L59.1058 85.25C59.1058 84.734 59.2278 84.272 59.4718 83.864C59.7158 83.452 60.0418 83.126 60.4498 82.886C60.8618 82.646 61.3118 82.526 61.7998 82.526C62.3038 82.526 62.7338 82.624 63.0898 82.82C63.4498 83.012 63.7238 83.288 63.9118 83.648C64.1038 84.004 64.1998 84.43 64.1998 84.926C64.1998 85.11 64.1998 85.314 64.1998 85.538C64.1998 85.762 64.1998 85.978 64.1998 86.186V89H62.8978ZM58.3618 89V82.628H59.6638V89H58.3618ZM68.1603 89.114C67.7083 89.114 67.3323 89.038 67.0323 88.886C66.7323 88.73 66.4943 88.528 66.3183 88.28C66.1423 88.028 66.0183 87.754 65.9463 87.458C65.8743 87.158 65.8383 86.866 65.8383 86.582C65.8383 86.434 65.8383 86.28 65.8383 86.12C65.8383 85.956 65.8383 85.792 65.8383 85.628V82.628H67.1463V85.442C67.1463 85.586 67.1463 85.728 67.1463 85.868C67.1463 86.004 67.1463 86.132 67.1463 86.252C67.1463 86.56 67.1863 86.844 67.2663 87.104C67.3463 87.36 67.4863 87.568 67.6863 87.728C67.8903 87.884 68.1743 87.962 68.5383 87.962C68.8783 87.962 69.1743 87.862 69.4263 87.662C69.6783 87.458 69.8743 87.202 70.0143 86.894C70.1543 86.582 70.2243 86.27 70.2243 85.958L70.7943 86.264C70.7943 86.632 70.7323 86.986 70.6083 87.326C70.4883 87.666 70.3143 87.972 70.0863 88.244C69.8583 88.512 69.5803 88.724 69.2523 88.88C68.9283 89.036 68.5643 89.114 68.1603 89.114ZM70.2243 89V82.628H71.5263V89H70.2243ZM76.2523 89.12C75.5963 89.12 75.0163 88.978 74.5123 88.694C74.0123 88.41 73.6203 88.02 73.3363 87.524C73.0563 87.024 72.9163 86.452 72.9163 85.808C72.9163 85.168 73.0563 84.602 73.3363 84.11C73.6203 83.614 74.0123 83.228 74.5123 82.952C75.0163 82.672 75.5963 82.532 76.2523 82.532C76.9083 82.532 77.4863 82.672 77.9863 82.952C78.4903 83.228 78.8823 83.614 79.1623 84.11C79.4463 84.602 79.5883 85.168 79.5883 85.808C79.5883 86.452 79.4463 87.024 79.1623 87.524C78.8823 88.02 78.4903 88.41 77.9863 88.694C77.4863 88.978 76.9083 89.12 76.2523 89.12ZM76.2523 88.004C76.6523 88.004 77.0043 87.914 77.3083 87.734C77.6123 87.554 77.8503 87.3 78.0223 86.972C78.1943 86.64 78.2803 86.252 78.2803 85.808C78.2803 85.368 78.1943 84.986 78.0223 84.662C77.8503 84.338 77.6123 84.088 77.3083 83.912C77.0043 83.736 76.6523 83.648 76.2523 83.648C75.8563 83.648 75.5043 83.736 75.1963 83.912C74.8923 84.088 74.6543 84.338 74.4823 84.662C74.3103 84.986 74.2243 85.368 74.2243 85.808C74.2243 86.252 74.3103 86.64 74.4823 86.972C74.6543 87.3 74.8923 87.554 75.1963 87.734C75.5043 87.914 75.8563 88.004 76.2523 88.004ZM83.3595 89.114C82.9075 89.114 82.5315 89.038 82.2315 88.886C81.9315 88.73 81.6935 88.528 81.5175 88.28C81.3415 88.028 81.2175 87.754 81.1455 87.458C81.0735 87.158 81.0375 86.866 81.0375 86.582C81.0375 86.434 81.0375 86.28 81.0375 86.12C81.0375 85.956 81.0375 85.792 81.0375 85.628V82.628H82.3455V85.442C82.3455 85.586 82.3455 85.728 82.3455 85.868C82.3455 86.004 82.3455 86.132 82.3455 86.252C82.3455 86.56 82.3855 86.844 82.4655 87.104C82.5455 87.36 82.6855 87.568 82.8855 87.728C83.0895 87.884 83.3735 87.962 83.7375 87.962C84.0775 87.962 84.3735 87.862 84.6255 87.662C84.8775 87.458 85.0735 87.202 85.2135 86.894C85.3535 86.582 85.4235 86.27 85.4235 85.958L85.9935 86.264C85.9935 86.632 85.9315 86.986 85.8075 87.326C85.6875 87.666 85.5135 87.972 85.2855 88.244C85.0575 88.512 84.7795 88.724 84.4515 88.88C84.1275 89.036 83.7635 89.114 83.3595 89.114ZM85.4235 89V82.628H86.7255V89H85.4235ZM90.8815 89.126C90.5015 89.126 90.1435 89.084 89.8075 89C89.4715 88.916 89.1755 88.794 88.9195 88.634C88.6675 88.47 88.4695 88.268 88.3255 88.028C88.1855 87.788 88.1155 87.51 88.1155 87.194C88.1155 87.166 88.1155 87.138 88.1155 87.11C88.1155 87.078 88.1155 87.052 88.1155 87.032H89.4115C89.4115 87.052 89.4115 87.07 89.4115 87.086C89.4115 87.102 89.4115 87.124 89.4115 87.152C89.4115 87.444 89.5455 87.666 89.8135 87.818C90.0855 87.966 90.4535 88.04 90.9175 88.04C91.1895 88.04 91.4375 88.012 91.6615 87.956C91.8895 87.9 92.0695 87.814 92.2015 87.698C92.3375 87.582 92.4055 87.434 92.4055 87.254C92.4055 86.962 92.2615 86.754 91.9735 86.63C91.6895 86.506 91.2575 86.396 90.6775 86.3C90.3615 86.244 90.0555 86.172 89.7595 86.084C89.4675 85.996 89.2035 85.88 88.9675 85.736C88.7355 85.588 88.5495 85.406 88.4095 85.19C88.2735 84.97 88.2055 84.706 88.2055 84.398C88.2055 83.998 88.3255 83.658 88.5655 83.378C88.8055 83.098 89.1295 82.886 89.5375 82.742C89.9455 82.598 90.3955 82.526 90.8875 82.526C91.3635 82.526 91.8035 82.604 92.2075 82.76C92.6155 82.912 92.9435 83.134 93.1915 83.426C93.4395 83.714 93.5635 84.068 93.5635 84.488C93.5635 84.504 93.5635 84.522 93.5635 84.542C93.5635 84.562 93.5635 84.58 93.5635 84.596H92.2735C92.2735 84.58 92.2735 84.566 92.2735 84.554C92.2735 84.542 92.2735 84.528 92.2735 84.512C92.2735 84.304 92.2075 84.134 92.0755 84.002C91.9435 83.87 91.7715 83.772 91.5595 83.708C91.3515 83.64 91.1295 83.606 90.8935 83.606C90.6775 83.606 90.4595 83.63 90.2395 83.678C90.0235 83.722 89.8435 83.8 89.6995 83.912C89.5555 84.02 89.4835 84.168 89.4835 84.356C89.4835 84.548 89.5535 84.702 89.6935 84.818C89.8335 84.93 90.0315 85.024 90.2875 85.1C90.5435 85.172 90.8415 85.238 91.1815 85.298C91.4935 85.354 91.7975 85.426 92.0935 85.514C92.3895 85.598 92.6555 85.71 92.8915 85.85C93.1315 85.99 93.3215 86.17 93.4615 86.39C93.6055 86.61 93.6775 86.88 93.6775 87.2C93.6775 87.532 93.6015 87.818 93.4495 88.058C93.2975 88.298 93.0895 88.498 92.8255 88.658C92.5655 88.814 92.2675 88.93 91.9315 89.006C91.5995 89.086 91.2495 89.126 90.8815 89.126ZM21.1602 103V94.15H22.4442V103H21.1602ZM28.0733 103V100.3C28.0733 100.056 28.0733 99.846 28.0733 99.67C28.0733 99.49 28.0733 99.338 28.0733 99.214C28.0733 99.058 28.0613 98.892 28.0373 98.716C28.0173 98.54 27.9693 98.376 27.8933 98.224C27.8213 98.068 27.7073 97.942 27.5513 97.846C27.3953 97.75 27.1813 97.702 26.9093 97.702C26.6373 97.702 26.4073 97.756 26.2193 97.864C26.0313 97.972 25.8793 98.116 25.7633 98.296C25.6473 98.472 25.5633 98.67 25.5113 98.89C25.4593 99.106 25.4333 99.324 25.4333 99.544L24.8813 99.244C24.8813 98.744 24.9793 98.29 25.1753 97.882C25.3753 97.47 25.6553 97.142 26.0153 96.898C26.3793 96.65 26.8073 96.526 27.2993 96.526C27.7993 96.526 28.1993 96.63 28.4993 96.838C28.8033 97.042 29.0233 97.322 29.1593 97.678C29.2953 98.03 29.3633 98.43 29.3633 98.878C29.3633 99.042 29.3633 99.256 29.3633 99.52C29.3633 99.784 29.3633 100.09 29.3633 100.438V103H28.0733ZM24.1313 103V96.628H25.4333V103H24.1313ZM31.9973 103V100.306C31.9973 100.042 31.9973 99.822 31.9973 99.646C31.9973 99.466 31.9973 99.316 31.9973 99.196C31.9973 99.032 31.9873 98.864 31.9673 98.692C31.9473 98.516 31.8993 98.354 31.8233 98.206C31.7473 98.058 31.6293 97.938 31.4693 97.846C31.3133 97.75 31.0953 97.702 30.8153 97.702C30.5393 97.702 30.3073 97.756 30.1193 97.864C29.9353 97.968 29.7873 98.108 29.6753 98.284C29.5633 98.456 29.4833 98.646 29.4353 98.854C29.3873 99.062 29.3633 99.268 29.3633 99.472L28.8113 99.184C28.8113 98.704 28.9073 98.262 29.0993 97.858C29.2953 97.454 29.5713 97.132 29.9273 96.892C30.2873 96.648 30.7133 96.526 31.2053 96.526C31.6853 96.526 32.0793 96.622 32.3873 96.814C32.6953 97.006 32.9233 97.272 33.0713 97.612C33.2193 97.952 33.2933 98.346 33.2933 98.794C33.2933 98.966 33.2933 99.182 33.2933 99.442C33.2933 99.702 33.2933 100.004 33.2933 100.348V103H31.9973ZM34.9477 105.622V96.628H36.2497V105.622H34.9477ZM38.3017 103.126C37.8057 103.126 37.3457 103.002 36.9217 102.754C36.4977 102.502 36.1537 102.158 35.8897 101.722C35.6297 101.286 35.4997 100.792 35.4997 100.24C35.4997 100.224 35.4997 100.212 35.4997 100.204C35.4997 100.192 35.4997 100.18 35.4997 100.168L36.2557 100.15C36.2557 100.158 36.2557 100.168 36.2557 100.18C36.2557 100.188 36.2557 100.198 36.2557 100.21C36.2557 100.538 36.3397 100.834 36.5077 101.098C36.6797 101.358 36.9017 101.564 37.1737 101.716C37.4457 101.868 37.7377 101.944 38.0497 101.944C38.5617 101.944 38.9917 101.77 39.3397 101.422C39.6917 101.07 39.8677 100.53 39.8677 99.802C39.8677 99.07 39.6937 98.532 39.3457 98.188C38.9977 97.84 38.5657 97.666 38.0497 97.666C37.7377 97.666 37.4457 97.742 37.1737 97.894C36.9017 98.042 36.6797 98.246 36.5077 98.506C36.3397 98.762 36.2557 99.056 36.2557 99.388L35.4997 99.358C35.4997 98.802 35.6297 98.312 35.8897 97.888C36.1537 97.46 36.4977 97.126 36.9217 96.886C37.3457 96.646 37.8057 96.526 38.3017 96.526C38.8177 96.526 39.2957 96.654 39.7357 96.91C40.1757 97.162 40.5297 97.532 40.7977 98.02C41.0697 98.508 41.2057 99.102 41.2057 99.802C41.2057 100.518 41.0737 101.124 40.8097 101.62C40.5457 102.116 40.1937 102.492 39.7537 102.748C39.3137 103 38.8297 103.126 38.3017 103.126ZM42.6469 103V96.628H43.9489V98.662L43.6009 98.506C43.6289 98.246 43.6949 97.998 43.7989 97.762C43.9029 97.526 44.0409 97.316 44.2129 97.132C44.3889 96.944 44.6049 96.796 44.8609 96.688C45.1169 96.58 45.4129 96.526 45.7489 96.526C46.0049 96.526 46.2109 96.546 46.3669 96.586C46.5269 96.626 46.6249 96.658 46.6609 96.682L46.3849 97.906C46.3449 97.878 46.2629 97.842 46.1389 97.798C46.0189 97.754 45.8509 97.732 45.6349 97.732C45.3069 97.732 45.0349 97.79 44.8189 97.906C44.6029 98.022 44.4309 98.176 44.3029 98.368C44.1749 98.56 44.0829 98.77 44.0269 98.998C43.9749 99.222 43.9489 99.448 43.9489 99.676V103H42.6469ZM50.6702 103.12C50.0142 103.12 49.4342 102.978 48.9302 102.694C48.4302 102.41 48.0382 102.02 47.7542 101.524C47.4742 101.024 47.3342 100.452 47.3342 99.808C47.3342 99.168 47.4742 98.602 47.7542 98.11C48.0382 97.614 48.4302 97.228 48.9302 96.952C49.4342 96.672 50.0142 96.532 50.6702 96.532C51.3262 96.532 51.9042 96.672 52.4042 96.952C52.9082 97.228 53.3002 97.614 53.5802 98.11C53.8642 98.602 54.0062 99.168 54.0062 99.808C54.0062 100.452 53.8642 101.024 53.5802 101.524C53.3002 102.02 52.9082 102.41 52.4042 102.694C51.9042 102.978 51.3262 103.12 50.6702 103.12ZM50.6702 102.004C51.0702 102.004 51.4222 101.914 51.7262 101.734C52.0302 101.554 52.2682 101.3 52.4402 100.972C52.6122 100.64 52.6982 100.252 52.6982 99.808C52.6982 99.368 52.6122 98.986 52.4402 98.662C52.2682 98.338 52.0302 98.088 51.7262 97.912C51.4222 97.736 51.0702 97.648 50.6702 97.648C50.2742 97.648 49.9222 97.736 49.6142 97.912C49.3102 98.088 49.0722 98.338 48.9002 98.662C48.7282 98.986 48.6422 99.368 48.6422 99.808C48.6422 100.252 48.7282 100.64 48.9002 100.972C49.0722 101.3 49.3102 101.554 49.6142 101.734C49.9222 101.914 50.2742 102.004 50.6702 102.004ZM60.5789 96.628L58.5149 103H56.7869L54.6689 96.628H56.0129L57.7529 102.454H57.5489L59.2349 96.628H60.5789ZM61.8589 100.27V99.256H66.5509L66.3709 99.556C66.3709 99.532 66.3709 99.508 66.3709 99.484C66.3709 99.456 66.3709 99.432 66.3709 99.412C66.3709 99.088 66.3009 98.79 66.1609 98.518C66.0209 98.242 65.8109 98.022 65.5309 97.858C65.2549 97.69 64.9089 97.606 64.4929 97.606C64.0769 97.606 63.7109 97.696 63.3949 97.876C63.0829 98.052 62.8389 98.304 62.6629 98.632C62.4909 98.956 62.4049 99.346 62.4049 99.802C62.4049 100.266 62.4889 100.666 62.6569 101.002C62.8249 101.334 63.0669 101.59 63.3829 101.77C63.6989 101.95 64.0769 102.04 64.5169 102.04C64.8249 102.04 65.0909 102.01 65.3149 101.95C65.5429 101.886 65.7289 101.802 65.8729 101.698C66.0209 101.594 66.1329 101.482 66.2089 101.362C66.2849 101.238 66.3289 101.116 66.3409 100.996H67.6369C67.6129 101.256 67.5269 101.514 67.3789 101.77C67.2349 102.022 67.0289 102.252 66.7609 102.46C66.4969 102.664 66.1729 102.828 65.7889 102.952C65.4089 103.072 64.9709 103.132 64.4749 103.132C63.8109 103.132 63.2289 102.992 62.7289 102.712C62.2289 102.432 61.8389 102.044 61.5589 101.548C61.2789 101.048 61.1389 100.476 61.1389 99.832C61.1389 99.176 61.2809 98.6 61.5649 98.104C61.8489 97.608 62.2429 97.222 62.7469 96.946C63.2509 96.666 63.8289 96.526 64.4809 96.526C65.1449 96.526 65.7189 96.666 66.2029 96.946C66.6909 97.226 67.0669 97.612 67.3309 98.104C67.5949 98.596 67.7269 99.162 67.7269 99.802C67.7269 99.878 67.7249 99.966 67.7209 100.066C67.7169 100.166 67.7109 100.234 67.7029 100.27H61.8589ZM73.1202 103V100.3C73.1202 100.056 73.1202 99.846 73.1202 99.67C73.1202 99.49 73.1202 99.338 73.1202 99.214C73.1202 99.058 73.1082 98.892 73.0842 98.716C73.0642 98.54 73.0162 98.376 72.9402 98.224C72.8682 98.068 72.7542 97.942 72.5982 97.846C72.4422 97.75 72.2282 97.702 71.9562 97.702C71.6842 97.702 71.4542 97.756 71.2662 97.864C71.0782 97.972 70.9262 98.116 70.8102 98.296C70.6942 98.472 70.6102 98.67 70.5582 98.89C70.5062 99.106 70.4802 99.324 70.4802 99.544L69.9282 99.244C69.9282 98.744 70.0262 98.29 70.2222 97.882C70.4222 97.47 70.7022 97.142 71.0622 96.898C71.4262 96.65 71.8542 96.526 72.3462 96.526C72.8462 96.526 73.2462 96.63 73.5462 96.838C73.8502 97.042 74.0702 97.322 74.2062 97.678C74.3422 98.03 74.4102 98.43 74.4102 98.878C74.4102 99.042 74.4102 99.256 74.4102 99.52C74.4102 99.784 74.4102 100.09 74.4102 100.438V103H73.1202ZM69.1782 103V96.628H70.4802V103H69.1782ZM77.0442 103V100.306C77.0442 100.042 77.0442 99.822 77.0442 99.646C77.0442 99.466 77.0442 99.316 77.0442 99.196C77.0442 99.032 77.0342 98.864 77.0142 98.692C76.9942 98.516 76.9462 98.354 76.8702 98.206C76.7942 98.058 76.6762 97.938 76.5162 97.846C76.3602 97.75 76.1422 97.702 75.8622 97.702C75.5862 97.702 75.3542 97.756 75.1662 97.864C74.9822 97.968 74.8342 98.108 74.7222 98.284C74.6102 98.456 74.5302 98.646 74.4822 98.854C74.4342 99.062 74.4102 99.268 74.4102 99.472L73.8582 99.184C73.8582 98.704 73.9542 98.262 74.1462 97.858C74.3422 97.454 74.6182 97.132 74.9742 96.892C75.3342 96.648 75.7602 96.526 76.2522 96.526C76.7322 96.526 77.1262 96.622 77.4342 96.814C77.7422 97.006 77.9702 97.272 78.1182 97.612C78.2662 97.952 78.3402 98.346 78.3402 98.794C78.3402 98.966 78.3402 99.182 78.3402 99.442C78.3402 99.702 78.3402 100.004 78.3402 100.348V103H77.0442ZM80.4566 100.27V99.256H85.1486L84.9686 99.556C84.9686 99.532 84.9686 99.508 84.9686 99.484C84.9686 99.456 84.9686 99.432 84.9686 99.412C84.9686 99.088 84.8986 98.79 84.7586 98.518C84.6186 98.242 84.4086 98.022 84.1286 97.858C83.8526 97.69 83.5066 97.606 83.0906 97.606C82.6746 97.606 82.3086 97.696 81.9926 97.876C81.6806 98.052 81.4366 98.304 81.2606 98.632C81.0886 98.956 81.0026 99.346 81.0026 99.802C81.0026 100.266 81.0866 100.666 81.2546 101.002C81.4226 101.334 81.6646 101.59 81.9806 101.77C82.2966 101.95 82.6746 102.04 83.1146 102.04C83.4226 102.04 83.6886 102.01 83.9126 101.95C84.1406 101.886 84.3266 101.802 84.4706 101.698C84.6186 101.594 84.7306 101.482 84.8066 101.362C84.8826 101.238 84.9266 101.116 84.9386 100.996H86.2346C86.2106 101.256 86.1246 101.514 85.9766 101.77C85.8326 102.022 85.6266 102.252 85.3586 102.46C85.0946 102.664 84.7706 102.828 84.3866 102.952C84.0066 103.072 83.5686 103.132 83.0726 103.132C82.4086 103.132 81.8266 102.992 81.3266 102.712C80.8266 102.432 80.4366 102.044 80.1566 101.548C79.8766 101.048 79.7366 100.476 79.7366 99.832C79.7366 99.176 79.8786 98.6 80.1626 98.104C80.4466 97.608 80.8406 97.222 81.3446 96.946C81.8486 96.666 82.4266 96.526 83.0786 96.526C83.7426 96.526 84.3166 96.666 84.8006 96.946C85.2886 97.226 85.6646 97.612 85.9286 98.104C86.1926 98.596 86.3246 99.162 86.3246 99.802C86.3246 99.878 86.3226 99.966 86.3186 100.066C86.3146 100.166 86.3086 100.234 86.3006 100.27H80.4566ZM92.3118 103V100.06C92.3118 99.888 92.3118 99.742 92.3118 99.622C92.3118 99.502 92.3118 99.39 92.3118 99.286C92.3118 98.974 92.2638 98.7 92.1678 98.464C92.0718 98.224 91.9138 98.038 91.6938 97.906C91.4738 97.77 91.1798 97.702 90.8118 97.702C90.4878 97.702 90.1938 97.782 89.9298 97.942C89.6698 98.102 89.4618 98.32 89.3058 98.596C89.1538 98.868 89.0778 99.178 89.0778 99.526L88.5198 99.25C88.5198 98.734 88.6418 98.272 88.8858 97.864C89.1298 97.452 89.4558 97.126 89.8638 96.886C90.2758 96.646 90.7258 96.526 91.2138 96.526C91.7178 96.526 92.1478 96.624 92.5038 96.82C92.8638 97.012 93.1378 97.288 93.3258 97.648C93.5178 98.004 93.6138 98.43 93.6138 98.926C93.6138 99.11 93.6138 99.314 93.6138 99.538C93.6138 99.762 93.6138 99.978 93.6138 100.186V103H92.3118ZM87.7758 103V96.628H89.0778V103H87.7758ZM97.8123 103.108C97.6003 103.108 97.3883 103.086 97.1763 103.042C96.9683 102.998 96.7763 102.918 96.6003 102.802C96.4283 102.682 96.2903 102.512 96.1863 102.292C96.0823 102.072 96.0303 101.784 96.0303 101.428C96.0303 101.344 96.0303 101.256 96.0303 101.164C96.0303 101.072 96.0303 100.978 96.0303 100.882V97.708H94.5003V96.628H95.3043C95.4763 96.628 95.6103 96.622 95.7063 96.61C95.8063 96.594 95.8783 96.56 95.9223 96.508C95.9703 96.452 96.0003 96.364 96.0123 96.244C96.0243 96.124 96.0303 95.96 96.0303 95.752V94.522H97.3323V96.628H99.2823V97.708H97.3323V100.534C97.3323 100.614 97.3323 100.694 97.3323 100.774C97.3323 100.854 97.3323 100.928 97.3323 100.996C97.3323 101.316 97.3703 101.568 97.4463 101.752C97.5263 101.936 97.7063 102.028 97.9863 102.028C98.1063 102.028 98.2203 102.018 98.3283 101.998C98.4363 101.978 98.5183 101.956 98.5743 101.932V102.994C98.5023 103.022 98.4003 103.048 98.2683 103.072C98.1363 103.096 97.9843 103.108 97.8123 103.108Z" style="fill: rgb(41, 54, 130);"/>
  <path d="M59.8967 55.4846C53.2887 55.4846 47.9118 50.1082 47.9118 43.4998H50.908C50.908 48.4572 54.9397 52.4884 59.8967 52.4884V55.4846Z" style="fill: rgb(41, 54, 130);"/>
  <path d="M71.8816 43.4998H68.8853C68.8853 38.5428 64.8541 34.5111 59.8967 34.5111V31.5149C66.5051 31.5149 71.8816 36.8918 71.8816 43.4998Z" style="fill: rgb(41, 54, 130);"/>
  <path d="M71.882 52.4884H59.8971V55.4846H71.882V52.4884Z" style="fill: rgb(41, 54, 130);"/>
  <path d="M59.8971 31.5149H47.9123V34.5111H59.8971V31.5149Z" style="fill: rgb(41, 54, 130);"/>
  <path d="M66.9486 61.0384L64.8301 58.92L69.7636 53.9865L64.8301 49.0535L66.9486 46.9351L74 53.9865L66.9486 61.0384Z" style="fill: rgb(41, 54, 130);"/>
  <path d="M52.8453 40.0649L45.7939 33.013L52.8453 25.9616L54.9637 28.08L50.0303 33.013L54.9637 37.9465L52.8453 40.0649Z" style="fill: rgb(41, 54, 130);"/>
  <path fill-rule="evenodd" clip-rule="evenodd" d="M37.3302 33.0581C35.8357 36.2257 35 39.7653 35 43.5C35 57.031 45.969 68 59.5 68C63.2347 68 66.7743 67.1643 69.9419 65.6698L68.0492 63.7771C65.4209 64.8866 62.5321 65.5 59.5 65.5C47.3497 65.5 37.5 55.6503 37.5 43.5C37.5 40.4679 38.1134 37.5791 39.2229 34.9508L37.3302 33.0581ZM80.3288 50.6009C81.0881 48.3732 81.5 45.9847 81.5 43.5C81.5 31.3497 71.6503 21.5 59.5 21.5C57.0153 21.5 54.6268 21.9119 52.3991 22.6712L50.4526 20.7247C53.2517 19.6118 56.3044 19 59.5 19C73.031 19 84 29.969 84 43.5C84 46.6956 83.3882 49.7483 82.2753 52.5474L80.3288 50.6009Z" style="fill: rgb(41, 54, 130);"/>
</svg>