<?xml version="1.0" encoding="utf-8"?>
<svg width="120" height="120" viewBox="0 0 120 120" fill="none" xmlns="http://www.w3.org/2000/svg">
  <rect x="2.5" y="2.5" width="115" height="115" rx="10.5" stroke-width="5" style="stroke: rgb(84, 212, 153); fill: rgb(41, 54, 130);"/>
  <path d="M20.8132 81.23L21.4012 80.546V84.434L21.0892 84.02H24.4432V85.1H21.0892L21.4012 84.686V88.604L20.8132 87.92H25.1092V89H20.0932V80.15H25.1092V81.23H20.8132ZM31.304 89V86.06C31.304 85.888 31.304 85.742 31.304 85.622C31.304 85.502 31.304 85.39 31.304 85.286C31.304 84.974 31.256 84.7 31.16 84.464C31.064 84.224 30.906 84.038 30.686 83.906C30.466 83.77 30.172 83.702 29.804 83.702C29.48 83.702 29.186 83.782 28.922 83.942C28.662 84.102 28.454 84.32 28.298 84.596C28.146 84.868 28.07 85.178 28.07 85.526L27.512 85.25C27.512 84.734 27.634 84.272 27.878 83.864C28.122 83.452 28.448 83.126 28.856 82.886C29.268 82.646 29.718 82.526 30.206 82.526C30.71 82.526 31.14 82.624 31.496 82.82C31.856 83.012 32.13 83.288 32.318 83.648C32.51 84.004 32.606 84.43 32.606 84.926C32.606 85.11 32.606 85.314 32.606 85.538C32.606 85.762 32.606 85.978 32.606 86.186V89H31.304ZM26.768 89V82.628H28.07V89H26.768ZM39.2039 82.628L37.1399 89H35.4119L33.2939 82.628H34.6379L36.3779 88.454H36.1739L37.8599 82.628H39.2039ZM40.368 89V82.628H41.652V89H40.368ZM41.016 81.308C40.792 81.308 40.598 81.248 40.434 81.128C40.274 81.004 40.194 80.834 40.194 80.618C40.194 80.406 40.274 80.24 40.434 80.12C40.598 79.996 40.792 79.934 41.016 79.934C41.236 79.934 41.426 79.996 41.586 80.12C41.75 80.24 41.832 80.406 41.832 80.618C41.832 80.834 41.75 81.004 41.586 81.128C41.426 81.248 41.236 81.308 41.016 81.308ZM43.3852 89V82.628H44.6872V84.662L44.3392 84.506C44.3672 84.246 44.4332 83.998 44.5372 83.762C44.6412 83.526 44.7792 83.316 44.9512 83.132C45.1272 82.944 45.3432 82.796 45.5992 82.688C45.8552 82.58 46.1512 82.526 46.4872 82.526C46.7432 82.526 46.9492 82.546 47.1052 82.586C47.2652 82.626 47.3632 82.658 47.3992 82.682L47.1232 83.906C47.0832 83.878 47.0012 83.842 46.8772 83.798C46.7572 83.754 46.5892 83.732 46.3732 83.732C46.0452 83.732 45.7732 83.79 45.5572 83.906C45.3412 84.022 45.1692 84.176 45.0412 84.368C44.9132 84.56 44.8212 84.77 44.7652 84.998C44.7132 85.222 44.6872 85.448 44.6872 85.676V89H43.3852ZM51.4085 89.12C50.7525 89.12 50.1725 88.978 49.6685 88.694C49.1685 88.41 48.7765 88.02 48.4925 87.524C48.2125 87.024 48.0725 86.452 48.0725 85.808C48.0725 85.168 48.2125 84.602 48.4925 84.11C48.7765 83.614 49.1685 83.228 49.6685 82.952C50.1725 82.672 50.7525 82.532 51.4085 82.532C52.0645 82.532 52.6425 82.672 53.1425 82.952C53.6465 83.228 54.0385 83.614 54.3185 84.11C54.6025 84.602 54.7445 85.168 54.7445 85.808C54.7445 86.452 54.6025 87.024 54.3185 87.524C54.0385 88.02 53.6465 88.41 53.1425 88.694C52.6425 88.978 52.0645 89.12 51.4085 89.12ZM51.4085 88.004C51.8085 88.004 52.1605 87.914 52.4645 87.734C52.7685 87.554 53.0065 87.3 53.1785 86.972C53.3505 86.64 53.4365 86.252 53.4365 85.808C53.4365 85.368 53.3505 84.986 53.1785 84.662C53.0065 84.338 52.7685 84.088 52.4645 83.912C52.1605 83.736 51.8085 83.648 51.4085 83.648C51.0125 83.648 50.6605 83.736 50.3525 83.912C50.0485 84.088 49.8105 84.338 49.6385 84.662C49.4665 84.986 49.3805 85.368 49.3805 85.808C49.3805 86.252 49.4665 86.64 49.6385 86.972C49.8105 87.3 50.0485 87.554 50.3525 87.734C50.6605 87.914 51.0125 88.004 51.4085 88.004ZM60.7298 89V86.06C60.7298 85.888 60.7298 85.742 60.7298 85.622C60.7298 85.502 60.7298 85.39 60.7298 85.286C60.7298 84.974 60.6818 84.7 60.5858 84.464C60.4898 84.224 60.3318 84.038 60.1118 83.906C59.8918 83.77 59.5978 83.702 59.2298 83.702C58.9058 83.702 58.6118 83.782 58.3478 83.942C58.0878 84.102 57.8798 84.32 57.7238 84.596C57.5718 84.868 57.4958 85.178 57.4958 85.526L56.9378 85.25C56.9378 84.734 57.0598 84.272 57.3038 83.864C57.5478 83.452 57.8738 83.126 58.2818 82.886C58.6938 82.646 59.1438 82.526 59.6318 82.526C60.1358 82.526 60.5658 82.624 60.9218 82.82C61.2818 83.012 61.5558 83.288 61.7438 83.648C61.9358 84.004 62.0318 84.43 62.0318 84.926C62.0318 85.11 62.0318 85.314 62.0318 85.538C62.0318 85.762 62.0318 85.978 62.0318 86.186V89H60.7298ZM56.1938 89V82.628H57.4958V89H56.1938ZM67.6124 89V86.3C67.6124 86.056 67.6124 85.846 67.6124 85.67C67.6124 85.49 67.6124 85.338 67.6124 85.214C67.6124 85.058 67.6004 84.892 67.5764 84.716C67.5564 84.54 67.5084 84.376 67.4324 84.224C67.3604 84.068 67.2464 83.942 67.0904 83.846C66.9344 83.75 66.7204 83.702 66.4484 83.702C66.1764 83.702 65.9464 83.756 65.7584 83.864C65.5704 83.972 65.4184 84.116 65.3024 84.296C65.1864 84.472 65.1024 84.67 65.0504 84.89C64.9984 85.106 64.9724 85.324 64.9724 85.544L64.4204 85.244C64.4204 84.744 64.5184 84.29 64.7144 83.882C64.9144 83.47 65.1944 83.142 65.5544 82.898C65.9184 82.65 66.3464 82.526 66.8384 82.526C67.3384 82.526 67.7384 82.63 68.0384 82.838C68.3424 83.042 68.5624 83.322 68.6984 83.678C68.8344 84.03 68.9024 84.43 68.9024 84.878C68.9024 85.042 68.9024 85.256 68.9024 85.52C68.9024 85.784 68.9024 86.09 68.9024 86.438V89H67.6124ZM63.6704 89V82.628H64.9724V89H63.6704ZM71.5364 89V86.306C71.5364 86.042 71.5364 85.822 71.5364 85.646C71.5364 85.466 71.5364 85.316 71.5364 85.196C71.5364 85.032 71.5264 84.864 71.5064 84.692C71.4864 84.516 71.4384 84.354 71.3624 84.206C71.2864 84.058 71.1684 83.938 71.0084 83.846C70.8524 83.75 70.6344 83.702 70.3544 83.702C70.0784 83.702 69.8464 83.756 69.6584 83.864C69.4744 83.968 69.3264 84.108 69.2144 84.284C69.1024 84.456 69.0224 84.646 68.9744 84.854C68.9264 85.062 68.9024 85.268 68.9024 85.472L68.3504 85.184C68.3504 84.704 68.4464 84.262 68.6384 83.858C68.8344 83.454 69.1104 83.132 69.4664 82.892C69.8264 82.648 70.2524 82.526 70.7444 82.526C71.2244 82.526 71.6184 82.622 71.9264 82.814C72.2344 83.006 72.4624 83.272 72.6104 83.612C72.7584 83.952 72.8324 84.346 72.8324 84.794C72.8324 84.966 72.8324 85.182 72.8324 85.442C72.8324 85.702 72.8324 86.004 72.8324 86.348V89H71.5364ZM74.9488 86.27V85.256H79.6408L79.4608 85.556C79.4608 85.532 79.4608 85.508 79.4608 85.484C79.4608 85.456 79.4608 85.432 79.4608 85.412C79.4608 85.088 79.3908 84.79 79.2508 84.518C79.1108 84.242 78.9008 84.022 78.6208 83.858C78.3448 83.69 77.9988 83.606 77.5828 83.606C77.1668 83.606 76.8008 83.696 76.4848 83.876C76.1728 84.052 75.9288 84.304 75.7528 84.632C75.5808 84.956 75.4948 85.346 75.4948 85.802C75.4948 86.266 75.5788 86.666 75.7468 87.002C75.9148 87.334 76.1568 87.59 76.4728 87.77C76.7888 87.95 77.1668 88.04 77.6068 88.04C77.9148 88.04 78.1808 88.01 78.4048 87.95C78.6328 87.886 78.8188 87.802 78.9628 87.698C79.1108 87.594 79.2228 87.482 79.2988 87.362C79.3748 87.238 79.4188 87.116 79.4308 86.996H80.7268C80.7028 87.256 80.6168 87.514 80.4688 87.77C80.3248 88.022 80.1188 88.252 79.8508 88.46C79.5868 88.664 79.2628 88.828 78.8788 88.952C78.4988 89.072 78.0608 89.132 77.5648 89.132C76.9008 89.132 76.3188 88.992 75.8188 88.712C75.3188 88.432 74.9288 88.044 74.6488 87.548C74.3688 87.048 74.2288 86.476 74.2288 85.832C74.2288 85.176 74.3708 84.6 74.6548 84.104C74.9388 83.608 75.3328 83.222 75.8368 82.946C76.3408 82.666 76.9188 82.526 77.5708 82.526C78.2348 82.526 78.8088 82.666 79.2928 82.946C79.7808 83.226 80.1568 83.612 80.4208 84.104C80.6848 84.596 80.8168 85.162 80.8168 85.802C80.8168 85.878 80.8148 85.966 80.8108 86.066C80.8068 86.166 80.8008 86.234 80.7928 86.27H74.9488ZM86.804 89V86.06C86.804 85.888 86.804 85.742 86.804 85.622C86.804 85.502 86.804 85.39 86.804 85.286C86.804 84.974 86.756 84.7 86.66 84.464C86.564 84.224 86.406 84.038 86.186 83.906C85.966 83.77 85.672 83.702 85.304 83.702C84.98 83.702 84.686 83.782 84.422 83.942C84.162 84.102 83.954 84.32 83.798 84.596C83.646 84.868 83.57 85.178 83.57 85.526L83.012 85.25C83.012 84.734 83.134 84.272 83.378 83.864C83.622 83.452 83.948 83.126 84.356 82.886C84.768 82.646 85.218 82.526 85.706 82.526C86.21 82.526 86.64 82.624 86.996 82.82C87.356 83.012 87.63 83.288 87.818 83.648C88.01 84.004 88.106 84.43 88.106 84.926C88.106 85.11 88.106 85.314 88.106 85.538C88.106 85.762 88.106 85.978 88.106 86.186V89H86.804ZM82.268 89V82.628H83.57V89H82.268ZM92.3045 89.108C92.0925 89.108 91.8805 89.086 91.6685 89.042C91.4605 88.998 91.2685 88.918 91.0925 88.802C90.9205 88.682 90.7825 88.512 90.6785 88.292C90.5745 88.072 90.5225 87.784 90.5225 87.428C90.5225 87.344 90.5225 87.256 90.5225 87.164C90.5225 87.072 90.5225 86.978 90.5225 86.882V83.708H88.9925V82.628H89.7965C89.9685 82.628 90.1025 82.622 90.1985 82.61C90.2985 82.594 90.3705 82.56 90.4145 82.508C90.4625 82.452 90.4925 82.364 90.5045 82.244C90.5165 82.124 90.5225 81.96 90.5225 81.752V80.522H91.8245V82.628H93.7745V83.708H91.8245V86.534C91.8245 86.614 91.8245 86.694 91.8245 86.774C91.8245 86.854 91.8245 86.928 91.8245 86.996C91.8245 87.316 91.8625 87.568 91.9385 87.752C92.0185 87.936 92.1985 88.028 92.4785 88.028C92.5985 88.028 92.7125 88.018 92.8205 87.998C92.9285 87.978 93.0105 87.956 93.0665 87.932V88.994C92.9945 89.022 92.8925 89.048 92.7605 89.072C92.6285 89.096 92.4765 89.108 92.3045 89.108ZM97.3385 89.126C96.9585 89.126 96.6005 89.084 96.2645 89C95.9285 88.916 95.6325 88.794 95.3765 88.634C95.1245 88.47 94.9265 88.268 94.7825 88.028C94.6425 87.788 94.5725 87.51 94.5725 87.194C94.5725 87.166 94.5725 87.138 94.5725 87.11C94.5725 87.078 94.5725 87.052 94.5725 87.032H95.8685C95.8685 87.052 95.8685 87.07 95.8685 87.086C95.8685 87.102 95.8685 87.124 95.8685 87.152C95.8685 87.444 96.0025 87.666 96.2705 87.818C96.5425 87.966 96.9105 88.04 97.3745 88.04C97.6465 88.04 97.8945 88.012 98.1185 87.956C98.3465 87.9 98.5265 87.814 98.6585 87.698C98.7945 87.582 98.8625 87.434 98.8625 87.254C98.8625 86.962 98.7185 86.754 98.4305 86.63C98.1465 86.506 97.7145 86.396 97.1345 86.3C96.8185 86.244 96.5125 86.172 96.2165 86.084C95.9245 85.996 95.6605 85.88 95.4245 85.736C95.1925 85.588 95.0065 85.406 94.8665 85.19C94.7305 84.97 94.6625 84.706 94.6625 84.398C94.6625 83.998 94.7825 83.658 95.0225 83.378C95.2625 83.098 95.5865 82.886 95.9945 82.742C96.4025 82.598 96.8525 82.526 97.3445 82.526C97.8205 82.526 98.2605 82.604 98.6645 82.76C99.0725 82.912 99.4005 83.134 99.6485 83.426C99.8965 83.714 100.021 84.068 100.021 84.488C100.021 84.504 100.021 84.522 100.021 84.542C100.021 84.562 100.021 84.58 100.021 84.596H98.7305C98.7305 84.58 98.7305 84.566 98.7305 84.554C98.7305 84.542 98.7305 84.528 98.7305 84.512C98.7305 84.304 98.6645 84.134 98.5325 84.002C98.4005 83.87 98.2285 83.772 98.0165 83.708C97.8085 83.64 97.5865 83.606 97.3505 83.606C97.1345 83.606 96.9165 83.63 96.6965 83.678C96.4805 83.722 96.3005 83.8 96.1565 83.912C96.0125 84.02 95.9405 84.168 95.9405 84.356C95.9405 84.548 96.0105 84.702 96.1505 84.818C96.2905 84.93 96.4885 85.024 96.7445 85.1C97.0005 85.172 97.2985 85.238 97.6385 85.298C97.9505 85.354 98.2545 85.426 98.5505 85.514C98.8465 85.598 99.1125 85.71 99.3485 85.85C99.5885 85.99 99.7785 86.17 99.9185 86.39C100.063 86.61 100.135 86.88 100.135 87.2C100.135 87.532 100.059 87.818 99.9065 88.058C99.7545 88.298 99.5465 88.498 99.2825 88.658C99.0225 88.814 98.7245 88.93 98.3885 89.006C98.0565 89.086 97.7065 89.126 97.3385 89.126ZM43.9458 103.12C43.3658 103.12 42.8458 103.03 42.3858 102.85C41.9298 102.67 41.5678 102.408 41.2998 102.064C41.0358 101.716 40.9038 101.298 40.9038 100.81C40.9038 100.386 41.0138 100.01 41.2338 99.682C41.4538 99.35 41.7678 99.036 42.1758 98.74C42.5878 98.44 43.0778 98.132 43.6458 97.816C44.1818 97.516 44.5778 97.212 44.8338 96.904C45.0898 96.596 45.2178 96.268 45.2178 95.92C45.2178 95.696 45.1678 95.512 45.0678 95.368C44.9718 95.22 44.8438 95.11 44.6838 95.038C44.5278 94.966 44.3578 94.93 44.1738 94.93C43.9978 94.93 43.8238 94.966 43.6518 95.038C43.4838 95.106 43.3458 95.214 43.2378 95.362C43.1338 95.506 43.0818 95.69 43.0818 95.914C43.0818 96.206 43.1698 96.504 43.3458 96.808C43.5258 97.112 43.7678 97.458 44.0718 97.846L47.1798 101.716C47.3278 101.9 47.4598 102.018 47.5758 102.07C47.6918 102.122 47.7898 102.148 47.8698 102.148C47.9458 102.148 48.0198 102.14 48.0918 102.124C48.1678 102.108 48.2198 102.092 48.2478 102.076V102.994C48.2318 103.002 48.1738 103.018 48.0738 103.042C47.9738 103.07 47.8458 103.084 47.6898 103.084C47.5098 103.084 47.3178 103.04 47.1138 102.952C46.9138 102.86 46.7258 102.708 46.5498 102.496L43.2498 98.422C43.0498 98.17 42.8518 97.908 42.6558 97.636C42.4638 97.364 42.3038 97.08 42.1758 96.784C42.0518 96.488 41.9898 96.178 41.9898 95.854C41.9898 95.506 42.0858 95.198 42.2778 94.93C42.4738 94.658 42.7358 94.446 43.0638 94.294C43.3918 94.142 43.7578 94.066 44.1618 94.066C44.5738 94.066 44.9358 94.142 45.2478 94.294C45.5638 94.442 45.8118 94.65 45.9918 94.918C46.1718 95.186 46.2618 95.498 46.2618 95.854C46.2618 96.238 46.1778 96.588 46.0098 96.904C45.8418 97.216 45.6018 97.508 45.2898 97.78C44.9818 98.048 44.6098 98.306 44.1738 98.554C43.5138 98.934 43.0038 99.286 42.6438 99.61C42.2838 99.934 42.1038 100.314 42.1038 100.75C42.1038 101.03 42.1858 101.278 42.3498 101.494C42.5178 101.71 42.7418 101.88 43.0218 102.004C43.3018 102.124 43.6118 102.184 43.9518 102.184C44.5118 102.184 44.9758 102.104 45.3438 101.944C45.7158 101.784 46.0278 101.572 46.2798 101.308C46.5598 101.008 46.7698 100.662 46.9098 100.27C47.0498 99.874 47.1198 99.43 47.1198 98.938H48.1938C48.1938 99.398 48.1418 99.816 48.0378 100.192C47.9338 100.568 47.7938 100.908 47.6178 101.212C47.4418 101.512 47.2378 101.778 47.0058 102.01C46.6858 102.334 46.2718 102.6 45.7638 102.808C45.2598 103.016 44.6538 103.12 43.9458 103.12ZM52.8471 103V94.15H55.2771C55.8651 94.15 56.3971 94.254 56.8731 94.462C57.3491 94.67 57.7551 94.966 58.0911 95.35C58.4311 95.734 58.6931 96.198 58.8771 96.742C59.0611 97.286 59.1531 97.894 59.1531 98.566C59.1531 99.242 59.0611 99.852 58.8771 100.396C58.6931 100.94 58.4311 101.406 58.0911 101.794C57.7551 102.182 57.3491 102.48 56.8731 102.688C56.3971 102.896 55.8651 103 55.2771 103H52.8471ZM54.1551 102.604L53.5671 101.92H55.1211C55.6411 101.92 56.1051 101.784 56.5131 101.512C56.9251 101.24 57.2471 100.854 57.4791 100.354C57.7111 99.85 57.8271 99.254 57.8271 98.566C57.8271 97.874 57.7111 97.28 57.4791 96.784C57.2471 96.284 56.9251 95.9 56.5131 95.632C56.1051 95.364 55.6411 95.23 55.1211 95.23H53.5671L54.1551 94.546V102.604ZM62.7846 103.126C62.3046 103.126 61.8826 103.05 61.5186 102.898C61.1586 102.746 60.8786 102.528 60.6786 102.244C60.4786 101.96 60.3786 101.618 60.3786 101.218C60.3786 100.79 60.4906 100.436 60.7146 100.156C60.9426 99.876 61.2546 99.66 61.6506 99.508C62.0506 99.352 62.5046 99.25 63.0126 99.202C63.7686 99.126 64.3006 99.052 64.6086 98.98C64.9206 98.908 65.0766 98.79 65.0766 98.626C65.0766 98.622 65.0766 98.618 65.0766 98.614C65.0766 98.29 64.9386 98.044 64.6626 97.876C64.3866 97.708 63.9926 97.624 63.4806 97.624C62.9406 97.624 62.5226 97.72 62.2266 97.912C61.9346 98.1 61.7886 98.4 61.7886 98.812H60.5106C60.5106 98.324 60.6366 97.91 60.8886 97.57C61.1446 97.23 61.4966 96.972 61.9446 96.796C62.3926 96.616 62.9066 96.526 63.4866 96.526C64.0186 96.526 64.5026 96.608 64.9386 96.772C65.3786 96.932 65.7286 97.172 65.9886 97.492C66.2486 97.812 66.3786 98.21 66.3786 98.686C66.3786 98.77 66.3786 98.854 66.3786 98.938C66.3786 99.018 66.3786 99.1 66.3786 99.184V101.728C66.3786 101.876 66.3846 102.02 66.3966 102.16C66.4086 102.296 66.4306 102.418 66.4626 102.526C66.4986 102.65 66.5406 102.752 66.5886 102.832C66.6406 102.912 66.6826 102.968 66.7146 103H65.4186C65.3946 102.976 65.3586 102.926 65.3106 102.85C65.2666 102.77 65.2266 102.678 65.1906 102.574C65.1546 102.474 65.1266 102.36 65.1066 102.232C65.0906 102.1 65.0826 101.958 65.0826 101.806L65.3226 101.974C65.2026 102.206 65.0206 102.408 64.7766 102.58C64.5366 102.752 64.2466 102.886 63.9066 102.982C63.5706 103.078 63.1966 103.126 62.7846 103.126ZM63.0546 102.046C63.4266 102.046 63.7646 101.988 64.0686 101.872C64.3766 101.752 64.6226 101.572 64.8066 101.332C64.9906 101.088 65.0826 100.782 65.0826 100.414V99.358L65.3886 99.76C65.1326 99.86 64.8186 99.942 64.4466 100.006C64.0786 100.066 63.6986 100.116 63.3066 100.156C62.7666 100.204 62.3606 100.298 62.0886 100.438C61.8166 100.574 61.6806 100.802 61.6806 101.122C61.6806 101.43 61.7926 101.662 62.0166 101.818C62.2446 101.97 62.5906 102.046 63.0546 102.046ZM70.5194 103.108C70.3074 103.108 70.0954 103.086 69.8834 103.042C69.6754 102.998 69.4834 102.918 69.3074 102.802C69.1354 102.682 68.9974 102.512 68.8934 102.292C68.7894 102.072 68.7374 101.784 68.7374 101.428C68.7374 101.344 68.7374 101.256 68.7374 101.164C68.7374 101.072 68.7374 100.978 68.7374 100.882V97.708H67.2074V96.628H68.0114C68.1834 96.628 68.3174 96.622 68.4134 96.61C68.5134 96.594 68.5854 96.56 68.6294 96.508C68.6774 96.452 68.7074 96.364 68.7194 96.244C68.7314 96.124 68.7374 95.96 68.7374 95.752V94.522H70.0394V96.628H71.9894V97.708H70.0394V100.534C70.0394 100.614 70.0394 100.694 70.0394 100.774C70.0394 100.854 70.0394 100.928 70.0394 100.996C70.0394 101.316 70.0774 101.568 70.1534 101.752C70.2334 101.936 70.4134 102.028 70.6934 102.028C70.8134 102.028 70.9274 102.018 71.0354 101.998C71.1434 101.978 71.2254 101.956 71.2814 101.932V102.994C71.2094 103.022 71.1074 103.048 70.9754 103.072C70.8434 103.096 70.6914 103.108 70.5194 103.108ZM75.2534 103.126C74.7734 103.126 74.3514 103.05 73.9874 102.898C73.6274 102.746 73.3474 102.528 73.1474 102.244C72.9474 101.96 72.8474 101.618 72.8474 101.218C72.8474 100.79 72.9594 100.436 73.1834 100.156C73.4114 99.876 73.7234 99.66 74.1194 99.508C74.5194 99.352 74.9734 99.25 75.4814 99.202C76.2374 99.126 76.7694 99.052 77.0774 98.98C77.3894 98.908 77.5454 98.79 77.5454 98.626C77.5454 98.622 77.5454 98.618 77.5454 98.614C77.5454 98.29 77.4074 98.044 77.1314 97.876C76.8554 97.708 76.4614 97.624 75.9494 97.624C75.4094 97.624 74.9914 97.72 74.6954 97.912C74.4034 98.1 74.2574 98.4 74.2574 98.812H72.9794C72.9794 98.324 73.1054 97.91 73.3574 97.57C73.6134 97.23 73.9654 96.972 74.4134 96.796C74.8614 96.616 75.3754 96.526 75.9554 96.526C76.4874 96.526 76.9714 96.608 77.4074 96.772C77.8474 96.932 78.1974 97.172 78.4574 97.492C78.7174 97.812 78.8474 98.21 78.8474 98.686C78.8474 98.77 78.8474 98.854 78.8474 98.938C78.8474 99.018 78.8474 99.1 78.8474 99.184V101.728C78.8474 101.876 78.8534 102.02 78.8654 102.16C78.8774 102.296 78.8994 102.418 78.9314 102.526C78.9674 102.65 79.0094 102.752 79.0574 102.832C79.1094 102.912 79.1514 102.968 79.1834 103H77.8874C77.8634 102.976 77.8274 102.926 77.7794 102.85C77.7354 102.77 77.6954 102.678 77.6594 102.574C77.6234 102.474 77.5954 102.36 77.5754 102.232C77.5594 102.1 77.5514 101.958 77.5514 101.806L77.7914 101.974C77.6714 102.206 77.4894 102.408 77.2454 102.58C77.0054 102.752 76.7154 102.886 76.3754 102.982C76.0394 103.078 75.6654 103.126 75.2534 103.126ZM75.5234 102.046C75.8954 102.046 76.2334 101.988 76.5374 101.872C76.8454 101.752 77.0914 101.572 77.2754 101.332C77.4594 101.088 77.5514 100.782 77.5514 100.414V99.358L77.8574 99.76C77.6014 99.86 77.2874 99.942 76.9154 100.006C76.5474 100.066 76.1674 100.116 75.7754 100.156C75.2354 100.204 74.8294 100.298 74.5574 100.438C74.2854 100.574 74.1494 100.802 74.1494 101.122C74.1494 101.43 74.2614 101.662 74.4854 101.818C74.7134 101.97 75.0594 102.046 75.5234 102.046Z" style="fill: rgb(255, 255, 255);"/>
  <path fill-rule="evenodd" clip-rule="evenodd" d="M50.8162 20.4487C55.0882 19.0247 58.2209 19.5255 60.4757 20.6995C62.6293 21.8207 64.0831 23.61 64.9583 25.1759C64.6808 25.4106 64.4588 25.6269 64.2929 25.7928C63.9024 26.1834 63.9024 26.8165 64.2929 27.207C64.6834 27.5975 65.3166 27.5975 65.7071 27.207C66.1779 26.7362 66.9967 25.9805 68.1777 25.6062C69.3154 25.2457 70.9064 25.2029 73.0144 26.374C77.0214 28.6001 76.9269 32.0568 76.5513 33.1836L76.1126 34.4998H77.5C78.6491 34.4998 80.0664 34.7323 81.1617 35.4093C82.1914 36.0457 83 37.1053 83 38.9998C83 41.0149 82.3415 42.2098 81.4853 42.9224C80.5968 43.6619 79.3527 43.9998 78 43.9998H76C75.4477 43.9998 75 44.4476 75 44.9998C75 45.5521 75.4477 45.9998 76 45.9998H78C79.6473 45.9998 81.4032 45.5927 82.7647 44.4596C84.1585 43.2996 85 41.4946 85 38.9998C85 36.3845 83.8086 34.6941 82.2133 33.708C81.0992 33.0194 79.8244 32.6929 78.692 32.5664C78.8793 30.3599 78.0771 26.8987 73.9856 24.6257C71.4285 23.205 69.2695 23.1623 67.5735 23.6997C67.2371 23.8063 66.9236 23.9343 66.6333 24.075C65.6167 22.299 63.9316 20.2439 61.3993 18.9255C58.6124 17.4745 54.9118 16.9753 50.1838 18.5514C41.7468 21.3637 40.0829 28.5258 40.8806 32.6132C40.0426 32.7708 39.0393 33.1099 38.1228 33.737C36.6834 34.7219 35.5 36.3956 35.5 38.9998C35.5 43.6083 39.0057 45.9998 42 45.9998H51V49H44V54.5C44 55.0523 44.4477 55.5 45 55.5C45.5523 55.5 46 55.0523 46 54.5V51H52C52.5523 51 53 50.5523 53 50V45.9998H59V54L61 54V45.9998H67V50C67 50.5523 67.4477 51 68 51H74V54.5C74 55.0523 74.4477 55.5 75 55.5C75.5523 55.5 76 55.0523 76 54.5V49H69V45.9998H72.5C73.0523 45.9998 73.5 45.5521 73.5 44.9998C73.5 44.4476 73.0523 43.9998 72.5 43.9998H69V35.8293C70.1652 35.4175 71 34.3062 71 33C71 31.3431 69.6569 30 68 30C66.3431 30 65 31.3431 65 33C65 34.3062 65.8348 35.4175 67 35.8293V43.9998H61V39.8293C62.1652 39.4175 63 38.3062 63 37C63 35.3431 61.6569 34 60 34C58.3431 34 57 35.3431 57 37C57 38.3062 57.8348 39.4175 59 39.8293V43.9998H53V30.8293C54.1652 30.4175 55 29.3062 55 28C55 26.3431 53.6569 25 52 25C50.3431 25 49 26.3431 49 28C49 29.3062 49.8348 30.4175 51 30.8293L51 43.9998H42C39.9943 43.9998 37.5 42.3913 37.5 38.9998C37.5 37.104 38.3166 36.0278 39.2522 35.3876C40.2436 34.7093 41.4122 34.4998 42 34.4998C42.7293 34.4998 43.2195 34.8358 43.7298 35.1855C43.801 35.2343 43.8726 35.2834 43.9453 35.3319C44.4048 35.6382 45.0257 35.514 45.3321 35.0545C45.6384 34.595 45.5142 33.9741 45.0547 33.6678C45.0108 33.6385 44.9591 33.6019 44.8997 33.56C44.5258 33.2958 43.8496 32.8179 42.9289 32.606C42.11 29.4835 43.183 22.9932 50.8162 20.4487ZM69 33C69 33.5523 68.5523 34 68 34C67.4477 34 67 33.5523 67 33C67 32.4477 67.4477 32 68 32C68.5523 32 69 32.4477 69 33ZM53 28C53 28.5523 52.5523 29 52 29C51.4477 29 51 28.5523 51 28C51 27.4477 51.4477 27 52 27C52.5523 27 53 27.4477 53 28ZM61 37C61 37.5523 60.5523 38 60 38C59.4477 38 59 37.5523 59 37C59 36.4477 59.4477 36 60 36C60.5523 36 61 36.4477 61 37Z" style="fill: rgb(255, 255, 255);"/>
  <path fill-rule="evenodd" clip-rule="evenodd" d="M41 54C39.8954 54 39 54.8954 39 56V66C39 67.1046 39.8954 68 41 68H49C50.1046 68 51 67.1046 51 66V56C51 54.8954 50.1046 54 49 54H41ZM49 56H41V58H49V56ZM41 62V60H49V62H41ZM41 64L41 66H49V64H41Z" style="fill: rgb(255, 255, 255);"/>
  <path fill-rule="evenodd" clip-rule="evenodd" d="M56 54C54.8954 54 54 54.8954 54 56V66C54 67.1046 54.8954 68 56 68H64C65.1046 68 66 67.1046 66 66V56C66 54.8954 65.1046 54 64 54H56ZM64 56H56V58H64V56ZM64 60H56V62H64V60ZM56 66V64H64V66H56Z" style="fill: rgb(255, 255, 255);"/>
  <path fill-rule="evenodd" clip-rule="evenodd" d="M69 56C69 54.8954 69.8954 54 71 54H79C80.1046 54 81 54.8954 81 56V66C81 67.1046 80.1046 68 79 68H71C69.8954 68 69 67.1046 69 66V56ZM71 56H79V58H71V56ZM71 60H79V62H71V60ZM71 64V66H79V64H71Z" style="fill: rgb(255, 255, 255);"/>
</svg>