<?xml version="1.0" encoding="utf-8"?>
<svg width="120" height="120" viewBox="0 0 120 120" fill="none" xmlns="http://www.w3.org/2000/svg">
  <rect x="2.5" y="2.5" width="115" height="115" rx="10.5" stroke-width="5" style="fill: rgb(41, 54, 130); stroke: rgb(84, 212, 153);"/>
  <path d="M38.3918 79.15H40.6178V88H39.3818V80.062L39.4178 80.074L37.3358 88H35.5478L33.4478 80.068L33.4838 80.05V88H32.2418V79.15H34.4678L36.4538 87.16H36.3938L38.3918 79.15ZM42.8394 85.27V84.256H47.5314L47.3514 84.556C47.3514 84.532 47.3514 84.508 47.3514 84.484C47.3514 84.456 47.3514 84.432 47.3514 84.412C47.3514 84.088 47.2814 83.79 47.1414 83.518C47.0014 83.242 46.7914 83.022 46.5114 82.858C46.2354 82.69 45.8894 82.606 45.4734 82.606C45.0574 82.606 44.6914 82.696 44.3754 82.876C44.0634 83.052 43.8194 83.304 43.6434 83.632C43.4714 83.956 43.3854 84.346 43.3854 84.802C43.3854 85.266 43.4694 85.666 43.6374 86.002C43.8054 86.334 44.0474 86.59 44.3634 86.77C44.6794 86.95 45.0574 87.04 45.4974 87.04C45.8054 87.04 46.0714 87.01 46.2954 86.95C46.5234 86.886 46.7094 86.802 46.8534 86.698C47.0014 86.594 47.1134 86.482 47.1894 86.362C47.2654 86.238 47.3094 86.116 47.3214 85.996H48.6174C48.5934 86.256 48.5074 86.514 48.3594 86.77C48.2154 87.022 48.0094 87.252 47.7414 87.46C47.4774 87.664 47.1534 87.828 46.7694 87.952C46.3894 88.072 45.9514 88.132 45.4554 88.132C44.7914 88.132 44.2094 87.992 43.7094 87.712C43.2094 87.432 42.8194 87.044 42.5394 86.548C42.2594 86.048 42.1194 85.476 42.1194 84.832C42.1194 84.176 42.2614 83.6 42.5454 83.104C42.8294 82.608 43.2234 82.222 43.7274 81.946C44.2314 81.666 44.8094 81.526 45.4614 81.526C46.1254 81.526 46.6994 81.666 47.1834 81.946C47.6714 82.226 48.0474 82.612 48.3114 83.104C48.5754 83.596 48.7074 84.162 48.7074 84.802C48.7074 84.878 48.7054 84.966 48.7014 85.066C48.6974 85.166 48.6914 85.234 48.6834 85.27H42.8394ZM52.7772 88.108C52.5652 88.108 52.3532 88.086 52.1412 88.042C51.9332 87.998 51.7412 87.918 51.5652 87.802C51.3932 87.682 51.2552 87.512 51.1512 87.292C51.0472 87.072 50.9952 86.784 50.9952 86.428C50.9952 86.344 50.9952 86.256 50.9952 86.164C50.9952 86.072 50.9952 85.978 50.9952 85.882V82.708H49.4652V81.628H50.2692C50.4412 81.628 50.5752 81.622 50.6712 81.61C50.7712 81.594 50.8432 81.56 50.8872 81.508C50.9352 81.452 50.9652 81.364 50.9772 81.244C50.9892 81.124 50.9952 80.96 50.9952 80.752V79.522H52.2972V81.628H54.2472V82.708H52.2972V85.534C52.2972 85.614 52.2972 85.694 52.2972 85.774C52.2972 85.854 52.2972 85.928 52.2972 85.996C52.2972 86.316 52.3352 86.568 52.4112 86.752C52.4912 86.936 52.6712 87.028 52.9512 87.028C53.0712 87.028 53.1852 87.018 53.2932 86.998C53.4012 86.978 53.4832 86.956 53.5392 86.932V87.994C53.4672 88.022 53.3652 88.048 53.2332 88.072C53.1012 88.096 52.9492 88.108 52.7772 88.108ZM55.4907 88V81.628H56.7927V83.662L56.4447 83.506C56.4727 83.246 56.5387 82.998 56.6427 82.762C56.7467 82.526 56.8847 82.316 57.0567 82.132C57.2327 81.944 57.4487 81.796 57.7047 81.688C57.9607 81.58 58.2567 81.526 58.5927 81.526C58.8487 81.526 59.0547 81.546 59.2107 81.586C59.3707 81.626 59.4687 81.658 59.5047 81.682L59.2287 82.906C59.1887 82.878 59.1067 82.842 58.9827 82.798C58.8627 82.754 58.6947 82.732 58.4787 82.732C58.1507 82.732 57.8787 82.79 57.6627 82.906C57.4467 83.022 57.2747 83.176 57.1467 83.368C57.0187 83.56 56.9267 83.77 56.8707 83.998C56.8187 84.222 56.7927 84.448 56.7927 84.676V88H55.4907ZM60.5712 88V81.628H61.8552V88H60.5712ZM61.2192 80.308C60.9952 80.308 60.8012 80.248 60.6372 80.128C60.4772 80.004 60.3972 79.834 60.3972 79.618C60.3972 79.406 60.4772 79.24 60.6372 79.12C60.8012 78.996 60.9952 78.934 61.2192 78.934C61.4392 78.934 61.6292 78.996 61.7892 79.12C61.9532 79.24 62.0352 79.406 62.0352 79.618C62.0352 79.834 61.9532 80.004 61.7892 80.128C61.6292 80.248 61.4392 80.308 61.2192 80.308ZM66.6783 88.126C66.0383 88.126 65.4643 87.992 64.9563 87.724C64.4523 87.452 64.0543 87.066 63.7623 86.566C63.4743 86.066 63.3303 85.478 63.3303 84.802C63.3303 84.126 63.4743 83.544 63.7623 83.056C64.0543 82.564 64.4523 82.186 64.9563 81.922C65.4643 81.658 66.0383 81.526 66.6783 81.526C67.1623 81.526 67.5923 81.6 67.9683 81.748C68.3443 81.892 68.6623 82.084 68.9223 82.324C69.1823 82.564 69.3803 82.828 69.5163 83.116C69.6523 83.404 69.7203 83.692 69.7203 83.98C69.7203 83.984 69.7203 83.99 69.7203 83.998C69.7203 84.006 69.7203 84.014 69.7203 84.022H68.4303C68.4303 84.002 68.4283 83.98 68.4243 83.956C68.4203 83.928 68.4163 83.902 68.4123 83.878C68.3803 83.642 68.2883 83.432 68.1363 83.248C67.9843 83.064 67.7843 82.918 67.5363 82.81C67.2883 82.702 66.9983 82.648 66.6663 82.648C66.3023 82.648 65.9663 82.728 65.6583 82.888C65.3543 83.044 65.1103 83.282 64.9263 83.602C64.7423 83.922 64.6503 84.322 64.6503 84.802C64.6503 85.282 64.7403 85.686 64.9203 86.014C65.1043 86.338 65.3483 86.584 65.6523 86.752C65.9603 86.92 66.2983 87.004 66.6663 87.004C67.0623 87.004 67.3863 86.944 67.6383 86.824C67.8903 86.7 68.0803 86.536 68.2083 86.332C68.3363 86.124 68.4103 85.9 68.4303 85.66H69.7203C69.7203 85.948 69.6543 86.24 69.5223 86.536C69.3903 86.828 69.1963 87.094 68.9403 87.334C68.6843 87.574 68.3663 87.766 67.9863 87.91C67.6103 88.054 67.1743 88.126 66.6783 88.126ZM73.6666 88.126C73.2866 88.126 72.9286 88.084 72.5926 88C72.2566 87.916 71.9606 87.794 71.7046 87.634C71.4526 87.47 71.2546 87.268 71.1106 87.028C70.9706 86.788 70.9006 86.51 70.9006 86.194C70.9006 86.166 70.9006 86.138 70.9006 86.11C70.9006 86.078 70.9006 86.052 70.9006 86.032H72.1966C72.1966 86.052 72.1966 86.07 72.1966 86.086C72.1966 86.102 72.1966 86.124 72.1966 86.152C72.1966 86.444 72.3306 86.666 72.5986 86.818C72.8706 86.966 73.2386 87.04 73.7026 87.04C73.9746 87.04 74.2226 87.012 74.4466 86.956C74.6746 86.9 74.8546 86.814 74.9866 86.698C75.1226 86.582 75.1906 86.434 75.1906 86.254C75.1906 85.962 75.0466 85.754 74.7586 85.63C74.4746 85.506 74.0426 85.396 73.4626 85.3C73.1466 85.244 72.8406 85.172 72.5446 85.084C72.2526 84.996 71.9886 84.88 71.7526 84.736C71.5206 84.588 71.3346 84.406 71.1946 84.19C71.0586 83.97 70.9906 83.706 70.9906 83.398C70.9906 82.998 71.1106 82.658 71.3506 82.378C71.5906 82.098 71.9146 81.886 72.3226 81.742C72.7306 81.598 73.1806 81.526 73.6726 81.526C74.1486 81.526 74.5886 81.604 74.9926 81.76C75.4006 81.912 75.7286 82.134 75.9766 82.426C76.2246 82.714 76.3486 83.068 76.3486 83.488C76.3486 83.504 76.3486 83.522 76.3486 83.542C76.3486 83.562 76.3486 83.58 76.3486 83.596H75.0586C75.0586 83.58 75.0586 83.566 75.0586 83.554C75.0586 83.542 75.0586 83.528 75.0586 83.512C75.0586 83.304 74.9926 83.134 74.8606 83.002C74.7286 82.87 74.5566 82.772 74.3446 82.708C74.1366 82.64 73.9146 82.606 73.6786 82.606C73.4626 82.606 73.2446 82.63 73.0246 82.678C72.8086 82.722 72.6286 82.8 72.4846 82.912C72.3406 83.02 72.2686 83.168 72.2686 83.356C72.2686 83.548 72.3386 83.702 72.4786 83.818C72.6186 83.93 72.8166 84.024 73.0726 84.1C73.3286 84.172 73.6266 84.238 73.9666 84.298C74.2786 84.354 74.5826 84.426 74.8786 84.514C75.1746 84.598 75.4406 84.71 75.6766 84.85C75.9166 84.99 76.1066 85.17 76.2466 85.39C76.3906 85.61 76.4626 85.88 76.4626 86.2C76.4626 86.532 76.3866 86.818 76.2346 87.058C76.0826 87.298 75.8746 87.498 75.6106 87.658C75.3506 87.814 75.0526 87.93 74.7166 88.006C74.3846 88.086 74.0346 88.126 73.6666 88.126ZM83.5669 88.12C82.9869 88.12 82.4669 88.03 82.0069 87.85C81.5509 87.67 81.1889 87.408 80.9209 87.064C80.6569 86.716 80.5249 86.298 80.5249 85.81C80.5249 85.386 80.6349 85.01 80.8549 84.682C81.0749 84.35 81.3889 84.036 81.7969 83.74C82.2089 83.44 82.6989 83.132 83.2669 82.816C83.8029 82.516 84.1989 82.212 84.4549 81.904C84.7109 81.596 84.8389 81.268 84.8389 80.92C84.8389 80.696 84.7889 80.512 84.6889 80.368C84.5929 80.22 84.4649 80.11 84.3049 80.038C84.1489 79.966 83.9789 79.93 83.7949 79.93C83.6189 79.93 83.4449 79.966 83.2729 80.038C83.1049 80.106 82.9669 80.214 82.8589 80.362C82.7549 80.506 82.7029 80.69 82.7029 80.914C82.7029 81.206 82.7909 81.504 82.9669 81.808C83.1469 82.112 83.3889 82.458 83.6929 82.846L86.8009 86.716C86.9489 86.9 87.0809 87.018 87.1969 87.07C87.3129 87.122 87.4109 87.148 87.4909 87.148C87.5669 87.148 87.6409 87.14 87.7129 87.124C87.7889 87.108 87.8409 87.092 87.8689 87.076V87.994C87.8529 88.002 87.7949 88.018 87.6949 88.042C87.5949 88.07 87.4669 88.084 87.3109 88.084C87.1309 88.084 86.9389 88.04 86.7349 87.952C86.5349 87.86 86.3469 87.708 86.1709 87.496L82.8709 83.422C82.6709 83.17 82.4729 82.908 82.2769 82.636C82.0849 82.364 81.9249 82.08 81.7969 81.784C81.6729 81.488 81.6109 81.178 81.6109 80.854C81.6109 80.506 81.7069 80.198 81.8989 79.93C82.0949 79.658 82.3569 79.446 82.6849 79.294C83.0129 79.142 83.3789 79.066 83.7829 79.066C84.1949 79.066 84.5569 79.142 84.8689 79.294C85.1849 79.442 85.4329 79.65 85.6129 79.918C85.7929 80.186 85.8829 80.498 85.8829 80.854C85.8829 81.238 85.7989 81.588 85.6309 81.904C85.4629 82.216 85.2229 82.508 84.9109 82.78C84.6029 83.048 84.2309 83.306 83.7949 83.554C83.1349 83.934 82.6249 84.286 82.2649 84.61C81.9049 84.934 81.7249 85.314 81.7249 85.75C81.7249 86.03 81.8069 86.278 81.9709 86.494C82.1389 86.71 82.3629 86.88 82.6429 87.004C82.9229 87.124 83.2329 87.184 83.5729 87.184C84.1329 87.184 84.5969 87.104 84.9649 86.944C85.3369 86.784 85.6489 86.572 85.9009 86.308C86.1809 86.008 86.3909 85.662 86.5309 85.27C86.6709 84.874 86.7409 84.43 86.7409 83.938H87.8149C87.8149 84.398 87.7629 84.816 87.6589 85.192C87.5549 85.568 87.4149 85.908 87.2389 86.212C87.0629 86.512 86.8589 86.778 86.6269 87.01C86.3069 87.334 85.8929 87.6 85.3849 87.808C84.8809 88.016 84.2749 88.12 83.5669 88.12ZM31.2963 102V93.15H34.5363C35.3883 93.15 36.0323 93.348 36.4683 93.744C36.9043 94.14 37.1223 94.734 37.1223 95.526C37.1223 95.99 37.0323 96.386 36.8523 96.714C36.6763 97.042 36.4623 97.296 36.2103 97.476C35.9623 97.652 35.7283 97.752 35.5083 97.776C35.7323 97.792 35.9503 97.852 36.1623 97.956C36.3743 98.06 36.5503 98.22 36.6903 98.436C36.8303 98.652 36.9003 98.944 36.9003 99.312C36.9003 99.624 36.9003 99.94 36.9003 100.26C36.9003 100.58 36.9003 100.898 36.9003 101.214C36.9003 101.394 36.9143 101.558 36.9423 101.706C36.9743 101.85 37.0123 101.948 37.0563 102H35.7423C35.7063 101.94 35.6743 101.84 35.6463 101.7C35.6183 101.56 35.6043 101.398 35.6043 101.214C35.6043 100.926 35.6043 100.636 35.6043 100.344C35.6043 100.052 35.6043 99.76 35.6043 99.468C35.6043 99.088 35.4903 98.804 35.2623 98.616C35.0383 98.424 34.7103 98.328 34.2783 98.328H32.2143L32.5683 97.866V102H31.2963ZM32.5683 97.758L32.2143 97.248H34.2903C34.5703 97.248 34.8223 97.182 35.0463 97.05C35.2703 96.914 35.4483 96.726 35.5803 96.486C35.7163 96.242 35.7843 95.958 35.7843 95.634C35.7843 95.146 35.6503 94.79 35.3823 94.566C35.1143 94.342 34.7303 94.23 34.2303 94.23H32.1843L32.5683 93.732V97.758ZM39.0777 99.27V98.256H43.7697L43.5897 98.556C43.5897 98.532 43.5897 98.508 43.5897 98.484C43.5897 98.456 43.5897 98.432 43.5897 98.412C43.5897 98.088 43.5197 97.79 43.3797 97.518C43.2397 97.242 43.0297 97.022 42.7497 96.858C42.4737 96.69 42.1277 96.606 41.7117 96.606C41.2957 96.606 40.9297 96.696 40.6137 96.876C40.3017 97.052 40.0577 97.304 39.8817 97.632C39.7097 97.956 39.6237 98.346 39.6237 98.802C39.6237 99.266 39.7077 99.666 39.8757 100.002C40.0437 100.334 40.2857 100.59 40.6017 100.77C40.9177 100.95 41.2957 101.04 41.7357 101.04C42.0437 101.04 42.3097 101.01 42.5337 100.95C42.7617 100.886 42.9477 100.802 43.0917 100.698C43.2397 100.594 43.3517 100.482 43.4277 100.362C43.5037 100.238 43.5477 100.116 43.5597 99.996H44.8557C44.8317 100.256 44.7457 100.514 44.5977 100.77C44.4537 101.022 44.2477 101.252 43.9797 101.46C43.7157 101.664 43.3917 101.828 43.0077 101.952C42.6277 102.072 42.1897 102.132 41.6937 102.132C41.0297 102.132 40.4477 101.992 39.9477 101.712C39.4477 101.432 39.0577 101.044 38.7777 100.548C38.4977 100.048 38.3577 99.476 38.3577 98.832C38.3577 98.176 38.4997 97.6 38.7837 97.104C39.0677 96.608 39.4617 96.222 39.9657 95.946C40.4697 95.666 41.0477 95.526 41.6997 95.526C42.3637 95.526 42.9377 95.666 43.4217 95.946C43.9097 96.226 44.2857 96.612 44.5497 97.104C44.8137 97.596 44.9457 98.162 44.9457 98.802C44.9457 98.878 44.9437 98.966 44.9397 99.066C44.9357 99.166 44.9297 99.234 44.9217 99.27H39.0777ZM46.3969 104.622V95.628H47.6989V104.622H46.3969ZM49.7509 102.126C49.2549 102.126 48.7949 102.002 48.3709 101.754C47.9469 101.502 47.6029 101.158 47.3389 100.722C47.0789 100.286 46.9489 99.792 46.9489 99.24C46.9489 99.224 46.9489 99.212 46.9489 99.204C46.9489 99.192 46.9489 99.18 46.9489 99.168L47.7049 99.15C47.7049 99.158 47.7049 99.168 47.7049 99.18C47.7049 99.188 47.7049 99.198 47.7049 99.21C47.7049 99.538 47.7889 99.834 47.9569 100.098C48.1289 100.358 48.3509 100.564 48.6229 100.716C48.8949 100.868 49.1869 100.944 49.4989 100.944C50.0109 100.944 50.4409 100.77 50.7889 100.422C51.1409 100.07 51.3169 99.53 51.3169 98.802C51.3169 98.07 51.1429 97.532 50.7949 97.188C50.4469 96.84 50.0149 96.666 49.4989 96.666C49.1869 96.666 48.8949 96.742 48.6229 96.894C48.3509 97.042 48.1289 97.246 47.9569 97.506C47.7889 97.762 47.7049 98.056 47.7049 98.388L46.9489 98.358C46.9489 97.802 47.0789 97.312 47.3389 96.888C47.6029 96.46 47.9469 96.126 48.3709 95.886C48.7949 95.646 49.2549 95.526 49.7509 95.526C50.2669 95.526 50.7449 95.654 51.1849 95.91C51.6249 96.162 51.9789 96.532 52.2469 97.02C52.5189 97.508 52.6549 98.102 52.6549 98.802C52.6549 99.518 52.5229 100.124 52.2589 100.62C51.9949 101.116 51.6429 101.492 51.2029 101.748C50.7629 102 50.2789 102.126 49.7509 102.126ZM57.1741 102.12C56.5181 102.12 55.9381 101.978 55.4341 101.694C54.9341 101.41 54.5421 101.02 54.2581 100.524C53.9781 100.024 53.8381 99.452 53.8381 98.808C53.8381 98.168 53.9781 97.602 54.2581 97.11C54.5421 96.614 54.9341 96.228 55.4341 95.952C55.9381 95.672 56.5181 95.532 57.1741 95.532C57.8301 95.532 58.4081 95.672 58.9081 95.952C59.4121 96.228 59.8041 96.614 60.0841 97.11C60.3681 97.602 60.5101 98.168 60.5101 98.808C60.5101 99.452 60.3681 100.024 60.0841 100.524C59.8041 101.02 59.4121 101.41 58.9081 101.694C58.4081 101.978 57.8301 102.12 57.1741 102.12ZM57.1741 101.004C57.5741 101.004 57.9261 100.914 58.2301 100.734C58.5341 100.554 58.7721 100.3 58.9441 99.972C59.1161 99.64 59.2021 99.252 59.2021 98.808C59.2021 98.368 59.1161 97.986 58.9441 97.662C58.7721 97.338 58.5341 97.088 58.2301 96.912C57.9261 96.736 57.5741 96.648 57.1741 96.648C56.7781 96.648 56.4261 96.736 56.1181 96.912C55.8141 97.088 55.5761 97.338 55.4041 97.662C55.2321 97.986 55.1461 98.368 55.1461 98.808C55.1461 99.252 55.2321 99.64 55.4041 99.972C55.5761 100.3 55.8141 100.554 56.1181 100.734C56.4261 100.914 56.7781 101.004 57.1741 101.004ZM61.9594 102V95.628H63.2614V97.662L62.9134 97.506C62.9414 97.246 63.0074 96.998 63.1114 96.762C63.2154 96.526 63.3534 96.316 63.5254 96.132C63.7014 95.944 63.9174 95.796 64.1734 95.688C64.4294 95.58 64.7254 95.526 65.0614 95.526C65.3174 95.526 65.5234 95.546 65.6794 95.586C65.8394 95.626 65.9374 95.658 65.9734 95.682L65.6974 96.906C65.6574 96.878 65.5754 96.842 65.4514 96.798C65.3314 96.754 65.1634 96.732 64.9474 96.732C64.6194 96.732 64.3474 96.79 64.1314 96.906C63.9154 97.022 63.7434 97.176 63.6154 97.368C63.4874 97.56 63.3954 97.77 63.3394 97.998C63.2874 98.222 63.2614 98.448 63.2614 98.676V102H61.9594ZM69.7459 102.108C69.5339 102.108 69.3219 102.086 69.1099 102.042C68.9019 101.998 68.7099 101.918 68.5339 101.802C68.3619 101.682 68.2239 101.512 68.1199 101.292C68.0159 101.072 67.9639 100.784 67.9639 100.428C67.9639 100.344 67.9639 100.256 67.9639 100.164C67.9639 100.072 67.9639 99.978 67.9639 99.882V96.708H66.4339V95.628H67.2379C67.4099 95.628 67.5439 95.622 67.6399 95.61C67.7399 95.594 67.8119 95.56 67.8559 95.508C67.9039 95.452 67.9339 95.364 67.9459 95.244C67.9579 95.124 67.9639 94.96 67.9639 94.752V93.522H69.2659V95.628H71.2159V96.708H69.2659V99.534C69.2659 99.614 69.2659 99.694 69.2659 99.774C69.2659 99.854 69.2659 99.928 69.2659 99.996C69.2659 100.316 69.3039 100.568 69.3799 100.752C69.4599 100.936 69.6399 101.028 69.9199 101.028C70.0399 101.028 70.1539 101.018 70.2619 100.998C70.3699 100.978 70.4519 100.956 70.5079 100.932V101.994C70.4359 102.022 70.3339 102.048 70.2019 102.072C70.0699 102.096 69.9179 102.108 69.7459 102.108ZM72.4774 102V95.628H73.7614V102H72.4774ZM73.1254 94.308C72.9014 94.308 72.7074 94.248 72.5434 94.128C72.3834 94.004 72.3034 93.834 72.3034 93.618C72.3034 93.406 72.3834 93.24 72.5434 93.12C72.7074 92.996 72.9014 92.934 73.1254 92.934C73.3454 92.934 73.5354 92.996 73.6954 93.12C73.8594 93.24 73.9414 93.406 73.9414 93.618C73.9414 93.834 73.8594 94.004 73.6954 94.128C73.5354 94.248 73.3454 94.308 73.1254 94.308ZM80.0306 102V99.06C80.0306 98.888 80.0306 98.742 80.0306 98.622C80.0306 98.502 80.0306 98.39 80.0306 98.286C80.0306 97.974 79.9826 97.7 79.8866 97.464C79.7906 97.224 79.6326 97.038 79.4126 96.906C79.1926 96.77 78.8986 96.702 78.5306 96.702C78.2066 96.702 77.9126 96.782 77.6486 96.942C77.3886 97.102 77.1806 97.32 77.0246 97.596C76.8726 97.868 76.7966 98.178 76.7966 98.526L76.2386 98.25C76.2386 97.734 76.3606 97.272 76.6046 96.864C76.8486 96.452 77.1746 96.126 77.5826 95.886C77.9946 95.646 78.4446 95.526 78.9326 95.526C79.4366 95.526 79.8666 95.624 80.2226 95.82C80.5826 96.012 80.8566 96.288 81.0446 96.648C81.2366 97.004 81.3326 97.43 81.3326 97.926C81.3326 98.11 81.3326 98.314 81.3326 98.538C81.3326 98.762 81.3326 98.978 81.3326 99.186V102H80.0306ZM75.4946 102V95.628H76.7966V102H75.4946ZM87.1531 101.49C87.5131 101.522 87.8291 101.59 88.1011 101.694C88.3731 101.794 88.5851 101.942 88.7371 102.138C88.8931 102.338 88.9711 102.6 88.9711 102.924C88.9711 103.288 88.8471 103.604 88.5991 103.872C88.3551 104.144 87.9891 104.354 87.5011 104.502C87.0131 104.654 86.4071 104.73 85.6831 104.73C84.6471 104.73 83.8571 104.58 83.3131 104.28C82.7691 103.98 82.4971 103.572 82.4971 103.056C82.4971 102.9 82.5151 102.762 82.5511 102.642C82.5871 102.522 82.6311 102.422 82.6831 102.342L83.8951 102.522C83.8671 102.562 83.8391 102.62 83.8111 102.696C83.7831 102.776 83.7691 102.872 83.7691 102.984C83.7691 103.268 83.9431 103.47 84.2911 103.59C84.6391 103.71 85.1211 103.77 85.7371 103.77C86.1891 103.77 86.5631 103.738 86.8591 103.674C87.1591 103.614 87.3831 103.526 87.5311 103.41C87.6791 103.294 87.7531 103.158 87.7531 103.002C87.7531 102.766 87.6511 102.618 87.4471 102.558C87.2431 102.498 86.9971 102.456 86.7091 102.432L84.2911 102.234C83.8711 102.198 83.5271 102.072 83.2591 101.856C82.9951 101.64 82.8631 101.368 82.8631 101.04C82.8631 100.836 82.9151 100.646 83.0191 100.47C83.1231 100.294 83.2431 100.146 83.3791 100.026C83.5191 99.906 83.6391 99.832 83.7391 99.804L84.5911 100.212C84.4991 100.224 84.3871 100.286 84.2551 100.398C84.1271 100.506 84.0631 100.634 84.0631 100.782C84.0631 100.918 84.1191 101.03 84.2311 101.118C84.3471 101.206 84.5711 101.264 84.9031 101.292L87.1531 101.49ZM87.9511 95.628H89.1331L88.6471 98.118C88.5591 98.582 88.3971 99.002 88.1611 99.378C87.9291 99.75 87.6131 100.044 87.2131 100.26C86.8171 100.476 86.3231 100.584 85.7311 100.584C85.1151 100.584 84.5851 100.478 84.1411 100.266C83.6971 100.054 83.3551 99.76 83.1151 99.384C82.8791 99.004 82.7611 98.572 82.7611 98.088C82.7611 97.596 82.8831 97.156 83.1271 96.768C83.3751 96.38 83.7151 96.076 84.1471 95.856C84.5831 95.636 85.0811 95.526 85.6411 95.526C86.1131 95.526 86.5311 95.606 86.8951 95.766C87.2631 95.926 87.5551 96.13 87.7711 96.378C87.9871 96.626 88.1051 96.884 88.1251 97.152L87.7531 97.194L87.9511 95.628ZM85.7251 99.522C86.0731 99.522 86.3731 99.466 86.6251 99.354C86.8771 99.238 87.0711 99.072 87.2071 98.856C87.3431 98.636 87.4111 98.372 87.4111 98.064C87.4111 97.76 87.3431 97.5 87.2071 97.284C87.0711 97.064 86.8771 96.896 86.6251 96.78C86.3731 96.66 86.0751 96.6 85.7311 96.6C85.3991 96.6 85.1051 96.662 84.8491 96.786C84.5971 96.906 84.3991 97.076 84.2551 97.296C84.1111 97.516 84.0391 97.778 84.0391 98.082C84.0391 98.386 84.1071 98.646 84.2431 98.862C84.3791 99.074 84.5731 99.238 84.8251 99.354C85.0771 99.466 85.3771 99.522 85.7251 99.522Z" style="fill: rgb(255, 255, 255);"/>
  <path fill-rule="evenodd" clip-rule="evenodd" d="M47 42H39V63H47V42ZM37 40V65H49V40H37Z" style="fill: rgb(255, 255, 255);"/>
  <path fill-rule="evenodd" clip-rule="evenodd" d="M64 23H56V63H64V23ZM54 21V65H66V21H54Z" style="fill: rgb(255, 255, 255);"/>
  <path fill-rule="evenodd" clip-rule="evenodd" d="M81 36H73V63H81V36ZM71 34V65H83V34H71Z" style="fill: rgb(255, 255, 255);"/>
  <path fill-rule="evenodd" clip-rule="evenodd" d="M94 65L26 65L26 63L94 63L94 65Z" style="fill: rgb(255, 255, 255);"/>
</svg>