<svg width="120" height="120" viewBox="0 0 120 120" fill="none" xmlns="http://www.w3.org/2000/svg">
<rect x="2.5" y="2.5" width="115" height="115" rx="10.5" fill="#293682" stroke="#54D499" stroke-width="5"/>
<path d="M16.2557 89H14.9897V80.15H17.0657L20.5577 88.382L20.4017 88.442V80.15H21.6737V89H19.5677L16.0877 80.78L16.2557 80.726V89ZM26.4183 89.12C25.7623 89.12 25.1823 88.978 24.6783 88.694C24.1783 88.41 23.7863 88.02 23.5023 87.524C23.2223 87.024 23.0823 86.452 23.0823 85.808C23.0823 85.168 23.2223 84.602 23.5023 84.11C23.7863 83.614 24.1783 83.228 24.6783 82.952C25.1823 82.672 25.7623 82.532 26.4183 82.532C27.0743 82.532 27.6523 82.672 28.1523 82.952C28.6563 83.228 29.0483 83.614 29.3283 84.11C29.6123 84.602 29.7543 85.168 29.7543 85.808C29.7543 86.452 29.6123 87.024 29.3283 87.524C29.0483 88.02 28.6563 88.41 28.1523 88.694C27.6523 88.978 27.0743 89.12 26.4183 89.12ZM26.4183 88.004C26.8183 88.004 27.1703 87.914 27.4743 87.734C27.7783 87.554 28.0163 87.3 28.1883 86.972C28.3603 86.64 28.4463 86.252 28.4463 85.808C28.4463 85.368 28.3603 84.986 28.1883 84.662C28.0163 84.338 27.7783 84.088 27.4743 83.912C27.1703 83.736 26.8183 83.648 26.4183 83.648C26.0223 83.648 25.6703 83.736 25.3623 83.912C25.0583 84.088 24.8203 84.338 24.6483 84.662C24.4763 84.986 24.3903 85.368 24.3903 85.808C24.3903 86.252 24.4763 86.64 24.6483 86.972C24.8203 87.3 25.0583 87.554 25.3623 87.734C25.6703 87.914 26.0223 88.004 26.4183 88.004ZM35.7396 89V86.06C35.7396 85.888 35.7396 85.742 35.7396 85.622C35.7396 85.502 35.7396 85.39 35.7396 85.286C35.7396 84.974 35.6916 84.7 35.5956 84.464C35.4996 84.224 35.3416 84.038 35.1216 83.906C34.9016 83.77 34.6076 83.702 34.2396 83.702C33.9156 83.702 33.6216 83.782 33.3576 83.942C33.0976 84.102 32.8896 84.32 32.7336 84.596C32.5816 84.868 32.5056 85.178 32.5056 85.526L31.9476 85.25C31.9476 84.734 32.0696 84.272 32.3136 83.864C32.5576 83.452 32.8836 83.126 33.2916 82.886C33.7036 82.646 34.1536 82.526 34.6416 82.526C35.1456 82.526 35.5756 82.624 35.9316 82.82C36.2916 83.012 36.5656 83.288 36.7536 83.648C36.9456 84.004 37.0416 84.43 37.0416 84.926C37.0416 85.11 37.0416 85.314 37.0416 85.538C37.0416 85.762 37.0416 85.978 37.0416 86.186V89H35.7396ZM31.2036 89V82.628H32.5056V89H31.2036ZM38.3321 86.012V85.196H42.5741V86.012H38.3321ZM44.7368 81.23L45.3248 80.546V84.482L44.9168 84.11H48.5108V85.19H44.9168L45.3248 84.794V89H44.0288V80.15H49.0448V81.23H44.7368ZM52.4045 89.114C51.9525 89.114 51.5765 89.038 51.2765 88.886C50.9765 88.73 50.7385 88.528 50.5625 88.28C50.3865 88.028 50.2625 87.754 50.1905 87.458C50.1185 87.158 50.0825 86.866 50.0825 86.582C50.0825 86.434 50.0825 86.28 50.0825 86.12C50.0825 85.956 50.0825 85.792 50.0825 85.628V82.628H51.3905V85.442C51.3905 85.586 51.3905 85.728 51.3905 85.868C51.3905 86.004 51.3905 86.132 51.3905 86.252C51.3905 86.56 51.4305 86.844 51.5105 87.104C51.5905 87.36 51.7305 87.568 51.9305 87.728C52.1345 87.884 52.4185 87.962 52.7825 87.962C53.1225 87.962 53.4185 87.862 53.6705 87.662C53.9225 87.458 54.1185 87.202 54.2585 86.894C54.3985 86.582 54.4685 86.27 54.4685 85.958L55.0385 86.264C55.0385 86.632 54.9765 86.986 54.8525 87.326C54.7325 87.666 54.5585 87.972 54.3305 88.244C54.1025 88.512 53.8245 88.724 53.4965 88.88C53.1725 89.036 52.8085 89.114 52.4045 89.114ZM54.4685 89V82.628H55.7705V89H54.4685ZM61.9544 89V86.06C61.9544 85.888 61.9544 85.742 61.9544 85.622C61.9544 85.502 61.9544 85.39 61.9544 85.286C61.9544 84.974 61.9064 84.7 61.8104 84.464C61.7144 84.224 61.5564 84.038 61.3364 83.906C61.1164 83.77 60.8224 83.702 60.4544 83.702C60.1304 83.702 59.8364 83.782 59.5724 83.942C59.3124 84.102 59.1044 84.32 58.9484 84.596C58.7964 84.868 58.7204 85.178 58.7204 85.526L58.1624 85.25C58.1624 84.734 58.2844 84.272 58.5284 83.864C58.7724 83.452 59.0984 83.126 59.5064 82.886C59.9184 82.646 60.3684 82.526 60.8564 82.526C61.3604 82.526 61.7904 82.624 62.1464 82.82C62.5064 83.012 62.7804 83.288 62.9684 83.648C63.1604 84.004 63.2564 84.43 63.2564 84.926C63.2564 85.11 63.2564 85.314 63.2564 85.538C63.2564 85.762 63.2564 85.978 63.2564 86.186V89H61.9544ZM57.4184 89V82.628H58.7204V89H57.4184ZM67.985 89.126C67.345 89.126 66.771 88.992 66.263 88.724C65.759 88.452 65.361 88.066 65.069 87.566C64.781 87.066 64.637 86.478 64.637 85.802C64.637 85.126 64.781 84.544 65.069 84.056C65.361 83.564 65.759 83.186 66.263 82.922C66.771 82.658 67.345 82.526 67.985 82.526C68.469 82.526 68.899 82.6 69.275 82.748C69.651 82.892 69.969 83.084 70.229 83.324C70.489 83.564 70.687 83.828 70.823 84.116C70.959 84.404 71.027 84.692 71.027 84.98C71.027 84.984 71.027 84.99 71.027 84.998C71.027 85.006 71.027 85.014 71.027 85.022H69.737C69.737 85.002 69.735 84.98 69.731 84.956C69.727 84.928 69.723 84.902 69.719 84.878C69.687 84.642 69.595 84.432 69.443 84.248C69.291 84.064 69.091 83.918 68.843 83.81C68.595 83.702 68.305 83.648 67.973 83.648C67.609 83.648 67.273 83.728 66.965 83.888C66.661 84.044 66.417 84.282 66.233 84.602C66.049 84.922 65.957 85.322 65.957 85.802C65.957 86.282 66.047 86.686 66.227 87.014C66.411 87.338 66.655 87.584 66.959 87.752C67.267 87.92 67.605 88.004 67.973 88.004C68.369 88.004 68.693 87.944 68.945 87.824C69.197 87.7 69.387 87.536 69.515 87.332C69.643 87.124 69.717 86.9 69.737 86.66H71.027C71.027 86.948 70.961 87.24 70.829 87.536C70.697 87.828 70.503 88.094 70.247 88.334C69.991 88.574 69.673 88.766 69.293 88.91C68.917 89.054 68.481 89.126 67.985 89.126ZM75.0838 89.108C74.8718 89.108 74.6598 89.086 74.4478 89.042C74.2398 88.998 74.0478 88.918 73.8718 88.802C73.6998 88.682 73.5618 88.512 73.4578 88.292C73.3538 88.072 73.3018 87.784 73.3018 87.428C73.3018 87.344 73.3018 87.256 73.3018 87.164C73.3018 87.072 73.3018 86.978 73.3018 86.882V83.708H71.7718V82.628H72.5758C72.7478 82.628 72.8818 82.622 72.9778 82.61C73.0778 82.594 73.1498 82.56 73.1938 82.508C73.2418 82.452 73.2718 82.364 73.2838 82.244C73.2958 82.124 73.3018 81.96 73.3018 81.752V80.522H74.6038V82.628H76.5538V83.708H74.6038V86.534C74.6038 86.614 74.6038 86.694 74.6038 86.774C74.6038 86.854 74.6038 86.928 74.6038 86.996C74.6038 87.316 74.6418 87.568 74.7178 87.752C74.7978 87.936 74.9778 88.028 75.2578 88.028C75.3778 88.028 75.4918 88.018 75.5998 87.998C75.7078 87.978 75.7898 87.956 75.8458 87.932V88.994C75.7738 89.022 75.6718 89.048 75.5398 89.072C75.4078 89.096 75.2558 89.108 75.0838 89.108ZM77.8153 89V82.628H79.0993V89H77.8153ZM78.4633 81.308C78.2393 81.308 78.0453 81.248 77.8813 81.128C77.7213 81.004 77.6413 80.834 77.6413 80.618C77.6413 80.406 77.7213 80.24 77.8813 80.12C78.0453 79.996 78.2393 79.934 78.4633 79.934C78.6833 79.934 78.8733 79.996 79.0333 80.12C79.1973 80.24 79.2793 80.406 79.2793 80.618C79.2793 80.834 79.1973 81.004 79.0333 81.128C78.8733 81.248 78.6833 81.308 78.4633 81.308ZM83.9105 89.12C83.2545 89.12 82.6745 88.978 82.1705 88.694C81.6705 88.41 81.2785 88.02 80.9945 87.524C80.7145 87.024 80.5745 86.452 80.5745 85.808C80.5745 85.168 80.7145 84.602 80.9945 84.11C81.2785 83.614 81.6705 83.228 82.1705 82.952C82.6745 82.672 83.2545 82.532 83.9105 82.532C84.5665 82.532 85.1445 82.672 85.6445 82.952C86.1485 83.228 86.5405 83.614 86.8205 84.11C87.1045 84.602 87.2465 85.168 87.2465 85.808C87.2465 86.452 87.1045 87.024 86.8205 87.524C86.5405 88.02 86.1485 88.41 85.6445 88.694C85.1445 88.978 84.5665 89.12 83.9105 89.12ZM83.9105 88.004C84.3105 88.004 84.6625 87.914 84.9665 87.734C85.2705 87.554 85.5085 87.3 85.6805 86.972C85.8525 86.64 85.9385 86.252 85.9385 85.808C85.9385 85.368 85.8525 84.986 85.6805 84.662C85.5085 84.338 85.2705 84.088 84.9665 83.912C84.6625 83.736 84.3105 83.648 83.9105 83.648C83.5145 83.648 83.1625 83.736 82.8545 83.912C82.5505 84.088 82.3125 84.338 82.1405 84.662C81.9685 84.986 81.8825 85.368 81.8825 85.808C81.8825 86.252 81.9685 86.64 82.1405 86.972C82.3125 87.3 82.5505 87.554 82.8545 87.734C83.1625 87.914 83.5145 88.004 83.9105 88.004ZM93.2318 89V86.06C93.2318 85.888 93.2318 85.742 93.2318 85.622C93.2318 85.502 93.2318 85.39 93.2318 85.286C93.2318 84.974 93.1838 84.7 93.0878 84.464C92.9918 84.224 92.8338 84.038 92.6138 83.906C92.3938 83.77 92.0998 83.702 91.7318 83.702C91.4078 83.702 91.1138 83.782 90.8498 83.942C90.5898 84.102 90.3818 84.32 90.2258 84.596C90.0738 84.868 89.9978 85.178 89.9978 85.526L89.4398 85.25C89.4398 84.734 89.5618 84.272 89.8058 83.864C90.0498 83.452 90.3758 83.126 90.7838 82.886C91.1958 82.646 91.6458 82.526 92.1338 82.526C92.6378 82.526 93.0678 82.624 93.4238 82.82C93.7838 83.012 94.0578 83.288 94.2458 83.648C94.4378 84.004 94.5338 84.43 94.5338 84.926C94.5338 85.11 94.5338 85.314 94.5338 85.538C94.5338 85.762 94.5338 85.978 94.5338 86.186V89H93.2318ZM88.6958 89V82.628H89.9978V89H88.6958ZM98.3803 89.126C97.9003 89.126 97.4783 89.05 97.1143 88.898C96.7543 88.746 96.4743 88.528 96.2743 88.244C96.0743 87.96 95.9743 87.618 95.9743 87.218C95.9743 86.79 96.0863 86.436 96.3103 86.156C96.5383 85.876 96.8503 85.66 97.2463 85.508C97.6463 85.352 98.1003 85.25 98.6083 85.202C99.3643 85.126 99.8963 85.052 100.204 84.98C100.516 84.908 100.672 84.79 100.672 84.626C100.672 84.622 100.672 84.618 100.672 84.614C100.672 84.29 100.534 84.044 100.258 83.876C99.9823 83.708 99.5883 83.624 99.0763 83.624C98.5363 83.624 98.1183 83.72 97.8223 83.912C97.5303 84.1 97.3843 84.4 97.3843 84.812H96.1063C96.1063 84.324 96.2323 83.91 96.4843 83.57C96.7403 83.23 97.0923 82.972 97.5403 82.796C97.9883 82.616 98.5023 82.526 99.0823 82.526C99.6143 82.526 100.098 82.608 100.534 82.772C100.974 82.932 101.324 83.172 101.584 83.492C101.844 83.812 101.974 84.21 101.974 84.686C101.974 84.77 101.974 84.854 101.974 84.938C101.974 85.018 101.974 85.1 101.974 85.184V87.728C101.974 87.876 101.98 88.02 101.992 88.16C102.004 88.296 102.026 88.418 102.058 88.526C102.094 88.65 102.136 88.752 102.184 88.832C102.236 88.912 102.278 88.968 102.31 89H101.014C100.99 88.976 100.954 88.926 100.906 88.85C100.862 88.77 100.822 88.678 100.786 88.574C100.75 88.474 100.722 88.36 100.702 88.232C100.686 88.1 100.678 87.958 100.678 87.806L100.918 87.974C100.798 88.206 100.616 88.408 100.372 88.58C100.132 88.752 99.8423 88.886 99.5023 88.982C99.1663 89.078 98.7923 89.126 98.3803 89.126ZM98.6503 88.046C99.0223 88.046 99.3603 87.988 99.6643 87.872C99.9723 87.752 100.218 87.572 100.402 87.332C100.586 87.088 100.678 86.782 100.678 86.414V85.358L100.984 85.76C100.728 85.86 100.414 85.942 100.042 86.006C99.6743 86.066 99.2943 86.116 98.9023 86.156C98.3623 86.204 97.9563 86.298 97.6843 86.438C97.4123 86.574 97.2763 86.802 97.2763 87.122C97.2763 87.43 97.3883 87.662 97.6123 87.818C97.8403 87.97 98.1863 88.046 98.6503 88.046ZM104.929 79.622V89H103.645V79.622H104.929ZM44.5263 95.23H41.8443L42.2523 94.546V103H40.9503V94.546L41.4003 95.23H38.6823V94.15H44.5263V95.23ZM45.3179 100.27V99.256H50.0099L49.8299 99.556C49.8299 99.532 49.8299 99.508 49.8299 99.484C49.8299 99.456 49.8299 99.432 49.8299 99.412C49.8299 99.088 49.7599 98.79 49.6199 98.518C49.4799 98.242 49.2699 98.022 48.9899 97.858C48.7139 97.69 48.3679 97.606 47.9519 97.606C47.5359 97.606 47.1699 97.696 46.8539 97.876C46.5419 98.052 46.2979 98.304 46.1219 98.632C45.9499 98.956 45.8639 99.346 45.8639 99.802C45.8639 100.266 45.9479 100.666 46.1159 101.002C46.2839 101.334 46.5259 101.59 46.8419 101.77C47.1579 101.95 47.5359 102.04 47.9759 102.04C48.2839 102.04 48.5499 102.01 48.7739 101.95C49.0019 101.886 49.1879 101.802 49.3319 101.698C49.4799 101.594 49.5919 101.482 49.6679 101.362C49.7439 101.238 49.7879 101.116 49.7999 100.996H51.0959C51.0719 101.256 50.9859 101.514 50.8379 101.77C50.6939 102.022 50.4879 102.252 50.2199 102.46C49.9559 102.664 49.6319 102.828 49.2479 102.952C48.8679 103.072 48.4299 103.132 47.9339 103.132C47.2699 103.132 46.6879 102.992 46.1879 102.712C45.6879 102.432 45.2979 102.044 45.0179 101.548C44.7379 101.048 44.5979 100.476 44.5979 99.832C44.5979 99.176 44.7399 98.6 45.0239 98.104C45.3079 97.608 45.7019 97.222 46.2059 96.946C46.7099 96.666 47.2879 96.526 47.9399 96.526C48.6039 96.526 49.1779 96.666 49.6619 96.946C50.1499 97.226 50.5259 97.612 50.7899 98.104C51.0539 98.596 51.1859 99.162 51.1859 99.802C51.1859 99.878 51.1839 99.966 51.1799 100.066C51.1759 100.166 51.1699 100.234 51.1619 100.27H45.3179ZM55.1452 103.126C54.7652 103.126 54.4072 103.084 54.0712 103C53.7352 102.916 53.4392 102.794 53.1832 102.634C52.9312 102.47 52.7332 102.268 52.5892 102.028C52.4492 101.788 52.3792 101.51 52.3792 101.194C52.3792 101.166 52.3792 101.138 52.3792 101.11C52.3792 101.078 52.3792 101.052 52.3792 101.032H53.6752C53.6752 101.052 53.6752 101.07 53.6752 101.086C53.6752 101.102 53.6752 101.124 53.6752 101.152C53.6752 101.444 53.8092 101.666 54.0772 101.818C54.3492 101.966 54.7172 102.04 55.1812 102.04C55.4532 102.04 55.7012 102.012 55.9252 101.956C56.1532 101.9 56.3332 101.814 56.4652 101.698C56.6012 101.582 56.6692 101.434 56.6692 101.254C56.6692 100.962 56.5252 100.754 56.2372 100.63C55.9532 100.506 55.5212 100.396 54.9412 100.3C54.6252 100.244 54.3192 100.172 54.0232 100.084C53.7312 99.996 53.4672 99.88 53.2312 99.736C52.9992 99.588 52.8132 99.406 52.6732 99.19C52.5372 98.97 52.4692 98.706 52.4692 98.398C52.4692 97.998 52.5892 97.658 52.8292 97.378C53.0692 97.098 53.3932 96.886 53.8012 96.742C54.2092 96.598 54.6592 96.526 55.1512 96.526C55.6272 96.526 56.0672 96.604 56.4712 96.76C56.8792 96.912 57.2072 97.134 57.4552 97.426C57.7032 97.714 57.8272 98.068 57.8272 98.488C57.8272 98.504 57.8272 98.522 57.8272 98.542C57.8272 98.562 57.8272 98.58 57.8272 98.596H56.5372C56.5372 98.58 56.5372 98.566 56.5372 98.554C56.5372 98.542 56.5372 98.528 56.5372 98.512C56.5372 98.304 56.4712 98.134 56.3392 98.002C56.2072 97.87 56.0352 97.772 55.8232 97.708C55.6152 97.64 55.3932 97.606 55.1572 97.606C54.9412 97.606 54.7232 97.63 54.5032 97.678C54.2872 97.722 54.1072 97.8 53.9632 97.912C53.8192 98.02 53.7472 98.168 53.7472 98.356C53.7472 98.548 53.8172 98.702 53.9572 98.818C54.0972 98.93 54.2952 99.024 54.5512 99.1C54.8072 99.172 55.1052 99.238 55.4452 99.298C55.7572 99.354 56.0612 99.426 56.3572 99.514C56.6532 99.598 56.9192 99.71 57.1552 99.85C57.3952 99.99 57.5852 100.17 57.7252 100.39C57.8692 100.61 57.9412 100.88 57.9412 101.2C57.9412 101.532 57.8652 101.818 57.7132 102.058C57.5612 102.298 57.3532 102.498 57.0892 102.658C56.8292 102.814 56.5312 102.93 56.1952 103.006C55.8632 103.086 55.5132 103.126 55.1452 103.126ZM61.994 103.108C61.782 103.108 61.57 103.086 61.358 103.042C61.15 102.998 60.958 102.918 60.782 102.802C60.61 102.682 60.472 102.512 60.368 102.292C60.264 102.072 60.212 101.784 60.212 101.428C60.212 101.344 60.212 101.256 60.212 101.164C60.212 101.072 60.212 100.978 60.212 100.882V97.708H58.682V96.628H59.486C59.658 96.628 59.792 96.622 59.888 96.61C59.988 96.594 60.06 96.56 60.104 96.508C60.152 96.452 60.182 96.364 60.194 96.244C60.206 96.124 60.212 95.96 60.212 95.752V94.522H61.514V96.628H63.464V97.708H61.514V100.534C61.514 100.614 61.514 100.694 61.514 100.774C61.514 100.854 61.514 100.928 61.514 100.996C61.514 101.316 61.552 101.568 61.628 101.752C61.708 101.936 61.888 102.028 62.168 102.028C62.288 102.028 62.402 102.018 62.51 101.998C62.618 101.978 62.7 101.956 62.756 101.932V102.994C62.684 103.022 62.582 103.048 62.45 103.072C62.318 103.096 62.166 103.108 61.994 103.108ZM64.7255 103V96.628H66.0095V103H64.7255ZM65.3735 95.308C65.1495 95.308 64.9555 95.248 64.7915 95.128C64.6315 95.004 64.5515 94.834 64.5515 94.618C64.5515 94.406 64.6315 94.24 64.7915 94.12C64.9555 93.996 65.1495 93.934 65.3735 93.934C65.5935 93.934 65.7835 93.996 65.9435 94.12C66.1075 94.24 66.1895 94.406 66.1895 94.618C66.1895 94.834 66.1075 95.004 65.9435 95.128C65.7835 95.248 65.5935 95.308 65.3735 95.308ZM72.2786 103V100.06C72.2786 99.888 72.2786 99.742 72.2786 99.622C72.2786 99.502 72.2786 99.39 72.2786 99.286C72.2786 98.974 72.2306 98.7 72.1346 98.464C72.0386 98.224 71.8806 98.038 71.6606 97.906C71.4406 97.77 71.1466 97.702 70.7786 97.702C70.4546 97.702 70.1606 97.782 69.8966 97.942C69.6366 98.102 69.4286 98.32 69.2726 98.596C69.1206 98.868 69.0446 99.178 69.0446 99.526L68.4866 99.25C68.4866 98.734 68.6086 98.272 68.8526 97.864C69.0966 97.452 69.4226 97.126 69.8306 96.886C70.2426 96.646 70.6926 96.526 71.1806 96.526C71.6846 96.526 72.1146 96.624 72.4706 96.82C72.8306 97.012 73.1046 97.288 73.2926 97.648C73.4846 98.004 73.5806 98.43 73.5806 98.926C73.5806 99.11 73.5806 99.314 73.5806 99.538C73.5806 99.762 73.5806 99.978 73.5806 100.186V103H72.2786ZM67.7426 103V96.628H69.0446V103H67.7426ZM79.4012 102.49C79.7612 102.522 80.0772 102.59 80.3492 102.694C80.6212 102.794 80.8332 102.942 80.9852 103.138C81.1412 103.338 81.2192 103.6 81.2192 103.924C81.2192 104.288 81.0952 104.604 80.8472 104.872C80.6032 105.144 80.2372 105.354 79.7492 105.502C79.2612 105.654 78.6552 105.73 77.9312 105.73C76.8952 105.73 76.1052 105.58 75.5612 105.28C75.0172 104.98 74.7452 104.572 74.7452 104.056C74.7452 103.9 74.7632 103.762 74.7992 103.642C74.8352 103.522 74.8792 103.422 74.9312 103.342L76.1432 103.522C76.1152 103.562 76.0872 103.62 76.0592 103.696C76.0312 103.776 76.0172 103.872 76.0172 103.984C76.0172 104.268 76.1912 104.47 76.5392 104.59C76.8872 104.71 77.3692 104.77 77.9852 104.77C78.4372 104.77 78.8112 104.738 79.1072 104.674C79.4072 104.614 79.6312 104.526 79.7792 104.41C79.9272 104.294 80.0012 104.158 80.0012 104.002C80.0012 103.766 79.8992 103.618 79.6952 103.558C79.4912 103.498 79.2452 103.456 78.9572 103.432L76.5392 103.234C76.1192 103.198 75.7752 103.072 75.5072 102.856C75.2432 102.64 75.1112 102.368 75.1112 102.04C75.1112 101.836 75.1632 101.646 75.2672 101.47C75.3712 101.294 75.4912 101.146 75.6272 101.026C75.7672 100.906 75.8872 100.832 75.9872 100.804L76.8392 101.212C76.7472 101.224 76.6352 101.286 76.5032 101.398C76.3752 101.506 76.3112 101.634 76.3112 101.782C76.3112 101.918 76.3672 102.03 76.4792 102.118C76.5952 102.206 76.8192 102.264 77.1512 102.292L79.4012 102.49ZM80.1992 96.628H81.3812L80.8952 99.118C80.8072 99.582 80.6452 100.002 80.4092 100.378C80.1772 100.75 79.8612 101.044 79.4612 101.26C79.0652 101.476 78.5712 101.584 77.9792 101.584C77.3632 101.584 76.8332 101.478 76.3892 101.266C75.9452 101.054 75.6032 100.76 75.3632 100.384C75.1272 100.004 75.0092 99.572 75.0092 99.088C75.0092 98.596 75.1312 98.156 75.3752 97.768C75.6232 97.38 75.9632 97.076 76.3952 96.856C76.8312 96.636 77.3292 96.526 77.8892 96.526C78.3612 96.526 78.7792 96.606 79.1432 96.766C79.5112 96.926 79.8032 97.13 80.0192 97.378C80.2352 97.626 80.3532 97.884 80.3732 98.152L80.0012 98.194L80.1992 96.628ZM77.9732 100.522C78.3212 100.522 78.6212 100.466 78.8732 100.354C79.1252 100.238 79.3192 100.072 79.4552 99.856C79.5912 99.636 79.6592 99.372 79.6592 99.064C79.6592 98.76 79.5912 98.5 79.4552 98.284C79.3192 98.064 79.1252 97.896 78.8732 97.78C78.6212 97.66 78.3232 97.6 77.9792 97.6C77.6472 97.6 77.3532 97.662 77.0972 97.786C76.8452 97.906 76.6472 98.076 76.5032 98.296C76.3592 98.516 76.2872 98.778 76.2872 99.082C76.2872 99.386 76.3552 99.646 76.4912 99.862C76.6272 100.074 76.8212 100.238 77.0732 100.354C77.3252 100.466 77.6252 100.522 77.9732 100.522Z" fill="white"/>
<path d="M60.1536 44.5778C58.6518 44.5778 57.4306 45.7995 57.4306 47.3009C57.4306 48.8027 58.6518 50.024 60.1536 50.024C61.6542 50.024 62.8767 48.8027 62.8767 47.3009C62.8767 45.7995 61.6542 44.5778 60.1536 44.5778ZM60.1536 52.7471C57.15 52.7471 54.7075 50.3046 54.7075 47.3009C54.7075 44.2977 57.15 41.8548 60.1536 41.8548C63.1573 41.8548 65.5998 44.2977 65.5998 47.3009C65.5998 50.3046 63.1573 52.7471 60.1536 52.7471Z" fill="white"/>
<path fill-rule="evenodd" clip-rule="evenodd" d="M75.5297 30L77.4545 31.9253L63.8392 45.5407L61.9143 43.6154L75.5297 30Z" fill="white"/>
<path d="M48.1725 56.2905C46.2132 53.682 45.1771 50.5721 45.1771 47.3018C45.1771 39.0428 51.8946 32.3248 60.1541 32.3248C68.4117 32.3248 75.131 39.0428 75.131 47.3018C75.131 50.5694 74.0945 53.6777 72.1369 56.2879L69.9584 54.6528C71.5609 52.5192 72.4079 49.9756 72.4079 47.3018C72.4079 40.5446 66.9112 35.0479 60.1541 35.0479C53.3965 35.0479 47.9002 40.5446 47.9002 47.3018C47.9002 49.9786 48.7468 52.5218 50.351 54.6554L48.1725 56.2905Z" fill="white"/>
<path fill-rule="evenodd" clip-rule="evenodd" d="M87.941 48.833L85.4462 48.6718C85.4819 48.1195 85.5 47.562 85.5 47C85.5 46.438 85.4819 45.8805 85.4462 45.3282L87.941 45.167C87.9801 45.7729 88 46.3841 88 47C88 47.6159 87.9801 48.2271 87.941 48.833ZM86.521 37.9964L84.1536 38.7998C83.7941 37.7406 83.3668 36.7125 82.8767 35.7206L85.1181 34.6132C85.6564 35.7028 86.1259 36.8324 86.521 37.9964ZM81.0519 28.5382L79.1729 30.1873C78.4383 29.3503 77.6497 28.5617 76.8127 27.8271L78.4618 25.9481C79.3804 26.7543 80.2457 27.6196 81.0519 28.5382ZM72.3868 21.8819L71.2794 24.1233C70.2875 23.6332 69.2594 23.2059 68.2002 22.8464L69.0036 20.479C70.1676 20.8741 71.2972 21.3436 72.3868 21.8819ZM61.833 19.059L61.6718 21.5538C61.1195 21.5181 60.562 21.5 60 21.5C59.438 21.5 58.8805 21.5181 58.3282 21.5538L58.167 19.059C58.7729 19.0199 59.3841 19 60 19C60.6159 19 61.2271 19.0199 61.833 19.059ZM50.9964 20.479L51.7998 22.8464C50.7406 23.2059 49.7125 23.6332 48.7206 24.1233L47.6132 21.8819C48.7028 21.3436 49.8324 20.8741 50.9964 20.479ZM41.5382 25.9481L43.1873 27.8271C42.3503 28.5617 41.5617 29.3503 40.8271 30.1873L38.9481 28.5382C39.7543 27.6196 40.6196 26.7543 41.5382 25.9481ZM34.8819 34.6132L37.1233 35.7206C36.6332 36.7125 36.2059 37.7406 35.8464 38.7998L33.479 37.9964C33.8741 36.8324 34.3436 35.7028 34.8819 34.6132ZM32.059 45.167C32.0199 45.7729 32 46.3841 32 47C32 47.6159 32.0199 48.2271 32.059 48.833L34.5538 48.6718C34.5181 48.1195 34.5 47.562 34.5 47C34.5 46.438 34.5181 45.8805 34.5538 45.3282L32.059 45.167Z" fill="white"/>
</svg>
