<?xml version="1.0" encoding="utf-8"?>
<svg width="120" height="120" viewBox="0 0 120 120" fill="none" xmlns="http://www.w3.org/2000/svg">
  <rect x="2.5" y="2.5" width="115" height="115" rx="10.5" stroke-width="5" style="fill: rgb(41, 54, 130); stroke: rgb(84, 212, 153);"/>
  <path d="M41.61 102H40.308V93.15H42.972C43.652 93.15 44.222 93.278 44.682 93.534C45.146 93.79 45.494 94.136 45.726 94.572C45.962 95.004 46.08 95.488 46.08 96.024C46.08 96.56 45.96 97.054 45.72 97.506C45.484 97.954 45.134 98.314 44.67 98.586C44.206 98.858 43.64 98.994 42.972 98.994H41.61V102ZM41.61 98.55L41.022 97.914H42.822C43.246 97.914 43.602 97.838 43.89 97.686C44.182 97.53 44.402 97.31 44.55 97.026C44.698 96.742 44.772 96.408 44.772 96.024C44.772 95.64 44.7 95.314 44.556 95.046C44.412 94.778 44.196 94.576 43.908 94.44C43.62 94.3 43.258 94.23 42.822 94.23H41.022L41.61 93.546V98.55ZM47.5738 99.27V98.256H52.2658L52.0858 98.556C52.0858 98.532 52.0858 98.508 52.0858 98.484C52.0858 98.456 52.0858 98.432 52.0858 98.412C52.0858 98.088 52.0158 97.79 51.8758 97.518C51.7358 97.242 51.5258 97.022 51.2458 96.858C50.9698 96.69 50.6238 96.606 50.2078 96.606C49.7918 96.606 49.4258 96.696 49.1098 96.876C48.7978 97.052 48.5538 97.304 48.3778 97.632C48.2058 97.956 48.1198 98.346 48.1198 98.802C48.1198 99.266 48.2038 99.666 48.3718 100.002C48.5398 100.334 48.7818 100.59 49.0978 100.77C49.4138 100.95 49.7918 101.04 50.2318 101.04C50.5398 101.04 50.8058 101.01 51.0298 100.95C51.2578 100.886 51.4438 100.802 51.5878 100.698C51.7358 100.594 51.8478 100.482 51.9238 100.362C51.9998 100.238 52.0438 100.116 52.0558 99.996H53.3518C53.3278 100.256 53.2418 100.514 53.0938 100.77C52.9498 101.022 52.7438 101.252 52.4758 101.46C52.2118 101.664 51.8878 101.828 51.5038 101.952C51.1238 102.072 50.6858 102.132 50.1898 102.132C49.5258 102.132 48.9438 101.992 48.4438 101.712C47.9438 101.432 47.5538 101.044 47.2738 100.548C46.9938 100.048 46.8538 99.476 46.8538 98.832C46.8538 98.176 46.9958 97.6 47.2798 97.104C47.5638 96.608 47.9578 96.222 48.4618 95.946C48.9658 95.666 49.5438 95.526 50.1958 95.526C50.8598 95.526 51.4338 95.666 51.9178 95.946C52.4058 96.226 52.7818 96.612 53.0458 97.104C53.3098 97.596 53.4418 98.162 53.4418 98.802C53.4418 98.878 53.4398 98.966 53.4358 99.066C53.4318 99.166 53.4258 99.234 53.4178 99.27H47.5738ZM57.971 102.12C57.315 102.12 56.735 101.978 56.231 101.694C55.731 101.41 55.339 101.02 55.055 100.524C54.775 100.024 54.635 99.452 54.635 98.808C54.635 98.168 54.775 97.602 55.055 97.11C55.339 96.614 55.731 96.228 56.231 95.952C56.735 95.672 57.315 95.532 57.971 95.532C58.627 95.532 59.205 95.672 59.705 95.952C60.209 96.228 60.601 96.614 60.881 97.11C61.165 97.602 61.307 98.168 61.307 98.808C61.307 99.452 61.165 100.024 60.881 100.524C60.601 101.02 60.209 101.41 59.705 101.694C59.205 101.978 58.627 102.12 57.971 102.12ZM57.971 101.004C58.371 101.004 58.723 100.914 59.027 100.734C59.331 100.554 59.569 100.3 59.741 99.972C59.913 99.64 59.999 99.252 59.999 98.808C59.999 98.368 59.913 97.986 59.741 97.662C59.569 97.338 59.331 97.088 59.027 96.912C58.723 96.736 58.371 96.648 57.971 96.648C57.575 96.648 57.223 96.736 56.915 96.912C56.611 97.088 56.373 97.338 56.201 97.662C56.029 97.986 55.943 98.368 55.943 98.808C55.943 99.252 56.029 99.64 56.201 99.972C56.373 100.3 56.611 100.554 56.915 100.734C57.223 100.914 57.575 101.004 57.971 101.004ZM62.7563 104.622V95.628H64.0583V104.622H62.7563ZM66.1103 102.126C65.6143 102.126 65.1543 102.002 64.7303 101.754C64.3063 101.502 63.9623 101.158 63.6983 100.722C63.4383 100.286 63.3083 99.792 63.3083 99.24C63.3083 99.224 63.3083 99.212 63.3083 99.204C63.3083 99.192 63.3083 99.18 63.3083 99.168L64.0643 99.15C64.0643 99.158 64.0643 99.168 64.0643 99.18C64.0643 99.188 64.0643 99.198 64.0643 99.21C64.0643 99.538 64.1483 99.834 64.3163 100.098C64.4883 100.358 64.7103 100.564 64.9823 100.716C65.2543 100.868 65.5463 100.944 65.8583 100.944C66.3703 100.944 66.8003 100.77 67.1483 100.422C67.5003 100.07 67.6763 99.53 67.6763 98.802C67.6763 98.07 67.5023 97.532 67.1543 97.188C66.8063 96.84 66.3743 96.666 65.8583 96.666C65.5463 96.666 65.2543 96.742 64.9823 96.894C64.7103 97.042 64.4883 97.246 64.3163 97.506C64.1483 97.762 64.0643 98.056 64.0643 98.388L63.3083 98.358C63.3083 97.802 63.4383 97.312 63.6983 96.888C63.9623 96.46 64.3063 96.126 64.7303 95.886C65.1543 95.646 65.6143 95.526 66.1103 95.526C66.6263 95.526 67.1043 95.654 67.5443 95.91C67.9843 96.162 68.3383 96.532 68.6063 97.02C68.8783 97.508 69.0143 98.102 69.0143 98.802C69.0143 99.518 68.8823 100.124 68.6183 100.62C68.3543 101.116 68.0023 101.492 67.5623 101.748C67.1223 102 66.6383 102.126 66.1103 102.126ZM71.8295 92.622V102H70.5455V92.622H71.8295ZM74.0347 99.27V98.256H78.7267L78.5467 98.556C78.5467 98.532 78.5467 98.508 78.5467 98.484C78.5467 98.456 78.5467 98.432 78.5467 98.412C78.5467 98.088 78.4767 97.79 78.3367 97.518C78.1967 97.242 77.9867 97.022 77.7067 96.858C77.4307 96.69 77.0847 96.606 76.6687 96.606C76.2527 96.606 75.8867 96.696 75.5707 96.876C75.2587 97.052 75.0147 97.304 74.8387 97.632C74.6667 97.956 74.5807 98.346 74.5807 98.802C74.5807 99.266 74.6647 99.666 74.8327 100.002C75.0007 100.334 75.2427 100.59 75.5587 100.77C75.8747 100.95 76.2527 101.04 76.6927 101.04C77.0007 101.04 77.2667 101.01 77.4907 100.95C77.7187 100.886 77.9047 100.802 78.0487 100.698C78.1967 100.594 78.3087 100.482 78.3847 100.362C78.4607 100.238 78.5047 100.116 78.5167 99.996H79.8127C79.7887 100.256 79.7027 100.514 79.5547 100.77C79.4107 101.022 79.2047 101.252 78.9367 101.46C78.6727 101.664 78.3487 101.828 77.9647 101.952C77.5847 102.072 77.1467 102.132 76.6507 102.132C75.9867 102.132 75.4047 101.992 74.9047 101.712C74.4047 101.432 74.0147 101.044 73.7347 100.548C73.4547 100.048 73.3147 99.476 73.3147 98.832C73.3147 98.176 73.4567 97.6 73.7407 97.104C74.0247 96.608 74.4187 96.222 74.9227 95.946C75.4267 95.666 76.0047 95.526 76.6567 95.526C77.3207 95.526 77.8947 95.666 78.3787 95.946C78.8667 96.226 79.2427 96.612 79.5067 97.104C79.7707 97.596 79.9027 98.162 79.9027 98.802C79.9027 98.878 79.9007 98.966 79.8967 99.066C79.8927 99.166 79.8867 99.234 79.8787 99.27H74.0347Z" style="fill: rgb(255, 255, 255);"/>
  <path d="M37.5682 38.1136C34.368 38.1136 33.3409 39.2689 33.3409 42.8691C33.3409 45.6879 34.8225 48.6818 37.5682 48.6818C40.3139 48.6818 41.7955 45.6879 41.7955 42.8691C41.7955 39.2689 40.7681 38.1136 37.5682 38.1136ZM37.5682 50.7955C33.9537 50.7955 31.2273 47.3883 31.2273 42.8691C31.2273 39.6713 31.9479 36 37.5682 36C43.1884 36 43.9091 39.6713 43.9091 42.8691C43.9091 47.3883 41.1823 50.7955 37.5682 50.7955Z" style="fill: rgb(255, 255, 255);"/>
  <path d="M44.9659 59.25H30.1705C28.4522 59.25 27 57.3149 27 55.0227V52.3437L33.811 47.8026L34.9841 49.5611L29.1136 53.4745V55.0227C29.1136 56.3163 29.8566 57.1364 30.1705 57.1364H44.9659C45.2797 57.1364 46.0227 56.3163 46.0227 55.0227V53.4745L40.1519 49.5611L41.325 47.8026L48.1364 52.3437V55.0227C48.1364 57.3149 46.6842 59.25 44.9659 59.25Z" style="fill: rgb(255, 255, 255);"/>
  <path d="M81.5682 38.1136C78.368 38.1136 77.3409 39.2689 77.3409 42.8691C77.3409 45.6879 78.8225 48.6818 81.5682 48.6818C84.3139 48.6818 85.7955 45.6879 85.7955 42.8691C85.7955 39.2689 84.7681 38.1136 81.5682 38.1136ZM81.5682 50.7955C77.9537 50.7955 75.2273 47.3883 75.2273 42.8691C75.2273 39.6713 75.9479 36 81.5682 36C87.1884 36 87.9091 39.6713 87.9091 42.8691C87.9091 47.3883 85.1823 50.7955 81.5682 50.7955Z" style="fill: rgb(255, 255, 255);"/>
  <path d="M88.9659 59.25H74.1705C72.4522 59.25 71 57.3149 71 55.0227V52.3437L77.811 47.8026L78.9841 49.5611L73.1136 53.4745V55.0227C73.1136 56.3163 73.8566 57.1364 74.1705 57.1364H88.9659C89.2797 57.1364 90.0227 56.3163 90.0227 55.0227V53.4745L84.1519 49.5611L85.325 47.8026L92.1364 52.3437V55.0227C92.1364 57.3149 90.6842 59.25 88.9659 59.25Z" style="fill: rgb(255, 255, 255);"/>
  <path d="M59.5682 51.1136C56.368 51.1136 55.3409 52.2689 55.3409 55.8691C55.3409 58.6879 56.8225 61.6818 59.5682 61.6818C62.3139 61.6818 63.7955 58.6879 63.7955 55.8691C63.7955 52.2689 62.7681 51.1136 59.5682 51.1136ZM59.5682 63.7955C55.9537 63.7955 53.2273 60.3883 53.2273 55.8691C53.2273 52.6713 53.9479 49 59.5682 49C65.1884 49 65.9091 52.6713 65.9091 55.8691C65.9091 60.3883 63.1823 63.7955 59.5682 63.7955Z" style="fill: rgb(255, 255, 255);"/>
  <path d="M66.9659 72.25H52.1705C50.4522 72.25 49 70.3149 49 68.0227V65.3437L55.811 60.8026L56.9841 62.5611L51.1136 66.4745V68.0227C51.1136 69.3163 51.8566 70.1364 52.1705 70.1364H66.9659C67.2797 70.1364 68.0227 69.3163 68.0227 68.0227V66.4745L62.1519 62.5611L63.325 60.8026L70.1364 65.3437V68.0227C70.1364 70.3149 68.6842 72.25 66.9659 72.25Z" style="fill: rgb(255, 255, 255);"/>
  <path d="M59.5682 23.1136C56.368 23.1136 55.3409 24.2689 55.3409 27.8691C55.3409 30.6879 56.8225 33.6818 59.5682 33.6818C62.3139 33.6818 63.7955 30.6879 63.7955 27.8691C63.7955 24.2689 62.7681 23.1136 59.5682 23.1136ZM59.5682 35.7955C55.9537 35.7955 53.2273 32.3883 53.2273 27.8691C53.2273 24.6713 53.9479 21 59.5682 21C65.1884 21 65.9091 24.6713 65.9091 27.8691C65.9091 32.3883 63.1823 35.7955 59.5682 35.7955Z" style="fill: rgb(255, 255, 255);"/>
  <path d="M66.9659 44.25H52.1705C50.4522 44.25 49 42.3149 49 40.0227V37.3437L55.811 32.8026L56.9841 34.5611L51.1136 38.4745V40.0227C51.1136 41.3163 51.8566 42.1364 52.1705 42.1364H66.9659C67.2797 42.1364 68.0227 41.3163 68.0227 40.0227V38.4745L62.1519 34.5611L63.325 32.8026L70.1364 37.3437V40.0227C70.1364 42.3149 68.6842 44.25 66.9659 44.25Z" style="fill: rgb(255, 255, 255);"/>
</svg>