<?xml version="1.0" encoding="utf-8"?>
<svg width="120" height="120" viewBox="0 0 120 120" fill="none" xmlns="http://www.w3.org/2000/svg">
  <rect x="2.5" y="2.5" width="115" height="115" rx="10.5" stroke-width="5" style="fill: rgb(41, 54, 130); stroke: rgb(84, 212, 153);"/>
  <path d="M32.4768 88.126C31.8528 88.126 31.3148 88.028 30.8628 87.832C30.4148 87.636 30.0668 87.34 29.8188 86.944C29.5748 86.544 29.4528 86.05 29.4528 85.462C29.4528 85.386 29.4528 85.32 29.4528 85.264C29.4528 85.208 29.4528 85.144 29.4528 85.072H30.7548C30.7548 85.14 30.7548 85.2 30.7548 85.252C30.7548 85.3 30.7548 85.362 30.7548 85.438C30.7548 85.982 30.9008 86.382 31.1928 86.638C31.4848 86.89 31.9108 87.016 32.4708 87.016C33.0428 87.016 33.4788 86.92 33.7788 86.728C34.0788 86.532 34.2288 86.218 34.2288 85.786C34.2288 85.478 34.1348 85.22 33.9468 85.012C33.7628 84.8 33.5068 84.618 33.1788 84.466C32.8548 84.314 32.4808 84.172 32.0568 84.04C31.5808 83.892 31.1508 83.704 30.7668 83.476C30.3828 83.244 30.0768 82.956 29.8488 82.612C29.6248 82.264 29.5128 81.84 29.5128 81.34C29.5128 80.848 29.6368 80.43 29.8848 80.086C30.1328 79.742 30.4768 79.482 30.9168 79.306C31.3568 79.126 31.8608 79.036 32.4288 79.036C33.0328 79.036 33.5588 79.13 34.0068 79.318C34.4588 79.502 34.8088 79.782 35.0568 80.158C35.3088 80.53 35.4348 81 35.4348 81.568C35.4348 81.648 35.4348 81.718 35.4348 81.778C35.4348 81.834 35.4348 81.904 35.4348 81.988H34.1268C34.1268 81.92 34.1268 81.858 34.1268 81.802C34.1268 81.746 34.1268 81.686 34.1268 81.622C34.1268 81.102 33.9848 80.726 33.7008 80.494C33.4208 80.262 33.0048 80.146 32.4528 80.146C31.9168 80.146 31.5028 80.24 31.2108 80.428C30.9228 80.616 30.7788 80.92 30.7788 81.34C30.7788 81.652 30.8708 81.912 31.0548 82.12C31.2428 82.328 31.4988 82.506 31.8228 82.654C32.1508 82.802 32.5228 82.946 32.9388 83.086C33.4668 83.262 33.9208 83.46 34.3008 83.68C34.6848 83.9 34.9808 84.174 35.1888 84.502C35.3968 84.83 35.5008 85.244 35.5008 85.744C35.5008 86.248 35.3768 86.678 35.1288 87.034C34.8808 87.39 34.5308 87.662 34.0788 87.85C33.6268 88.034 33.0928 88.126 32.4768 88.126ZM39.6424 88.108C39.4304 88.108 39.2184 88.086 39.0064 88.042C38.7984 87.998 38.6064 87.918 38.4304 87.802C38.2584 87.682 38.1204 87.512 38.0164 87.292C37.9124 87.072 37.8604 86.784 37.8604 86.428C37.8604 86.344 37.8604 86.256 37.8604 86.164C37.8604 86.072 37.8604 85.978 37.8604 85.882V82.708H36.3304V81.628H37.1344C37.3064 81.628 37.4404 81.622 37.5364 81.61C37.6364 81.594 37.7084 81.56 37.7524 81.508C37.8004 81.452 37.8304 81.364 37.8424 81.244C37.8544 81.124 37.8604 80.96 37.8604 80.752V79.522H39.1624V81.628H41.1124V82.708H39.1624V85.534C39.1624 85.614 39.1624 85.694 39.1624 85.774C39.1624 85.854 39.1624 85.928 39.1624 85.996C39.1624 86.316 39.2004 86.568 39.2764 86.752C39.3564 86.936 39.5364 87.028 39.8164 87.028C39.9364 87.028 40.0504 87.018 40.1584 86.998C40.2664 86.978 40.3484 86.956 40.4044 86.932V87.994C40.3324 88.022 40.2304 88.048 40.0984 88.072C39.9664 88.096 39.8144 88.108 39.6424 88.108ZM42.3559 88V81.628H43.6579V83.662L43.3099 83.506C43.3379 83.246 43.4039 82.998 43.5079 82.762C43.6119 82.526 43.7499 82.316 43.9219 82.132C44.0979 81.944 44.3139 81.796 44.5699 81.688C44.8259 81.58 45.1219 81.526 45.4579 81.526C45.7139 81.526 45.9199 81.546 46.0759 81.586C46.2359 81.626 46.3339 81.658 46.3699 81.682L46.0939 82.906C46.0539 82.878 45.9719 82.842 45.8479 82.798C45.7279 82.754 45.5599 82.732 45.3439 82.732C45.0159 82.732 44.7439 82.79 44.5279 82.906C44.3119 83.022 44.1399 83.176 44.0119 83.368C43.8839 83.56 43.7919 83.77 43.7359 83.998C43.6839 84.222 43.6579 84.448 43.6579 84.676V88H42.3559ZM49.5092 88.126C49.0292 88.126 48.6072 88.05 48.2432 87.898C47.8832 87.746 47.6032 87.528 47.4032 87.244C47.2032 86.96 47.1032 86.618 47.1032 86.218C47.1032 85.79 47.2152 85.436 47.4392 85.156C47.6672 84.876 47.9792 84.66 48.3752 84.508C48.7752 84.352 49.2292 84.25 49.7372 84.202C50.4932 84.126 51.0252 84.052 51.3332 83.98C51.6452 83.908 51.8012 83.79 51.8012 83.626C51.8012 83.622 51.8012 83.618 51.8012 83.614C51.8012 83.29 51.6632 83.044 51.3872 82.876C51.1112 82.708 50.7172 82.624 50.2052 82.624C49.6652 82.624 49.2472 82.72 48.9512 82.912C48.6592 83.1 48.5132 83.4 48.5132 83.812H47.2352C47.2352 83.324 47.3612 82.91 47.6132 82.57C47.8692 82.23 48.2212 81.972 48.6692 81.796C49.1172 81.616 49.6312 81.526 50.2112 81.526C50.7432 81.526 51.2272 81.608 51.6632 81.772C52.1032 81.932 52.4532 82.172 52.7132 82.492C52.9732 82.812 53.1032 83.21 53.1032 83.686C53.1032 83.77 53.1032 83.854 53.1032 83.938C53.1032 84.018 53.1032 84.1 53.1032 84.184V86.728C53.1032 86.876 53.1092 87.02 53.1212 87.16C53.1332 87.296 53.1552 87.418 53.1872 87.526C53.2232 87.65 53.2652 87.752 53.3132 87.832C53.3652 87.912 53.4072 87.968 53.4392 88H52.1432C52.1192 87.976 52.0832 87.926 52.0352 87.85C51.9912 87.77 51.9512 87.678 51.9152 87.574C51.8792 87.474 51.8512 87.36 51.8312 87.232C51.8152 87.1 51.8072 86.958 51.8072 86.806L52.0472 86.974C51.9272 87.206 51.7452 87.408 51.5012 87.58C51.2612 87.752 50.9712 87.886 50.6312 87.982C50.2952 88.078 49.9212 88.126 49.5092 88.126ZM49.7792 87.046C50.1512 87.046 50.4892 86.988 50.7932 86.872C51.1012 86.752 51.3472 86.572 51.5312 86.332C51.7152 86.088 51.8072 85.782 51.8072 85.414V84.358L52.1132 84.76C51.8572 84.86 51.5432 84.942 51.1712 85.006C50.8032 85.066 50.4232 85.116 50.0312 85.156C49.4912 85.204 49.0852 85.298 48.8132 85.438C48.5412 85.574 48.4052 85.802 48.4052 86.122C48.4052 86.43 48.5172 86.662 48.7412 86.818C48.9692 86.97 49.3152 87.046 49.7792 87.046ZM57.244 88.108C57.032 88.108 56.82 88.086 56.608 88.042C56.4 87.998 56.208 87.918 56.032 87.802C55.86 87.682 55.722 87.512 55.618 87.292C55.514 87.072 55.462 86.784 55.462 86.428C55.462 86.344 55.462 86.256 55.462 86.164C55.462 86.072 55.462 85.978 55.462 85.882V82.708H53.932V81.628H54.736C54.908 81.628 55.042 81.622 55.138 81.61C55.238 81.594 55.31 81.56 55.354 81.508C55.402 81.452 55.432 81.364 55.444 81.244C55.456 81.124 55.462 80.96 55.462 80.752V79.522H56.764V81.628H58.714V82.708H56.764V85.534C56.764 85.614 56.764 85.694 56.764 85.774C56.764 85.854 56.764 85.928 56.764 85.996C56.764 86.316 56.802 86.568 56.878 86.752C56.958 86.936 57.138 87.028 57.418 87.028C57.538 87.028 57.652 87.018 57.76 86.998C57.868 86.978 57.95 86.956 58.006 86.932V87.994C57.934 88.022 57.832 88.048 57.7 88.072C57.568 88.096 57.416 88.108 57.244 88.108ZM60.232 85.27V84.256H64.924L64.744 84.556C64.744 84.532 64.744 84.508 64.744 84.484C64.744 84.456 64.744 84.432 64.744 84.412C64.744 84.088 64.674 83.79 64.534 83.518C64.394 83.242 64.184 83.022 63.904 82.858C63.628 82.69 63.282 82.606 62.866 82.606C62.45 82.606 62.084 82.696 61.768 82.876C61.456 83.052 61.212 83.304 61.036 83.632C60.864 83.956 60.778 84.346 60.778 84.802C60.778 85.266 60.862 85.666 61.03 86.002C61.198 86.334 61.44 86.59 61.756 86.77C62.072 86.95 62.45 87.04 62.89 87.04C63.198 87.04 63.464 87.01 63.688 86.95C63.916 86.886 64.102 86.802 64.246 86.698C64.394 86.594 64.506 86.482 64.582 86.362C64.658 86.238 64.702 86.116 64.714 85.996H66.01C65.986 86.256 65.9 86.514 65.752 86.77C65.608 87.022 65.402 87.252 65.134 87.46C64.87 87.664 64.546 87.828 64.162 87.952C63.782 88.072 63.344 88.132 62.848 88.132C62.184 88.132 61.602 87.992 61.102 87.712C60.602 87.432 60.212 87.044 59.932 86.548C59.652 86.048 59.512 85.476 59.512 84.832C59.512 84.176 59.654 83.6 59.938 83.104C60.222 82.608 60.616 82.222 61.12 81.946C61.624 81.666 62.202 81.526 62.854 81.526C63.518 81.526 64.092 81.666 64.576 81.946C65.064 82.226 65.44 82.612 65.704 83.104C65.968 83.596 66.1 84.162 66.1 84.802C66.1 84.878 66.098 84.966 66.094 85.066C66.09 85.166 66.084 85.234 66.076 85.27H60.232ZM71.7332 87.49C72.0932 87.522 72.4092 87.59 72.6812 87.694C72.9532 87.794 73.1652 87.942 73.3172 88.138C73.4732 88.338 73.5512 88.6 73.5512 88.924C73.5512 89.288 73.4272 89.604 73.1792 89.872C72.9352 90.144 72.5692 90.354 72.0812 90.502C71.5932 90.654 70.9872 90.73 70.2632 90.73C69.2272 90.73 68.4372 90.58 67.8932 90.28C67.3492 89.98 67.0772 89.572 67.0772 89.056C67.0772 88.9 67.0952 88.762 67.1312 88.642C67.1672 88.522 67.2112 88.422 67.2632 88.342L68.4752 88.522C68.4472 88.562 68.4192 88.62 68.3912 88.696C68.3632 88.776 68.3492 88.872 68.3492 88.984C68.3492 89.268 68.5232 89.47 68.8712 89.59C69.2192 89.71 69.7012 89.77 70.3172 89.77C70.7692 89.77 71.1432 89.738 71.4392 89.674C71.7392 89.614 71.9632 89.526 72.1112 89.41C72.2592 89.294 72.3332 89.158 72.3332 89.002C72.3332 88.766 72.2312 88.618 72.0272 88.558C71.8232 88.498 71.5772 88.456 71.2892 88.432L68.8712 88.234C68.4512 88.198 68.1072 88.072 67.8392 87.856C67.5752 87.64 67.4432 87.368 67.4432 87.04C67.4432 86.836 67.4952 86.646 67.5992 86.47C67.7032 86.294 67.8232 86.146 67.9592 86.026C68.0992 85.906 68.2192 85.832 68.3192 85.804L69.1712 86.212C69.0792 86.224 68.9672 86.286 68.8352 86.398C68.7072 86.506 68.6432 86.634 68.6432 86.782C68.6432 86.918 68.6992 87.03 68.8112 87.118C68.9272 87.206 69.1512 87.264 69.4832 87.292L71.7332 87.49ZM72.5312 81.628H73.7132L73.2272 84.118C73.1392 84.582 72.9772 85.002 72.7412 85.378C72.5092 85.75 72.1932 86.044 71.7932 86.26C71.3972 86.476 70.9032 86.584 70.3112 86.584C69.6952 86.584 69.1652 86.478 68.7212 86.266C68.2772 86.054 67.9352 85.76 67.6952 85.384C67.4592 85.004 67.3412 84.572 67.3412 84.088C67.3412 83.596 67.4632 83.156 67.7072 82.768C67.9552 82.38 68.2952 82.076 68.7272 81.856C69.1632 81.636 69.6612 81.526 70.2212 81.526C70.6932 81.526 71.1112 81.606 71.4752 81.766C71.8432 81.926 72.1352 82.13 72.3512 82.378C72.5672 82.626 72.6852 82.884 72.7052 83.152L72.3332 83.194L72.5312 81.628ZM70.3052 85.522C70.6532 85.522 70.9532 85.466 71.2052 85.354C71.4572 85.238 71.6512 85.072 71.7872 84.856C71.9232 84.636 71.9912 84.372 71.9912 84.064C71.9912 83.76 71.9232 83.5 71.7872 83.284C71.6512 83.064 71.4572 82.896 71.2052 82.78C70.9532 82.66 70.6552 82.6 70.3112 82.6C69.9792 82.6 69.6852 82.662 69.4292 82.786C69.1772 82.906 68.9792 83.076 68.8352 83.296C68.6912 83.516 68.6192 83.778 68.6192 84.082C68.6192 84.386 68.6872 84.646 68.8232 84.862C68.9592 85.074 69.1532 85.238 69.4052 85.354C69.6572 85.466 69.9572 85.522 70.3052 85.522ZM75.2518 90.712C75.0798 90.712 74.9218 90.702 74.7778 90.682C74.6378 90.666 74.5518 90.65 74.5198 90.634V89.572C74.5718 89.596 74.6578 89.616 74.7778 89.632C74.9018 89.648 75.0298 89.656 75.1618 89.656C75.3978 89.656 75.5998 89.608 75.7678 89.512C75.9398 89.416 76.0838 89.282 76.1998 89.11C76.3198 88.942 76.4158 88.75 76.4878 88.534L76.6498 88.054L74.4538 81.628H75.8098L77.4478 87.028H77.2798L78.8758 81.628H80.2138L77.9278 88.468C77.7878 88.896 77.6158 89.278 77.4118 89.614C77.2078 89.954 76.9358 90.222 76.5958 90.418C76.2558 90.614 75.8078 90.712 75.2518 90.712ZM87.0259 88.12C86.4459 88.12 85.9259 88.03 85.4659 87.85C85.0099 87.67 84.6479 87.408 84.3799 87.064C84.1159 86.716 83.9839 86.298 83.9839 85.81C83.9839 85.386 84.0939 85.01 84.3139 84.682C84.5339 84.35 84.8479 84.036 85.2559 83.74C85.6679 83.44 86.1579 83.132 86.7259 82.816C87.2619 82.516 87.6579 82.212 87.9139 81.904C88.1699 81.596 88.2979 81.268 88.2979 80.92C88.2979 80.696 88.2479 80.512 88.1479 80.368C88.0519 80.22 87.9239 80.11 87.7639 80.038C87.6079 79.966 87.4379 79.93 87.2539 79.93C87.0779 79.93 86.9039 79.966 86.7319 80.038C86.5639 80.106 86.4259 80.214 86.3179 80.362C86.2139 80.506 86.1619 80.69 86.1619 80.914C86.1619 81.206 86.2499 81.504 86.4259 81.808C86.6059 82.112 86.8479 82.458 87.1519 82.846L90.2599 86.716C90.4079 86.9 90.5399 87.018 90.6559 87.07C90.7719 87.122 90.8699 87.148 90.9499 87.148C91.0259 87.148 91.0999 87.14 91.1719 87.124C91.2479 87.108 91.2999 87.092 91.3279 87.076V87.994C91.3119 88.002 91.2539 88.018 91.1539 88.042C91.0539 88.07 90.9259 88.084 90.7699 88.084C90.5899 88.084 90.3979 88.04 90.1939 87.952C89.9939 87.86 89.8059 87.708 89.6299 87.496L86.3299 83.422C86.1299 83.17 85.9319 82.908 85.7359 82.636C85.5439 82.364 85.3839 82.08 85.2559 81.784C85.1319 81.488 85.0699 81.178 85.0699 80.854C85.0699 80.506 85.1659 80.198 85.3579 79.93C85.5539 79.658 85.8159 79.446 86.1439 79.294C86.4719 79.142 86.8379 79.066 87.2419 79.066C87.6539 79.066 88.0159 79.142 88.3279 79.294C88.6439 79.442 88.8919 79.65 89.0719 79.918C89.2519 80.186 89.3419 80.498 89.3419 80.854C89.3419 81.238 89.2579 81.588 89.0899 81.904C88.9219 82.216 88.6819 82.508 88.3699 82.78C88.0619 83.048 87.6899 83.306 87.2539 83.554C86.5939 83.934 86.0839 84.286 85.7239 84.61C85.3639 84.934 85.1839 85.314 85.1839 85.75C85.1839 86.03 85.2659 86.278 85.4299 86.494C85.5979 86.71 85.8219 86.88 86.1019 87.004C86.3819 87.124 86.6919 87.184 87.0319 87.184C87.5919 87.184 88.0559 87.104 88.4239 86.944C88.7959 86.784 89.1079 86.572 89.3599 86.308C89.6399 86.008 89.8499 85.662 89.9899 85.27C90.1299 84.874 90.1999 84.43 90.1999 83.938H91.2739C91.2739 84.398 91.2219 84.816 91.1179 85.192C91.0139 85.568 90.8739 85.908 90.6979 86.212C90.5219 86.512 90.3179 86.778 90.0859 87.01C89.7659 87.334 89.3519 87.6 88.8439 87.808C88.3399 88.016 87.7339 88.12 87.0259 88.12ZM28.3722 102.126C27.6962 102.126 27.0822 101.948 26.5302 101.592C25.9822 101.236 25.5442 100.72 25.2162 100.044C24.8922 99.368 24.7302 98.55 24.7302 97.59C24.7302 96.626 24.8962 95.806 25.2282 95.13C25.5642 94.454 26.0162 93.936 26.5842 93.576C27.1562 93.216 27.7962 93.036 28.5042 93.036C29.0842 93.036 29.5742 93.134 29.9742 93.33C30.3782 93.526 30.7062 93.778 30.9582 94.086C31.2142 94.394 31.4002 94.72 31.5162 95.064C31.6322 95.404 31.6902 95.724 31.6902 96.024C31.6902 96.036 31.6902 96.048 31.6902 96.06C31.6902 96.072 31.6902 96.084 31.6902 96.096H30.4242C30.4242 96.084 30.4242 96.072 30.4242 96.06C30.4242 96.048 30.4242 96.036 30.4242 96.024C30.4242 95.8 30.3842 95.578 30.3042 95.358C30.2282 95.134 30.1102 94.932 29.9502 94.752C29.7942 94.572 29.5942 94.428 29.3502 94.32C29.1102 94.212 28.8282 94.158 28.5042 94.158C28.0642 94.158 27.6582 94.28 27.2862 94.524C26.9142 94.764 26.6142 95.138 26.3862 95.646C26.1582 96.15 26.0442 96.798 26.0442 97.59C26.0442 98.194 26.1062 98.714 26.2302 99.15C26.3582 99.582 26.5322 99.936 26.7522 100.212C26.9722 100.484 27.2262 100.686 27.5142 100.818C27.8022 100.95 28.1102 101.016 28.4382 101.016C28.8782 101.016 29.2402 100.942 29.5242 100.794C29.8122 100.642 30.0342 100.454 30.1902 100.23C30.3502 100.006 30.4522 99.784 30.4962 99.564V98.754H28.4682V97.734H31.6662V102H30.8322L30.7362 101.016C30.7042 101.084 30.6382 101.178 30.5382 101.298C30.4382 101.418 30.2942 101.542 30.1062 101.67C29.9222 101.798 29.6862 101.906 29.3982 101.994C29.1142 102.082 28.7722 102.126 28.3722 102.126ZM36.4339 102.12C35.7779 102.12 35.1979 101.978 34.6939 101.694C34.1939 101.41 33.8019 101.02 33.5179 100.524C33.2379 100.024 33.0979 99.452 33.0979 98.808C33.0979 98.168 33.2379 97.602 33.5179 97.11C33.8019 96.614 34.1939 96.228 34.6939 95.952C35.1979 95.672 35.7779 95.532 36.4339 95.532C37.0899 95.532 37.6679 95.672 38.1679 95.952C38.6719 96.228 39.0639 96.614 39.3439 97.11C39.6279 97.602 39.7699 98.168 39.7699 98.808C39.7699 99.452 39.6279 100.024 39.3439 100.524C39.0639 101.02 38.6719 101.41 38.1679 101.694C37.6679 101.978 37.0899 102.12 36.4339 102.12ZM36.4339 101.004C36.8339 101.004 37.1859 100.914 37.4899 100.734C37.7939 100.554 38.0319 100.3 38.2039 99.972C38.3759 99.64 38.4619 99.252 38.4619 98.808C38.4619 98.368 38.3759 97.986 38.2039 97.662C38.0319 97.338 37.7939 97.088 37.4899 96.912C37.1859 96.736 36.8339 96.648 36.4339 96.648C36.0379 96.648 35.6859 96.736 35.3779 96.912C35.0739 97.088 34.8359 97.338 34.6639 97.662C34.4919 97.986 34.4059 98.368 34.4059 98.808C34.4059 99.252 34.4919 99.64 34.6639 99.972C34.8359 100.3 35.0739 100.554 35.3779 100.734C35.6859 100.914 36.0379 101.004 36.4339 101.004ZM46.3425 95.628L44.2785 102H42.5505L40.4325 95.628H41.7765L43.5165 101.454H43.3125L44.9985 95.628H46.3425ZM47.6226 99.27V98.256H52.3146L52.1346 98.556C52.1346 98.532 52.1346 98.508 52.1346 98.484C52.1346 98.456 52.1346 98.432 52.1346 98.412C52.1346 98.088 52.0646 97.79 51.9246 97.518C51.7846 97.242 51.5746 97.022 51.2946 96.858C51.0186 96.69 50.6726 96.606 50.2566 96.606C49.8406 96.606 49.4746 96.696 49.1586 96.876C48.8466 97.052 48.6026 97.304 48.4266 97.632C48.2546 97.956 48.1686 98.346 48.1686 98.802C48.1686 99.266 48.2526 99.666 48.4206 100.002C48.5886 100.334 48.8306 100.59 49.1466 100.77C49.4626 100.95 49.8406 101.04 50.2806 101.04C50.5886 101.04 50.8546 101.01 51.0786 100.95C51.3066 100.886 51.4926 100.802 51.6366 100.698C51.7846 100.594 51.8966 100.482 51.9726 100.362C52.0486 100.238 52.0926 100.116 52.1046 99.996H53.4006C53.3766 100.256 53.2906 100.514 53.1426 100.77C52.9986 101.022 52.7926 101.252 52.5246 101.46C52.2606 101.664 51.9366 101.828 51.5526 101.952C51.1726 102.072 50.7346 102.132 50.2386 102.132C49.5746 102.132 48.9926 101.992 48.4926 101.712C47.9926 101.432 47.6026 101.044 47.3226 100.548C47.0426 100.048 46.9026 99.476 46.9026 98.832C46.9026 98.176 47.0446 97.6 47.3286 97.104C47.6126 96.608 48.0066 96.222 48.5106 95.946C49.0146 95.666 49.5926 95.526 50.2446 95.526C50.9086 95.526 51.4826 95.666 51.9666 95.946C52.4546 96.226 52.8306 96.612 53.0946 97.104C53.3586 97.596 53.4906 98.162 53.4906 98.802C53.4906 98.878 53.4886 98.966 53.4846 99.066C53.4806 99.166 53.4746 99.234 53.4666 99.27H47.6226ZM54.9418 102V95.628H56.2438V97.662L55.8958 97.506C55.9238 97.246 55.9898 96.998 56.0938 96.762C56.1978 96.526 56.3358 96.316 56.5078 96.132C56.6838 95.944 56.8998 95.796 57.1558 95.688C57.4118 95.58 57.7078 95.526 58.0438 95.526C58.2998 95.526 58.5058 95.546 58.6618 95.586C58.8218 95.626 58.9198 95.658 58.9558 95.682L58.6798 96.906C58.6398 96.878 58.5578 96.842 58.4338 96.798C58.3138 96.754 58.1458 96.732 57.9298 96.732C57.6018 96.732 57.3298 96.79 57.1138 96.906C56.8978 97.022 56.7258 97.176 56.5978 97.368C56.4698 97.56 56.3778 97.77 56.3218 97.998C56.2698 98.222 56.2438 98.448 56.2438 98.676V102H54.9418ZM64.5403 102V99.06C64.5403 98.888 64.5403 98.742 64.5403 98.622C64.5403 98.502 64.5403 98.39 64.5403 98.286C64.5403 97.974 64.4923 97.7 64.3963 97.464C64.3003 97.224 64.1423 97.038 63.9223 96.906C63.7023 96.77 63.4083 96.702 63.0403 96.702C62.7163 96.702 62.4223 96.782 62.1583 96.942C61.8983 97.102 61.6903 97.32 61.5343 97.596C61.3823 97.868 61.3063 98.178 61.3063 98.526L60.7483 98.25C60.7483 97.734 60.8703 97.272 61.1143 96.864C61.3583 96.452 61.6843 96.126 62.0923 95.886C62.5043 95.646 62.9543 95.526 63.4423 95.526C63.9463 95.526 64.3763 95.624 64.7323 95.82C65.0923 96.012 65.3663 96.288 65.5543 96.648C65.7463 97.004 65.8423 97.43 65.8423 97.926C65.8423 98.11 65.8423 98.314 65.8423 98.538C65.8423 98.762 65.8423 98.978 65.8423 99.186V102H64.5403ZM60.0043 102V95.628H61.3063V102H60.0043ZM69.6889 102.126C69.2089 102.126 68.7869 102.05 68.4229 101.898C68.0629 101.746 67.7829 101.528 67.5829 101.244C67.3829 100.96 67.2829 100.618 67.2829 100.218C67.2829 99.79 67.3949 99.436 67.6189 99.156C67.8469 98.876 68.1589 98.66 68.5549 98.508C68.9549 98.352 69.4089 98.25 69.9169 98.202C70.6729 98.126 71.2049 98.052 71.5129 97.98C71.8249 97.908 71.9809 97.79 71.9809 97.626C71.9809 97.622 71.9809 97.618 71.9809 97.614C71.9809 97.29 71.8429 97.044 71.5669 96.876C71.2909 96.708 70.8969 96.624 70.3849 96.624C69.8449 96.624 69.4269 96.72 69.1309 96.912C68.8389 97.1 68.6929 97.4 68.6929 97.812H67.4149C67.4149 97.324 67.5409 96.91 67.7929 96.57C68.0489 96.23 68.4009 95.972 68.8489 95.796C69.2969 95.616 69.8109 95.526 70.3909 95.526C70.9229 95.526 71.4069 95.608 71.8429 95.772C72.2829 95.932 72.6329 96.172 72.8929 96.492C73.1529 96.812 73.2829 97.21 73.2829 97.686C73.2829 97.77 73.2829 97.854 73.2829 97.938C73.2829 98.018 73.2829 98.1 73.2829 98.184V100.728C73.2829 100.876 73.2889 101.02 73.3009 101.16C73.3129 101.296 73.3349 101.418 73.3669 101.526C73.4029 101.65 73.4449 101.752 73.4929 101.832C73.5449 101.912 73.5869 101.968 73.6189 102H72.3229C72.2989 101.976 72.2629 101.926 72.2149 101.85C72.1709 101.77 72.1309 101.678 72.0949 101.574C72.0589 101.474 72.0309 101.36 72.0109 101.232C71.9949 101.1 71.9869 100.958 71.9869 100.806L72.2269 100.974C72.1069 101.206 71.9249 101.408 71.6809 101.58C71.4409 101.752 71.1509 101.886 70.8109 101.982C70.4749 102.078 70.1009 102.126 69.6889 102.126ZM69.9589 101.046C70.3309 101.046 70.6689 100.988 70.9729 100.872C71.2809 100.752 71.5269 100.572 71.7109 100.332C71.8949 100.088 71.9869 99.782 71.9869 99.414V98.358L72.2929 98.76C72.0369 98.86 71.7229 98.942 71.3509 99.006C70.9829 99.066 70.6029 99.116 70.2109 99.156C69.6709 99.204 69.2649 99.298 68.9929 99.438C68.7209 99.574 68.5849 99.802 68.5849 100.122C68.5849 100.43 68.6969 100.662 68.9209 100.818C69.1489 100.97 69.4949 101.046 69.9589 101.046ZM79.3997 102V99.06C79.3997 98.888 79.3997 98.742 79.3997 98.622C79.3997 98.502 79.3997 98.39 79.3997 98.286C79.3997 97.974 79.3517 97.7 79.2557 97.464C79.1597 97.224 79.0017 97.038 78.7817 96.906C78.5617 96.77 78.2677 96.702 77.8997 96.702C77.5757 96.702 77.2817 96.782 77.0177 96.942C76.7577 97.102 76.5497 97.32 76.3937 97.596C76.2417 97.868 76.1657 98.178 76.1657 98.526L75.6077 98.25C75.6077 97.734 75.7297 97.272 75.9737 96.864C76.2177 96.452 76.5437 96.126 76.9517 95.886C77.3637 95.646 77.8137 95.526 78.3017 95.526C78.8057 95.526 79.2357 95.624 79.5917 95.82C79.9517 96.012 80.2257 96.288 80.4137 96.648C80.6057 97.004 80.7017 97.43 80.7017 97.926C80.7017 98.11 80.7017 98.314 80.7017 98.538C80.7017 98.762 80.7017 98.978 80.7017 99.186V102H79.3997ZM74.8637 102V95.628H76.1657V102H74.8637ZM85.4303 102.126C84.7903 102.126 84.2163 101.992 83.7083 101.724C83.2043 101.452 82.8063 101.066 82.5143 100.566C82.2263 100.066 82.0823 99.478 82.0823 98.802C82.0823 98.126 82.2263 97.544 82.5143 97.056C82.8063 96.564 83.2043 96.186 83.7083 95.922C84.2163 95.658 84.7903 95.526 85.4303 95.526C85.9143 95.526 86.3443 95.6 86.7203 95.748C87.0963 95.892 87.4143 96.084 87.6743 96.324C87.9343 96.564 88.1323 96.828 88.2683 97.116C88.4043 97.404 88.4723 97.692 88.4723 97.98C88.4723 97.984 88.4723 97.99 88.4723 97.998C88.4723 98.006 88.4723 98.014 88.4723 98.022H87.1823C87.1823 98.002 87.1803 97.98 87.1763 97.956C87.1723 97.928 87.1683 97.902 87.1643 97.878C87.1323 97.642 87.0403 97.432 86.8883 97.248C86.7363 97.064 86.5363 96.918 86.2883 96.81C86.0403 96.702 85.7503 96.648 85.4183 96.648C85.0543 96.648 84.7183 96.728 84.4103 96.888C84.1063 97.044 83.8623 97.282 83.6783 97.602C83.4943 97.922 83.4023 98.322 83.4023 98.802C83.4023 99.282 83.4923 99.686 83.6723 100.014C83.8563 100.338 84.1003 100.584 84.4043 100.752C84.7123 100.92 85.0503 101.004 85.4183 101.004C85.8143 101.004 86.1383 100.944 86.3903 100.824C86.6423 100.7 86.8323 100.536 86.9603 100.332C87.0883 100.124 87.1623 99.9 87.1823 99.66H88.4723C88.4723 99.948 88.4063 100.24 88.2743 100.536C88.1423 100.828 87.9483 101.094 87.6923 101.334C87.4363 101.574 87.1183 101.766 86.7383 101.91C86.3623 102.054 85.9263 102.126 85.4303 102.126ZM90.3726 99.27V98.256H95.0646L94.8846 98.556C94.8846 98.532 94.8846 98.508 94.8846 98.484C94.8846 98.456 94.8846 98.432 94.8846 98.412C94.8846 98.088 94.8146 97.79 94.6746 97.518C94.5346 97.242 94.3246 97.022 94.0446 96.858C93.7686 96.69 93.4226 96.606 93.0066 96.606C92.5906 96.606 92.2246 96.696 91.9086 96.876C91.5966 97.052 91.3526 97.304 91.1766 97.632C91.0046 97.956 90.9186 98.346 90.9186 98.802C90.9186 99.266 91.0026 99.666 91.1706 100.002C91.3386 100.334 91.5806 100.59 91.8966 100.77C92.2126 100.95 92.5906 101.04 93.0306 101.04C93.3386 101.04 93.6046 101.01 93.8286 100.95C94.0566 100.886 94.2426 100.802 94.3866 100.698C94.5346 100.594 94.6466 100.482 94.7226 100.362C94.7986 100.238 94.8426 100.116 94.8546 99.996H96.1506C96.1266 100.256 96.0406 100.514 95.8926 100.77C95.7486 101.022 95.5426 101.252 95.2746 101.46C95.0106 101.664 94.6866 101.828 94.3026 101.952C93.9226 102.072 93.4846 102.132 92.9886 102.132C92.3246 102.132 91.7426 101.992 91.2426 101.712C90.7426 101.432 90.3526 101.044 90.0726 100.548C89.7926 100.048 89.6526 99.476 89.6526 98.832C89.6526 98.176 89.7946 97.6 90.0786 97.104C90.3626 96.608 90.7566 96.222 91.2606 95.946C91.7646 95.666 92.3426 95.526 92.9946 95.526C93.6586 95.526 94.2326 95.666 94.7166 95.946C95.2046 96.226 95.5806 96.612 95.8446 97.104C96.1086 97.596 96.2406 98.162 96.2406 98.802C96.2406 98.878 96.2386 98.966 96.2346 99.066C96.2306 99.166 96.2246 99.234 96.2166 99.27H90.3726Z" style="fill: rgb(255, 255, 255);"/>
  <path d="M77.2679 62.8453L78.8453 61.2679L68.5925 51.015L67.0152 52.5924L77.2679 62.8453ZM82 61.2679L77.2679 66L63.8604 52.5924L68.5925 47.8602L82 61.2679Z" style="fill: rgb(255, 255, 255);"/>
  <path d="M67.8033 50.2263L66.226 51.8036L62.2826 47.8602L63.0713 47.0715C68.2899 41.8528 68.2899 33.3618 63.072 28.1439C57.8534 22.9252 49.3624 22.9252 44.1438 28.1439C38.9251 33.3626 38.9251 41.8536 44.1438 47.0723C47.9761 50.9047 53.6922 52.0497 58.7059 49.9873L59.5546 52.0505C53.7056 54.4561 47.0375 53.1208 42.5664 48.6497C36.4779 42.561 36.4779 32.6551 42.5664 26.5665C48.655 20.4778 58.5608 20.4778 64.6494 26.5665C70.4714 32.3886 70.7246 41.7052 65.4098 47.8327L67.8033 50.2263Z" style="fill: rgb(255, 255, 255);"/>
  <path d="M47.2983 31.2984C43.8192 34.7774 43.8192 40.4383 47.2983 43.9173C50.777 47.3961 56.4381 47.3964 59.9171 43.9173C63.3958 40.4385 63.3958 34.7771 59.9171 31.2984C56.4381 27.8193 50.777 27.8196 47.2983 31.2984ZM61.4944 45.4947C57.1457 49.8434 50.0696 49.8434 45.7209 45.4947C41.372 41.1457 41.3722 34.0697 45.7209 29.721C50.0696 25.3722 57.1455 25.372 61.4944 29.721C65.8431 34.0697 65.8431 41.1459 61.4944 45.4947Z" style="fill: rgb(255, 255, 255);"/>
</svg>