<svg width="120" height="120" viewBox="0 0 120 120" fill="none" xmlns="http://www.w3.org/2000/svg">
<rect x="2.5" y="2.5" width="115" height="115" rx="10.5" fill="#293682" stroke="#54D499" stroke-width="5"/>
<path d="M23.3583 80.23H20.6763L21.0843 79.546V88H19.7823V79.546L20.2323 80.23H17.5143V79.15H23.3583V80.23ZM24.1499 85.27V84.256H28.8419L28.6619 84.556C28.6619 84.532 28.6619 84.508 28.6619 84.484C28.6619 84.456 28.6619 84.432 28.6619 84.412C28.6619 84.088 28.5919 83.79 28.4519 83.518C28.3119 83.242 28.1019 83.022 27.8219 82.858C27.5459 82.69 27.1999 82.606 26.7839 82.606C26.3679 82.606 26.0019 82.696 25.6859 82.876C25.3739 83.052 25.1299 83.304 24.9539 83.632C24.7819 83.956 24.6959 84.346 24.6959 84.802C24.6959 85.266 24.7799 85.666 24.9479 86.002C25.1159 86.334 25.3579 86.59 25.6739 86.77C25.9899 86.95 26.3679 87.04 26.8079 87.04C27.1159 87.04 27.3819 87.01 27.6059 86.95C27.8339 86.886 28.0199 86.802 28.1639 86.698C28.3119 86.594 28.4239 86.482 28.4999 86.362C28.5759 86.238 28.6199 86.116 28.6319 85.996H29.9279C29.9039 86.256 29.8179 86.514 29.6699 86.77C29.5259 87.022 29.3199 87.252 29.0519 87.46C28.7879 87.664 28.4639 87.828 28.0799 87.952C27.6999 88.072 27.2619 88.132 26.7659 88.132C26.1019 88.132 25.5199 87.992 25.0199 87.712C24.5199 87.432 24.1299 87.044 23.8499 86.548C23.5699 86.048 23.4299 85.476 23.4299 84.832C23.4299 84.176 23.5719 83.6 23.8559 83.104C24.1399 82.608 24.5339 82.222 25.0379 81.946C25.5419 81.666 26.1199 81.526 26.7719 81.526C27.4359 81.526 28.0099 81.666 28.4939 81.946C28.9819 82.226 29.3579 82.612 29.6219 83.104C29.8859 83.596 30.0179 84.162 30.0179 84.802C30.0179 84.878 30.0159 84.966 30.0119 85.066C30.0079 85.166 30.0019 85.234 29.9939 85.27H24.1499ZM33.9772 88.126C33.5972 88.126 33.2392 88.084 32.9032 88C32.5672 87.916 32.2712 87.794 32.0152 87.634C31.7632 87.47 31.5652 87.268 31.4212 87.028C31.2812 86.788 31.2112 86.51 31.2112 86.194C31.2112 86.166 31.2112 86.138 31.2112 86.11C31.2112 86.078 31.2112 86.052 31.2112 86.032H32.5072C32.5072 86.052 32.5072 86.07 32.5072 86.086C32.5072 86.102 32.5072 86.124 32.5072 86.152C32.5072 86.444 32.6412 86.666 32.9092 86.818C33.1812 86.966 33.5492 87.04 34.0132 87.04C34.2852 87.04 34.5332 87.012 34.7572 86.956C34.9852 86.9 35.1652 86.814 35.2972 86.698C35.4332 86.582 35.5012 86.434 35.5012 86.254C35.5012 85.962 35.3572 85.754 35.0692 85.63C34.7852 85.506 34.3532 85.396 33.7732 85.3C33.4572 85.244 33.1512 85.172 32.8552 85.084C32.5632 84.996 32.2992 84.88 32.0632 84.736C31.8312 84.588 31.6452 84.406 31.5052 84.19C31.3692 83.97 31.3012 83.706 31.3012 83.398C31.3012 82.998 31.4212 82.658 31.6612 82.378C31.9012 82.098 32.2252 81.886 32.6332 81.742C33.0412 81.598 33.4912 81.526 33.9832 81.526C34.4592 81.526 34.8992 81.604 35.3032 81.76C35.7112 81.912 36.0392 82.134 36.2872 82.426C36.5352 82.714 36.6592 83.068 36.6592 83.488C36.6592 83.504 36.6592 83.522 36.6592 83.542C36.6592 83.562 36.6592 83.58 36.6592 83.596H35.3692C35.3692 83.58 35.3692 83.566 35.3692 83.554C35.3692 83.542 35.3692 83.528 35.3692 83.512C35.3692 83.304 35.3032 83.134 35.1712 83.002C35.0392 82.87 34.8672 82.772 34.6552 82.708C34.4472 82.64 34.2252 82.606 33.9892 82.606C33.7732 82.606 33.5552 82.63 33.3352 82.678C33.1192 82.722 32.9392 82.8 32.7952 82.912C32.6512 83.02 32.5792 83.168 32.5792 83.356C32.5792 83.548 32.6492 83.702 32.7892 83.818C32.9292 83.93 33.1272 84.024 33.3832 84.1C33.6392 84.172 33.9372 84.238 34.2772 84.298C34.5892 84.354 34.8932 84.426 35.1892 84.514C35.4852 84.598 35.7512 84.71 35.9872 84.85C36.2272 84.99 36.4172 85.17 36.5572 85.39C36.7012 85.61 36.7732 85.88 36.7732 86.2C36.7732 86.532 36.6972 86.818 36.5452 87.058C36.3932 87.298 36.1852 87.498 35.9212 87.658C35.6612 87.814 35.3632 87.93 35.0272 88.006C34.6952 88.086 34.3452 88.126 33.9772 88.126ZM40.826 88.108C40.614 88.108 40.402 88.086 40.19 88.042C39.982 87.998 39.79 87.918 39.614 87.802C39.442 87.682 39.304 87.512 39.2 87.292C39.096 87.072 39.044 86.784 39.044 86.428C39.044 86.344 39.044 86.256 39.044 86.164C39.044 86.072 39.044 85.978 39.044 85.882V82.708H37.514V81.628H38.318C38.49 81.628 38.624 81.622 38.72 81.61C38.82 81.594 38.892 81.56 38.936 81.508C38.984 81.452 39.014 81.364 39.026 81.244C39.038 81.124 39.044 80.96 39.044 80.752V79.522H40.346V81.628H42.296V82.708H40.346V85.534C40.346 85.614 40.346 85.694 40.346 85.774C40.346 85.854 40.346 85.928 40.346 85.996C40.346 86.316 40.384 86.568 40.46 86.752C40.54 86.936 40.72 87.028 41 87.028C41.12 87.028 41.234 87.018 41.342 86.998C41.45 86.978 41.532 86.956 41.588 86.932V87.994C41.516 88.022 41.414 88.048 41.282 88.072C41.15 88.096 40.998 88.108 40.826 88.108ZM46.1075 88L48.4715 79.132H50.5175L52.8575 88H51.5195L49.4855 79.954H49.4975L47.4515 88H46.1075ZM47.4755 85.75V84.67H51.5075V85.75H47.4755ZM54.1333 90.622V81.628H55.4353V90.622H54.1333ZM57.4873 88.126C56.9913 88.126 56.5313 88.002 56.1073 87.754C55.6833 87.502 55.3393 87.158 55.0753 86.722C54.8153 86.286 54.6853 85.792 54.6853 85.24C54.6853 85.224 54.6853 85.212 54.6853 85.204C54.6853 85.192 54.6853 85.18 54.6853 85.168L55.4413 85.15C55.4413 85.158 55.4413 85.168 55.4413 85.18C55.4413 85.188 55.4413 85.198 55.4413 85.21C55.4413 85.538 55.5253 85.834 55.6933 86.098C55.8653 86.358 56.0873 86.564 56.3593 86.716C56.6313 86.868 56.9233 86.944 57.2353 86.944C57.7473 86.944 58.1773 86.77 58.5253 86.422C58.8773 86.07 59.0533 85.53 59.0533 84.802C59.0533 84.07 58.8793 83.532 58.5313 83.188C58.1833 82.84 57.7513 82.666 57.2353 82.666C56.9233 82.666 56.6313 82.742 56.3593 82.894C56.0873 83.042 55.8653 83.246 55.6933 83.506C55.5253 83.762 55.4413 84.056 55.4413 84.388L54.6853 84.358C54.6853 83.802 54.8153 83.312 55.0753 82.888C55.3393 82.46 55.6833 82.126 56.1073 81.886C56.5313 81.646 56.9913 81.526 57.4873 81.526C58.0033 81.526 58.4813 81.654 58.9213 81.91C59.3613 82.162 59.7153 82.532 59.9833 83.02C60.2553 83.508 60.3913 84.102 60.3913 84.802C60.3913 85.518 60.2593 86.124 59.9953 86.62C59.7313 87.116 59.3793 87.492 58.9393 87.748C58.4993 88 58.0153 88.126 57.4873 88.126ZM61.8325 90.622V81.628H63.1345V90.622H61.8325ZM65.1865 88.126C64.6905 88.126 64.2305 88.002 63.8065 87.754C63.3825 87.502 63.0385 87.158 62.7745 86.722C62.5145 86.286 62.3845 85.792 62.3845 85.24C62.3845 85.224 62.3845 85.212 62.3845 85.204C62.3845 85.192 62.3845 85.18 62.3845 85.168L63.1405 85.15C63.1405 85.158 63.1405 85.168 63.1405 85.18C63.1405 85.188 63.1405 85.198 63.1405 85.21C63.1405 85.538 63.2245 85.834 63.3925 86.098C63.5645 86.358 63.7865 86.564 64.0585 86.716C64.3305 86.868 64.6225 86.944 64.9345 86.944C65.4465 86.944 65.8765 86.77 66.2245 86.422C66.5765 86.07 66.7525 85.53 66.7525 84.802C66.7525 84.07 66.5785 83.532 66.2305 83.188C65.8825 82.84 65.4505 82.666 64.9345 82.666C64.6225 82.666 64.3305 82.742 64.0585 82.894C63.7865 83.042 63.5645 83.246 63.3925 83.506C63.2245 83.762 63.1405 84.056 63.1405 84.388L62.3845 84.358C62.3845 83.802 62.5145 83.312 62.7745 82.888C63.0385 82.46 63.3825 82.126 63.8065 81.886C64.2305 81.646 64.6905 81.526 65.1865 81.526C65.7025 81.526 66.1805 81.654 66.6205 81.91C67.0605 82.162 67.4145 82.532 67.6825 83.02C67.9545 83.508 68.0905 84.102 68.0905 84.802C68.0905 85.518 67.9585 86.124 67.6945 86.62C67.4305 87.116 67.0785 87.492 66.6385 87.748C66.1985 88 65.7145 88.126 65.1865 88.126ZM69.5317 88V81.628H70.8337V83.662L70.4857 83.506C70.5137 83.246 70.5797 82.998 70.6837 82.762C70.7877 82.526 70.9257 82.316 71.0977 82.132C71.2737 81.944 71.4897 81.796 71.7457 81.688C72.0017 81.58 72.2977 81.526 72.6337 81.526C72.8897 81.526 73.0957 81.546 73.2517 81.586C73.4117 81.626 73.5097 81.658 73.5457 81.682L73.2697 82.906C73.2297 82.878 73.1477 82.842 73.0237 82.798C72.9037 82.754 72.7357 82.732 72.5197 82.732C72.1917 82.732 71.9197 82.79 71.7037 82.906C71.4877 83.022 71.3157 83.176 71.1877 83.368C71.0597 83.56 70.9677 83.77 70.9117 83.998C70.8597 84.222 70.8337 84.448 70.8337 84.676V88H69.5317ZM77.555 88.12C76.899 88.12 76.319 87.978 75.815 87.694C75.315 87.41 74.923 87.02 74.639 86.524C74.359 86.024 74.219 85.452 74.219 84.808C74.219 84.168 74.359 83.602 74.639 83.11C74.923 82.614 75.315 82.228 75.815 81.952C76.319 81.672 76.899 81.532 77.555 81.532C78.211 81.532 78.789 81.672 79.289 81.952C79.793 82.228 80.185 82.614 80.465 83.11C80.749 83.602 80.891 84.168 80.891 84.808C80.891 85.452 80.749 86.024 80.465 86.524C80.185 87.02 79.793 87.41 79.289 87.694C78.789 87.978 78.211 88.12 77.555 88.12ZM77.555 87.004C77.955 87.004 78.307 86.914 78.611 86.734C78.915 86.554 79.153 86.3 79.325 85.972C79.497 85.64 79.583 85.252 79.583 84.808C79.583 84.368 79.497 83.986 79.325 83.662C79.153 83.338 78.915 83.088 78.611 82.912C78.307 82.736 77.955 82.648 77.555 82.648C77.159 82.648 76.807 82.736 76.499 82.912C76.195 83.088 75.957 83.338 75.785 83.662C75.613 83.986 75.527 84.368 75.527 84.808C75.527 85.252 75.613 85.64 75.785 85.972C75.957 86.3 76.195 86.554 76.499 86.734C76.807 86.914 77.159 87.004 77.555 87.004ZM84.5483 88.126C84.0683 88.126 83.6463 88.05 83.2823 87.898C82.9223 87.746 82.6423 87.528 82.4423 87.244C82.2423 86.96 82.1423 86.618 82.1423 86.218C82.1423 85.79 82.2543 85.436 82.4783 85.156C82.7063 84.876 83.0183 84.66 83.4143 84.508C83.8143 84.352 84.2683 84.25 84.7763 84.202C85.5323 84.126 86.0643 84.052 86.3723 83.98C86.6843 83.908 86.8403 83.79 86.8403 83.626C86.8403 83.622 86.8403 83.618 86.8403 83.614C86.8403 83.29 86.7023 83.044 86.4263 82.876C86.1503 82.708 85.7563 82.624 85.2443 82.624C84.7043 82.624 84.2863 82.72 83.9903 82.912C83.6983 83.1 83.5523 83.4 83.5523 83.812H82.2743C82.2743 83.324 82.4003 82.91 82.6523 82.57C82.9083 82.23 83.2603 81.972 83.7083 81.796C84.1563 81.616 84.6703 81.526 85.2503 81.526C85.7823 81.526 86.2663 81.608 86.7023 81.772C87.1423 81.932 87.4923 82.172 87.7523 82.492C88.0123 82.812 88.1423 83.21 88.1423 83.686C88.1423 83.77 88.1423 83.854 88.1423 83.938C88.1423 84.018 88.1423 84.1 88.1423 84.184V86.728C88.1423 86.876 88.1483 87.02 88.1603 87.16C88.1723 87.296 88.1943 87.418 88.2263 87.526C88.2623 87.65 88.3043 87.752 88.3523 87.832C88.4043 87.912 88.4463 87.968 88.4783 88H87.1823C87.1583 87.976 87.1223 87.926 87.0743 87.85C87.0303 87.77 86.9903 87.678 86.9543 87.574C86.9183 87.474 86.8903 87.36 86.8703 87.232C86.8543 87.1 86.8463 86.958 86.8463 86.806L87.0863 86.974C86.9663 87.206 86.7843 87.408 86.5403 87.58C86.3003 87.752 86.0103 87.886 85.6703 87.982C85.3343 88.078 84.9603 88.126 84.5483 88.126ZM84.8183 87.046C85.1903 87.046 85.5283 86.988 85.8323 86.872C86.1403 86.752 86.3863 86.572 86.5703 86.332C86.7543 86.088 86.8463 85.782 86.8463 85.414V84.358L87.1523 84.76C86.8963 84.86 86.5823 84.942 86.2103 85.006C85.8423 85.066 85.4623 85.116 85.0703 85.156C84.5303 85.204 84.1243 85.298 83.8523 85.438C83.5803 85.574 83.4443 85.802 83.4443 86.122C83.4443 86.43 83.5563 86.662 83.7803 86.818C84.0083 86.97 84.3543 87.046 84.8183 87.046ZM92.8131 88.126C92.1731 88.126 91.5991 87.992 91.0911 87.724C90.5871 87.452 90.1891 87.066 89.8971 86.566C89.6091 86.066 89.4651 85.478 89.4651 84.802C89.4651 84.126 89.6091 83.544 89.8971 83.056C90.1891 82.564 90.5871 82.186 91.0911 81.922C91.5991 81.658 92.1731 81.526 92.8131 81.526C93.2971 81.526 93.7271 81.6 94.1031 81.748C94.4791 81.892 94.7971 82.084 95.0571 82.324C95.3171 82.564 95.5151 82.828 95.6511 83.116C95.7871 83.404 95.8551 83.692 95.8551 83.98C95.8551 83.984 95.8551 83.99 95.8551 83.998C95.8551 84.006 95.8551 84.014 95.8551 84.022H94.5651C94.5651 84.002 94.5631 83.98 94.5591 83.956C94.5551 83.928 94.5511 83.902 94.5471 83.878C94.5151 83.642 94.4231 83.432 94.2711 83.248C94.1191 83.064 93.9191 82.918 93.6711 82.81C93.4231 82.702 93.1331 82.648 92.8011 82.648C92.4371 82.648 92.1011 82.728 91.7931 82.888C91.4891 83.044 91.2451 83.282 91.0611 83.602C90.8771 83.922 90.7851 84.322 90.7851 84.802C90.7851 85.282 90.8751 85.686 91.0551 86.014C91.2391 86.338 91.4831 86.584 91.7871 86.752C92.0951 86.92 92.4331 87.004 92.8011 87.004C93.1971 87.004 93.5211 86.944 93.7731 86.824C94.0251 86.7 94.2151 86.536 94.3431 86.332C94.4711 86.124 94.5451 85.9 94.5651 85.66H95.8551C95.8551 85.948 95.7891 86.24 95.6571 86.536C95.5251 86.828 95.3311 87.094 95.0751 87.334C94.8191 87.574 94.5011 87.766 94.1211 87.91C93.7451 88.054 93.3091 88.126 92.8131 88.126ZM101.835 88V85.666C101.835 85.562 101.835 85.436 101.835 85.288C101.835 85.14 101.835 84.99 101.835 84.838C101.835 84.682 101.835 84.552 101.835 84.448C101.835 83.876 101.717 83.442 101.481 83.146C101.249 82.85 100.867 82.702 100.335 82.702C99.9794 82.702 99.6714 82.772 99.4114 82.912C99.1514 83.052 98.9494 83.244 98.8054 83.488C98.6654 83.732 98.5954 84.01 98.5954 84.322L97.9834 84.07C97.9834 83.586 98.0994 83.154 98.3314 82.774C98.5674 82.39 98.8894 82.086 99.2974 81.862C99.7094 81.638 100.179 81.526 100.707 81.526C101.475 81.526 102.071 81.756 102.495 82.216C102.923 82.672 103.137 83.308 103.137 84.124C103.137 84.332 103.137 84.578 103.137 84.862C103.137 85.142 103.137 85.448 103.137 85.78V88H101.835ZM97.2934 88V78.622H98.5954V88H97.2934ZM33.8579 102.12C33.2779 102.12 32.7579 102.03 32.2979 101.85C31.8419 101.67 31.4799 101.408 31.2119 101.064C30.9479 100.716 30.8159 100.298 30.8159 99.81C30.8159 99.386 30.9259 99.01 31.1459 98.682C31.3659 98.35 31.6799 98.036 32.0879 97.74C32.4999 97.44 32.9899 97.132 33.5579 96.816C34.0939 96.516 34.4899 96.212 34.7459 95.904C35.0019 95.596 35.1299 95.268 35.1299 94.92C35.1299 94.696 35.0799 94.512 34.9799 94.368C34.8839 94.22 34.7559 94.11 34.5959 94.038C34.4399 93.966 34.2699 93.93 34.0859 93.93C33.9099 93.93 33.7359 93.966 33.5639 94.038C33.3959 94.106 33.2579 94.214 33.1499 94.362C33.0459 94.506 32.9939 94.69 32.9939 94.914C32.9939 95.206 33.0819 95.504 33.2579 95.808C33.4379 96.112 33.6799 96.458 33.9839 96.846L37.0919 100.716C37.2399 100.9 37.3719 101.018 37.4879 101.07C37.6039 101.122 37.7019 101.148 37.7819 101.148C37.8579 101.148 37.9319 101.14 38.0039 101.124C38.0799 101.108 38.1319 101.092 38.1599 101.076V101.994C38.1439 102.002 38.0859 102.018 37.9859 102.042C37.8859 102.07 37.7579 102.084 37.6019 102.084C37.4219 102.084 37.2299 102.04 37.0259 101.952C36.8259 101.86 36.6379 101.708 36.4619 101.496L33.1619 97.422C32.9619 97.17 32.7639 96.908 32.5679 96.636C32.3759 96.364 32.2159 96.08 32.0879 95.784C31.9639 95.488 31.9019 95.178 31.9019 94.854C31.9019 94.506 31.9979 94.198 32.1899 93.93C32.3859 93.658 32.6479 93.446 32.9759 93.294C33.3039 93.142 33.6699 93.066 34.0739 93.066C34.4859 93.066 34.8479 93.142 35.1599 93.294C35.4759 93.442 35.7239 93.65 35.9039 93.918C36.0839 94.186 36.1739 94.498 36.1739 94.854C36.1739 95.238 36.0899 95.588 35.9219 95.904C35.7539 96.216 35.5139 96.508 35.2019 96.78C34.8939 97.048 34.5219 97.306 34.0859 97.554C33.4259 97.934 32.9159 98.286 32.5559 98.61C32.1959 98.934 32.0159 99.314 32.0159 99.75C32.0159 100.03 32.0979 100.278 32.2619 100.494C32.4299 100.71 32.6539 100.88 32.9339 101.004C33.2139 101.124 33.5239 101.184 33.8639 101.184C34.4239 101.184 34.8879 101.104 35.2559 100.944C35.6279 100.784 35.9399 100.572 36.1919 100.308C36.4719 100.008 36.6819 99.662 36.8219 99.27C36.9619 98.874 37.0319 98.43 37.0319 97.938H38.1059C38.1059 98.398 38.0539 98.816 37.9499 99.192C37.8459 99.568 37.7059 99.908 37.5299 100.212C37.3539 100.512 37.1499 100.778 36.9179 101.01C36.5979 101.334 36.1839 101.6 35.6759 101.808C35.1719 102.016 34.5659 102.12 33.8579 102.12ZM44.0612 102H42.7592V93.15H45.4232C46.1032 93.15 46.6732 93.278 47.1332 93.534C47.5972 93.79 47.9452 94.136 48.1772 94.572C48.4132 95.004 48.5312 95.488 48.5312 96.024C48.5312 96.56 48.4112 97.054 48.1712 97.506C47.9352 97.954 47.5852 98.314 47.1212 98.586C46.6572 98.858 46.0912 98.994 45.4232 98.994H44.0612V102ZM44.0612 98.55L43.4732 97.914H45.2732C45.6972 97.914 46.0532 97.838 46.3412 97.686C46.6332 97.53 46.8532 97.31 47.0012 97.026C47.1492 96.742 47.2232 96.408 47.2232 96.024C47.2232 95.64 47.1512 95.314 47.0072 95.046C46.8632 94.778 46.6472 94.576 46.3592 94.44C46.0712 94.3 45.7092 94.23 45.2732 94.23H43.4732L44.0612 93.546V98.55ZM49.8793 102V95.628H51.1813V97.662L50.8333 97.506C50.8613 97.246 50.9273 96.998 51.0313 96.762C51.1353 96.526 51.2733 96.316 51.4453 96.132C51.6213 95.944 51.8373 95.796 52.0933 95.688C52.3493 95.58 52.6453 95.526 52.9813 95.526C53.2373 95.526 53.4433 95.546 53.5993 95.586C53.7593 95.626 53.8573 95.658 53.8933 95.682L53.6173 96.906C53.5773 96.878 53.4953 96.842 53.3713 96.798C53.2513 96.754 53.0833 96.732 52.8673 96.732C52.5393 96.732 52.2673 96.79 52.0513 96.906C51.8353 97.022 51.6633 97.176 51.5353 97.368C51.4073 97.56 51.3153 97.77 51.2593 97.998C51.2073 98.222 51.1813 98.448 51.1813 98.676V102H49.8793ZM57.9027 102.12C57.2467 102.12 56.6667 101.978 56.1627 101.694C55.6627 101.41 55.2707 101.02 54.9867 100.524C54.7067 100.024 54.5667 99.452 54.5667 98.808C54.5667 98.168 54.7067 97.602 54.9867 97.11C55.2707 96.614 55.6627 96.228 56.1627 95.952C56.6667 95.672 57.2467 95.532 57.9027 95.532C58.5587 95.532 59.1367 95.672 59.6367 95.952C60.1407 96.228 60.5327 96.614 60.8127 97.11C61.0967 97.602 61.2387 98.168 61.2387 98.808C61.2387 99.452 61.0967 100.024 60.8127 100.524C60.5327 101.02 60.1407 101.41 59.6367 101.694C59.1367 101.978 58.5587 102.12 57.9027 102.12ZM57.9027 101.004C58.3027 101.004 58.6547 100.914 58.9587 100.734C59.2627 100.554 59.5007 100.3 59.6727 99.972C59.8447 99.64 59.9307 99.252 59.9307 98.808C59.9307 98.368 59.8447 97.986 59.6727 97.662C59.5007 97.338 59.2627 97.088 58.9587 96.912C58.6547 96.736 58.3027 96.648 57.9027 96.648C57.5067 96.648 57.1547 96.736 56.8467 96.912C56.5427 97.088 56.3047 97.338 56.1327 97.662C55.9607 97.986 55.8747 98.368 55.8747 98.808C55.8747 99.252 55.9607 99.64 56.1327 99.972C56.3047 100.3 56.5427 100.554 56.8467 100.734C57.1547 100.914 57.5067 101.004 57.9027 101.004ZM65.7779 102.126C65.1379 102.126 64.5639 101.992 64.0559 101.724C63.5519 101.452 63.1539 101.066 62.8619 100.566C62.5739 100.066 62.4299 99.478 62.4299 98.802C62.4299 98.126 62.5739 97.544 62.8619 97.056C63.1539 96.564 63.5519 96.186 64.0559 95.922C64.5639 95.658 65.1379 95.526 65.7779 95.526C66.2619 95.526 66.6919 95.6 67.0679 95.748C67.4439 95.892 67.7619 96.084 68.0219 96.324C68.2819 96.564 68.4799 96.828 68.6159 97.116C68.7519 97.404 68.8199 97.692 68.8199 97.98C68.8199 97.984 68.8199 97.99 68.8199 97.998C68.8199 98.006 68.8199 98.014 68.8199 98.022H67.5299C67.5299 98.002 67.5279 97.98 67.5239 97.956C67.5199 97.928 67.5159 97.902 67.5119 97.878C67.4799 97.642 67.3879 97.432 67.2359 97.248C67.0839 97.064 66.8839 96.918 66.6359 96.81C66.3879 96.702 66.0979 96.648 65.7659 96.648C65.4019 96.648 65.0659 96.728 64.7579 96.888C64.4539 97.044 64.2099 97.282 64.0259 97.602C63.8419 97.922 63.7499 98.322 63.7499 98.802C63.7499 99.282 63.8399 99.686 64.0199 100.014C64.2039 100.338 64.4479 100.584 64.7519 100.752C65.0599 100.92 65.3979 101.004 65.7659 101.004C66.1619 101.004 66.4859 100.944 66.7379 100.824C66.9899 100.7 67.1799 100.536 67.3079 100.332C67.4359 100.124 67.5099 99.9 67.5299 99.66H68.8199C68.8199 99.948 68.7539 100.24 68.6219 100.536C68.4899 100.828 68.2959 101.094 68.0399 101.334C67.7839 101.574 67.4659 101.766 67.0859 101.91C66.7099 102.054 66.2739 102.126 65.7779 102.126ZM70.7203 99.27V98.256H75.4123L75.2323 98.556C75.2323 98.532 75.2323 98.508 75.2323 98.484C75.2323 98.456 75.2323 98.432 75.2323 98.412C75.2323 98.088 75.1623 97.79 75.0223 97.518C74.8823 97.242 74.6723 97.022 74.3923 96.858C74.1163 96.69 73.7703 96.606 73.3543 96.606C72.9383 96.606 72.5723 96.696 72.2563 96.876C71.9443 97.052 71.7003 97.304 71.5243 97.632C71.3523 97.956 71.2663 98.346 71.2663 98.802C71.2663 99.266 71.3503 99.666 71.5183 100.002C71.6863 100.334 71.9283 100.59 72.2443 100.77C72.5603 100.95 72.9383 101.04 73.3783 101.04C73.6863 101.04 73.9523 101.01 74.1763 100.95C74.4043 100.886 74.5903 100.802 74.7343 100.698C74.8823 100.594 74.9943 100.482 75.0703 100.362C75.1463 100.238 75.1903 100.116 75.2023 99.996H76.4983C76.4743 100.256 76.3883 100.514 76.2403 100.77C76.0963 101.022 75.8903 101.252 75.6223 101.46C75.3583 101.664 75.0343 101.828 74.6503 101.952C74.2703 102.072 73.8323 102.132 73.3363 102.132C72.6723 102.132 72.0903 101.992 71.5903 101.712C71.0903 101.432 70.7003 101.044 70.4203 100.548C70.1403 100.048 70.0003 99.476 70.0003 98.832C70.0003 98.176 70.1423 97.6 70.4263 97.104C70.7103 96.608 71.1043 96.222 71.6083 95.946C72.1123 95.666 72.6903 95.526 73.3423 95.526C74.0063 95.526 74.5803 95.666 75.0643 95.946C75.5523 96.226 75.9283 96.612 76.1923 97.104C76.4563 97.596 76.5883 98.162 76.5883 98.802C76.5883 98.878 76.5863 98.966 76.5823 99.066C76.5783 99.166 76.5723 99.234 76.5643 99.27H70.7203ZM80.5475 102.126C80.1675 102.126 79.8095 102.084 79.4735 102C79.1375 101.916 78.8415 101.794 78.5855 101.634C78.3335 101.47 78.1355 101.268 77.9915 101.028C77.8515 100.788 77.7815 100.51 77.7815 100.194C77.7815 100.166 77.7815 100.138 77.7815 100.11C77.7815 100.078 77.7815 100.052 77.7815 100.032H79.0775C79.0775 100.052 79.0775 100.07 79.0775 100.086C79.0775 100.102 79.0775 100.124 79.0775 100.152C79.0775 100.444 79.2115 100.666 79.4795 100.818C79.7515 100.966 80.1195 101.04 80.5835 101.04C80.8555 101.04 81.1035 101.012 81.3275 100.956C81.5555 100.9 81.7355 100.814 81.8675 100.698C82.0035 100.582 82.0715 100.434 82.0715 100.254C82.0715 99.962 81.9275 99.754 81.6395 99.63C81.3555 99.506 80.9235 99.396 80.3435 99.3C80.0275 99.244 79.7215 99.172 79.4255 99.084C79.1335 98.996 78.8695 98.88 78.6335 98.736C78.4015 98.588 78.2155 98.406 78.0755 98.19C77.9395 97.97 77.8715 97.706 77.8715 97.398C77.8715 96.998 77.9915 96.658 78.2315 96.378C78.4715 96.098 78.7955 95.886 79.2035 95.742C79.6115 95.598 80.0615 95.526 80.5535 95.526C81.0295 95.526 81.4695 95.604 81.8735 95.76C82.2815 95.912 82.6095 96.134 82.8575 96.426C83.1055 96.714 83.2295 97.068 83.2295 97.488C83.2295 97.504 83.2295 97.522 83.2295 97.542C83.2295 97.562 83.2295 97.58 83.2295 97.596H81.9395C81.9395 97.58 81.9395 97.566 81.9395 97.554C81.9395 97.542 81.9395 97.528 81.9395 97.512C81.9395 97.304 81.8735 97.134 81.7415 97.002C81.6095 96.87 81.4375 96.772 81.2255 96.708C81.0175 96.64 80.7955 96.606 80.5595 96.606C80.3435 96.606 80.1255 96.63 79.9055 96.678C79.6895 96.722 79.5095 96.8 79.3655 96.912C79.2215 97.02 79.1495 97.168 79.1495 97.356C79.1495 97.548 79.2195 97.702 79.3595 97.818C79.4995 97.93 79.6975 98.024 79.9535 98.1C80.2095 98.172 80.5075 98.238 80.8475 98.298C81.1595 98.354 81.4635 98.426 81.7595 98.514C82.0555 98.598 82.3215 98.71 82.5575 98.85C82.7975 98.99 82.9875 99.17 83.1275 99.39C83.2715 99.61 83.3435 99.88 83.3435 100.2C83.3435 100.532 83.2675 100.818 83.1155 101.058C82.9635 101.298 82.7555 101.498 82.4915 101.658C82.2315 101.814 81.9335 101.93 81.5975 102.006C81.2655 102.086 80.9155 102.126 80.5475 102.126ZM87.2858 102.126C86.9058 102.126 86.5478 102.084 86.2118 102C85.8758 101.916 85.5798 101.794 85.3238 101.634C85.0718 101.47 84.8738 101.268 84.7298 101.028C84.5898 100.788 84.5198 100.51 84.5198 100.194C84.5198 100.166 84.5198 100.138 84.5198 100.11C84.5198 100.078 84.5198 100.052 84.5198 100.032H85.8158C85.8158 100.052 85.8158 100.07 85.8158 100.086C85.8158 100.102 85.8158 100.124 85.8158 100.152C85.8158 100.444 85.9498 100.666 86.2178 100.818C86.4898 100.966 86.8578 101.04 87.3218 101.04C87.5938 101.04 87.8418 101.012 88.0658 100.956C88.2938 100.9 88.4738 100.814 88.6058 100.698C88.7418 100.582 88.8098 100.434 88.8098 100.254C88.8098 99.962 88.6658 99.754 88.3778 99.63C88.0938 99.506 87.6618 99.396 87.0818 99.3C86.7658 99.244 86.4598 99.172 86.1638 99.084C85.8718 98.996 85.6078 98.88 85.3718 98.736C85.1398 98.588 84.9538 98.406 84.8138 98.19C84.6778 97.97 84.6098 97.706 84.6098 97.398C84.6098 96.998 84.7298 96.658 84.9698 96.378C85.2098 96.098 85.5338 95.886 85.9418 95.742C86.3498 95.598 86.7998 95.526 87.2918 95.526C87.7678 95.526 88.2078 95.604 88.6118 95.76C89.0198 95.912 89.3478 96.134 89.5958 96.426C89.8438 96.714 89.9678 97.068 89.9678 97.488C89.9678 97.504 89.9678 97.522 89.9678 97.542C89.9678 97.562 89.9678 97.58 89.9678 97.596H88.6778C88.6778 97.58 88.6778 97.566 88.6778 97.554C88.6778 97.542 88.6778 97.528 88.6778 97.512C88.6778 97.304 88.6118 97.134 88.4798 97.002C88.3478 96.87 88.1758 96.772 87.9638 96.708C87.7558 96.64 87.5338 96.606 87.2978 96.606C87.0818 96.606 86.8638 96.63 86.6438 96.678C86.4278 96.722 86.2478 96.8 86.1038 96.912C85.9598 97.02 85.8878 97.168 85.8878 97.356C85.8878 97.548 85.9578 97.702 86.0978 97.818C86.2378 97.93 86.4358 98.024 86.6918 98.1C86.9478 98.172 87.2458 98.238 87.5858 98.298C87.8978 98.354 88.2018 98.426 88.4978 98.514C88.7938 98.598 89.0598 98.71 89.2958 98.85C89.5358 98.99 89.7258 99.17 89.8658 99.39C90.0098 99.61 90.0818 99.88 90.0818 100.2C90.0818 100.532 90.0058 100.818 89.8538 101.058C89.7018 101.298 89.4938 101.498 89.2298 101.658C88.9698 101.814 88.6718 101.93 88.3358 102.006C88.0038 102.086 87.6538 102.126 87.2858 102.126Z" fill="white"/>
<path fill-rule="evenodd" clip-rule="evenodd" d="M72.6596 26.4769C76.8844 29.8834 80.25 35.1875 80.25 43C80.25 50.8101 76.8871 56.1908 72.6748 59.6981C68.5046 63.1704 64 64.25 60.1631 64.9893L58.0819 65H34V63H57.9165C62 63 67.362 60.8686 71.0752 57.7769C74.7796 54.6925 77.75 49.9899 77.75 43C77.75 36.0125 74.7823 31.3999 71.0904 28.4231C67.3525 25.4092 62.8425 24.0561 59.8691 23.7431L60.1309 21.2569C63.4908 21.6105 68.4808 23.1075 72.6596 26.4769Z" fill="white"/>
<path fill-rule="evenodd" clip-rule="evenodd" d="M36.7798 38.7288C39.3251 27.275 49.1351 22.6626 53.7639 21.7725L54.2361 24.2275C50.1982 25.004 41.4749 29.125 39.2202 39.2712C36.9818 49.344 43.8945 56.9273 47.6934 59.4599L46.3066 61.5401C42.1055 58.7393 34.2182 50.256 36.7798 38.7288Z" fill="white"/>
<path fill-rule="evenodd" clip-rule="evenodd" d="M82 65H70V63H82V65Z" fill="white"/>
<path fill-rule="evenodd" clip-rule="evenodd" d="M60.2374 22.593L62.7593 19.6508L61.2407 18.3492L57.7626 22.407L60.652 27.03L62.348 25.97L60.2374 22.593Z" fill="white"/>
<path fill-rule="evenodd" clip-rule="evenodd" d="M80.0801 60L83 64.1509L80.0801 68L78.5 67L80.5 64L78.5 61L80.0801 60Z" fill="white"/>
<path fill-rule="evenodd" clip-rule="evenodd" d="M58.5 51.5C63.4706 51.5 67.5 47.4706 67.5 42.5C67.5 37.5294 63.4706 33.5 58.5 33.5C53.5294 33.5 49.5 37.5294 49.5 42.5C49.5 47.4706 53.5294 51.5 58.5 51.5ZM58.5 54C64.8513 54 70 48.8513 70 42.5C70 36.1487 64.8513 31 58.5 31C52.1487 31 47 36.1487 47 42.5C47 48.8513 52.1487 54 58.5 54Z" fill="white"/>
</svg>
