<svg width="86" height="86" viewBox="0 0 86 86" fill="none" xmlns="http://www.w3.org/2000/svg">
<path d="M60.3278 20.1364C63.296 20.1364 65.7073 22.5477 65.7073 25.5159C65.7073 28.4841 63.296 30.8953 60.3278 30.8953C57.3596 30.8953 54.9482 28.4841 54.9482 25.5159C54.9482 22.5477 57.3596 20.1364 60.3278 20.1364Z" fill="#54D499"/>
<path d="M49.8412 64.4937H19.8003V57.4888L33.977 43.4224C35.9247 41.2966 37.3635 39.4395 38.2963 37.8537C39.2293 36.2678 39.6957 34.7639 39.6957 33.3392C39.6957 31.3915 39.2067 29.8621 38.223 28.7484C37.239 27.6345 35.8342 27.0777 34.0081 27.0777C32.0405 27.0777 30.4915 27.7561 29.3579 29.1103C28.2244 30.4642 27.6562 32.2452 27.6562 34.4528H19.7834C19.7834 31.7843 19.5658 29.3448 20.8379 27.1371C22.1127 24.9322 23.9134 23.1993 26.2427 21.9469C28.5691 20.692 31.2095 20.0644 34.1578 20.0644C38.6723 20.0644 42.1804 21.1471 44.6794 23.3152C47.1754 25.4833 48.4248 28.5421 48.4248 32.4968C48.4248 34.6649 47.8652 36.8698 46.7402 39.1172C45.6178 41.3674 43.69 43.985 40.962 46.9759L30.9974 57.4804H49.8412V64.4937Z" fill="white"/>
<path d="M64.9572 34.4638H56.1855V64.4819H64.9572V34.4638Z" fill="white"/>
<path d="M43.1334 0C58.7883 0.0735451 74.0194 9.22676 81.3041 23.4374C88.4192 37.3228 87.232 55.1262 77.9968 68.025C68.5494 81.2207 51.2492 88.3612 34.9894 85.294C17.6637 82.0291 3.01488 67.3352 0.411372 49.1644C-1.85293 33.3707 5.35554 16.5369 18.9441 7.35255C25.9264 2.63474 34.3109 0.067774 42.7178 0H43.1334ZM42.879 6.98511C33.8274 7.03042 24.8692 10.5977 18.2968 16.7915C12.8581 21.9137 9.05878 28.7545 7.62556 36.0903C4.91751 49.9728 11.1053 65.218 23.3087 73.2009C34.9017 80.7853 50.8931 80.9097 62.681 73.2009C71.2265 67.6095 77.211 58.3007 78.6639 48.1722C80.2865 36.8365 76.1311 24.8338 67.8513 16.9411C61.3241 10.7194 52.4535 7.08961 43.3455 6.98788C43.1898 6.98511 43.0344 6.98511 42.879 6.98511Z" fill="white"/>
</svg>
