<svg width="219" height="86" viewBox="0 0 219 86" fill="none" xmlns="http://www.w3.org/2000/svg">
<path d="M104.855 42.3057L102.705 28.7545H104.322L106.15 41.635L105.912 41.6259L108.805 28.7545H110.882L113.766 41.6259L113.528 41.635L115.356 28.7545H116.982L114.814 42.3057H112.398L109.752 30.0776H109.935L107.28 42.3057H104.855Z" fill="white"/>
<path d="M119.435 38.0523V36.6559H126.978L126.702 37.1153V36.9132C126.702 36.3496 126.584 35.8337 126.349 35.3651C126.113 34.8965 125.762 34.5213 125.297 34.2397C124.831 33.9579 124.255 33.817 123.57 33.817C122.877 33.817 122.268 33.9641 121.741 34.258C121.214 34.5519 120.804 34.9671 120.51 35.5028C120.216 36.0388 120.069 36.6773 120.069 37.4183C120.069 38.1717 120.212 38.821 120.496 39.3661C120.781 39.9114 121.187 40.3307 121.714 40.6246C122.24 40.9187 122.865 41.0656 123.588 41.0656C124.102 41.0656 124.549 41.0121 124.929 40.9048C125.309 40.7979 125.623 40.6539 125.871 40.4732C126.119 40.2926 126.307 40.095 126.436 39.8806C126.564 39.6664 126.641 39.4519 126.666 39.2375H128.227C128.197 39.6294 128.074 40.0183 127.86 40.4043C127.645 40.7902 127.342 41.1407 126.95 41.4561C126.558 41.7717 126.077 42.0243 125.508 42.214C124.938 42.4039 124.283 42.4988 123.542 42.4988C122.562 42.4988 121.698 42.2846 120.951 41.8558C120.204 41.4271 119.617 40.8329 119.192 40.0736C118.766 39.3142 118.553 38.4414 118.553 37.4551C118.553 36.4569 118.768 35.5795 119.196 34.823C119.625 34.0666 120.216 33.474 120.97 33.0454C121.723 32.6167 122.583 32.4021 123.551 32.4021C124.537 32.4021 125.391 32.6167 126.114 33.0454C126.837 33.474 127.394 34.0605 127.786 34.8047C128.178 35.5487 128.374 36.3955 128.374 37.3449C128.374 37.443 128.371 37.5716 128.365 37.7308C128.359 37.8901 128.35 37.9971 128.338 38.0523H119.435Z" fill="white"/>
<path d="M138.526 42.4526C138.226 42.4526 137.932 42.4189 137.644 42.3517C137.356 42.2843 137.097 42.1633 136.868 41.9888C136.638 41.8141 136.456 41.5661 136.321 41.2446C136.186 40.923 136.119 40.5081 136.119 39.9998V33.927H133.739V32.5489H135.264C135.473 32.5489 135.635 32.5413 135.752 32.5258C135.868 32.5107 135.952 32.4708 136.004 32.4064C136.056 32.3422 136.088 32.241 136.101 32.1033C136.113 31.9654 136.119 31.774 136.119 31.529V29.315H137.69V32.5489H140.74V33.927H137.69V39.4117C137.69 39.9324 137.753 40.3396 137.878 40.6337C138.004 40.9276 138.287 41.0746 138.728 41.0746C138.906 41.0746 139.074 41.0594 139.233 41.0286C139.392 40.9981 139.512 40.9676 139.592 40.9368V42.2964C139.488 42.3332 139.342 42.3684 139.155 42.4022C138.969 42.4358 138.758 42.4526 138.526 42.4526Z" fill="white"/>
<path d="M143.12 38.0523V36.6559H150.663L150.387 37.1153V36.9132C150.387 36.3496 150.269 35.8337 150.033 35.3651C149.798 34.8965 149.447 34.5213 148.981 34.2397C148.516 33.9579 147.94 33.817 147.254 33.817C146.562 33.817 145.953 33.9641 145.426 34.258C144.899 34.5519 144.489 34.9671 144.195 35.5028C143.901 36.0388 143.754 36.6773 143.754 37.4183C143.754 38.1717 143.896 38.821 144.181 39.3661C144.466 39.9114 144.871 40.3307 145.398 40.6246C145.925 40.9187 146.55 41.0656 147.272 41.0656C147.787 41.0656 148.234 41.0121 148.614 40.9048C148.993 40.7979 149.307 40.6539 149.556 40.4732C149.803 40.2926 149.992 40.095 150.12 39.8806C150.249 39.6664 150.326 39.4519 150.35 39.2375H151.912C151.881 39.6294 151.759 40.0183 151.545 40.4043C151.33 40.7902 151.027 41.1407 150.635 41.4561C150.243 41.7717 149.762 42.0243 149.193 42.214C148.623 42.4039 147.968 42.4988 147.227 42.4988C146.246 42.4988 145.383 42.2846 144.636 41.8558C143.888 41.4271 143.302 40.8329 142.876 40.0736C142.451 39.3142 142.238 38.4414 142.238 37.4551C142.238 36.4569 142.452 35.5795 142.881 34.823C143.309 34.0666 143.901 33.474 144.654 33.0454C145.407 32.6167 146.268 32.4021 147.236 32.4021C148.222 32.4021 149.076 32.6167 149.799 33.0454C150.522 33.474 151.079 34.0605 151.471 34.8047C151.863 35.5487 152.059 36.3955 152.059 37.3449C152.059 37.443 152.056 37.5716 152.05 37.7308C152.044 37.8901 152.034 37.9971 152.022 38.0523H143.12Z" fill="white"/>
<path d="M158.352 42.4898C157.764 42.4898 157.221 42.427 156.721 42.3014C156.222 42.176 155.787 41.9922 155.417 41.7503C155.046 41.5082 154.758 41.2098 154.553 40.8544C154.348 40.4993 154.245 40.092 154.245 39.6325V39.3477H155.817V39.5498C155.817 40.046 156.046 40.4244 156.506 40.6846C156.965 40.9451 157.593 41.075 158.389 41.075C158.879 41.075 159.317 41.026 159.703 40.928C160.089 40.83 160.393 40.68 160.617 40.4779C160.84 40.2758 160.952 40.0216 160.952 39.7154C160.952 39.207 160.715 38.8441 160.24 38.6267C159.765 38.4093 159.056 38.2209 158.113 38.0615C157.617 37.9759 157.145 37.864 156.698 37.7263C156.251 37.5886 155.855 37.4093 155.509 37.1887C155.162 36.9683 154.89 36.6943 154.691 36.3666C154.492 36.0389 154.392 35.6454 154.392 35.1859C154.392 34.592 154.568 34.0882 154.921 33.6746C155.273 33.2613 155.749 32.9459 156.35 32.7285C156.949 32.5111 157.617 32.4022 158.352 32.4022C159.063 32.4022 159.718 32.5157 160.318 32.7422C160.918 32.9688 161.401 33.2981 161.765 33.7299C162.129 34.1617 162.312 34.6931 162.312 35.3239V35.5075H160.75V35.3698C160.75 35.0146 160.637 34.7221 160.41 34.4924C160.184 34.2627 159.889 34.0914 159.528 33.9779C159.167 33.8646 158.781 33.808 158.371 33.808C157.985 33.808 157.605 33.8493 157.231 33.932C156.858 34.0147 156.548 34.151 156.303 34.3408C156.058 34.5308 155.936 34.7909 155.936 35.1218C155.936 35.4525 156.051 35.7174 156.281 35.9165C156.51 36.1154 156.835 36.2778 157.254 36.4034C157.674 36.5289 158.168 36.6438 158.738 36.7478C159.246 36.8398 159.727 36.9546 160.18 37.0924C160.634 37.2303 161.033 37.4061 161.379 37.6206C161.725 37.835 161.998 38.1061 162.197 38.4336C162.396 38.7613 162.496 39.1611 162.496 39.6325C162.496 40.1102 162.387 40.5269 162.169 40.8821C161.952 41.2374 161.652 41.5343 161.269 41.7732C160.886 42.012 160.445 42.1913 159.946 42.3107C159.447 42.4302 158.916 42.4898 158.352 42.4898Z" fill="white"/>
<path d="M168.972 42.4526C168.672 42.4526 168.378 42.4189 168.09 42.3517C167.802 42.2843 167.544 42.1633 167.314 41.9888C167.084 41.8141 166.902 41.5661 166.767 41.2446C166.633 40.923 166.565 40.5081 166.565 39.9998V33.927H164.186V32.5489H165.711C165.919 32.5489 166.081 32.5413 166.198 32.5258C166.314 32.5107 166.398 32.4708 166.45 32.4064C166.502 32.3422 166.535 32.241 166.547 32.1033C166.559 31.9654 166.565 31.774 166.565 31.529V29.315H168.136V32.5489H171.186V33.927H168.136V39.4117C168.136 39.9324 168.199 40.3396 168.324 40.6337C168.45 40.9276 168.733 41.0746 169.174 41.0746C169.352 41.0746 169.52 41.0594 169.68 41.0286C169.839 40.9981 169.958 40.9676 170.038 40.9368V42.2964C169.934 42.3332 169.788 42.3684 169.602 42.4022C169.415 42.4358 169.205 42.4526 168.972 42.4526Z" fill="white"/>
<path d="M173.814 42.5447C173.513 42.5447 173.261 42.4419 173.056 42.2369C172.851 42.0318 172.748 41.7792 172.748 41.4789C172.748 41.185 172.851 40.934 173.056 40.7257C173.261 40.5175 173.513 40.4133 173.814 40.4133C174.108 40.4133 174.359 40.5175 174.567 40.7257C174.775 40.934 174.879 41.185 174.879 41.4789C174.879 41.7792 174.775 42.0318 174.567 42.2369C174.359 42.4419 174.108 42.5447 173.814 42.5447Z" fill="white"/>
<path d="M112.673 50.8039L108.787 59.6698V64.3551H106.361V59.6698L102.503 50.8039H105.066L108.07 58.3928H107.096L110.091 50.8039H112.673Z" fill="white"/>
<path d="M118.139 62.5731C118.697 62.5731 119.184 62.4445 119.6 62.1872C120.017 61.9302 120.341 61.5703 120.574 61.1076C120.807 60.6454 120.923 60.1019 120.923 59.4769C120.923 58.8523 120.807 58.3118 120.574 57.8555C120.341 57.3992 120.017 57.0457 119.6 56.7943C119.184 56.5433 118.697 56.4177 118.139 56.4177C117.588 56.4177 117.103 56.5433 116.683 56.7943C116.264 57.0457 115.938 57.3992 115.705 57.8555C115.472 58.3118 115.356 58.8523 115.356 59.4769C115.356 60.1019 115.472 60.6454 115.705 61.1076C115.938 61.5703 116.264 61.9302 116.683 62.1872C117.103 62.4445 117.588 62.5731 118.139 62.5731ZM118.139 64.5484C117.11 64.5484 116.204 64.3326 115.42 63.9006C114.636 63.469 114.022 62.8704 113.578 62.1045C113.134 61.3392 112.912 60.4632 112.912 59.4769C112.912 58.4849 113.134 57.6107 113.578 56.8541C114.022 56.0978 114.636 55.5052 115.42 55.0765C116.204 54.6477 117.11 54.4334 118.139 54.4334C119.168 54.4334 120.075 54.6477 120.859 55.0765C121.643 55.5052 122.257 56.0978 122.701 56.8541C123.145 57.6107 123.367 58.4849 123.367 59.4769C123.367 60.4632 123.145 61.3392 122.701 62.1045C122.257 62.8704 121.643 63.469 120.859 63.9006C120.075 64.3326 119.168 64.5484 118.139 64.5484Z" fill="white"/>
<path d="M132.14 54.5985H134.557V64.3552H132.14V54.5985ZM128.962 64.5391C128.269 64.5391 127.695 64.4226 127.239 64.1899C126.783 63.9572 126.424 63.6509 126.164 63.2711C125.904 62.8914 125.72 62.4719 125.613 62.0124C125.506 61.5529 125.452 61.0937 125.452 60.6344V54.5985H127.877V60.0097C127.877 60.4445 127.929 60.8473 128.034 61.2177C128.138 61.5883 128.329 61.8871 128.608 62.1134C128.886 62.3402 129.28 62.4534 129.788 62.4534C130.272 62.4534 130.689 62.3109 131.038 62.0263C131.387 61.7413 131.658 61.3817 131.851 60.9467C132.044 60.5118 132.14 60.0708 132.14 59.6239L132.967 60.175C132.967 60.7692 132.875 61.328 132.692 61.8517C132.508 62.3753 132.241 62.8393 131.892 63.2435C131.543 63.6477 131.122 63.9647 130.629 64.1945C130.136 64.4242 129.58 64.5391 128.962 64.5391Z" fill="white"/>
<path d="M140.721 54.5985H143.11V64.3553H140.721V54.5985ZM141.925 52.7977C141.533 52.7977 141.191 52.6919 140.901 52.4807C140.61 52.2695 140.464 51.9739 140.464 51.5941C140.464 51.2206 140.61 50.9296 140.901 50.7215C141.191 50.5131 141.533 50.4089 141.925 50.4089C142.311 50.4089 142.647 50.5131 142.935 50.7215C143.223 50.9296 143.367 51.2206 143.367 51.5941C143.367 51.9739 143.223 52.2695 142.935 52.4807C142.647 52.6919 142.311 52.7977 141.925 52.7977Z" fill="white"/>
<path d="M157.828 64.3554V58.7421C157.828 58.4847 157.812 58.226 157.782 57.9657C157.751 57.7056 157.684 57.4695 157.58 57.2582C157.476 57.0468 157.313 56.8757 157.093 56.7437C156.872 56.612 156.572 56.5462 156.192 56.5462C155.819 56.5462 155.505 56.6197 155.251 56.7666C154.997 56.9138 154.793 57.1098 154.64 57.3548C154.487 57.5998 154.375 57.8753 154.305 58.1817C154.234 58.4879 154.199 58.7942 154.199 59.1002L153.39 58.5675C153.39 57.7898 153.538 57.0881 153.832 56.4635C154.125 55.8387 154.548 55.3443 155.099 54.9798C155.65 54.6155 156.306 54.4333 157.065 54.4333C157.831 54.4333 158.446 54.5893 158.912 54.9017C159.377 55.2141 159.716 55.6414 159.927 56.1833C160.138 56.7252 160.244 57.3425 160.244 58.0347V64.3554H157.828ZM151.801 64.3554V58.7602C151.801 58.5213 151.786 58.2719 151.755 58.0116C151.724 57.7513 151.657 57.5108 151.553 57.2904C151.449 57.07 151.288 56.8907 151.071 56.7529C150.853 56.6151 150.555 56.5462 150.175 56.5462C149.807 56.5462 149.497 56.6213 149.242 56.7713C148.988 56.9214 148.78 57.1205 148.618 57.3685C148.455 57.6165 148.338 57.8983 148.264 58.2137C148.19 58.5293 148.154 58.8522 148.154 59.1829L147.345 58.6409C147.345 57.8387 147.495 57.1221 147.795 56.4911C148.095 55.8604 148.523 55.3598 149.077 54.9889C149.631 54.6185 150.288 54.4333 151.048 54.4333C151.832 54.4333 152.453 54.5971 152.913 54.9248C153.372 55.2524 153.701 55.695 153.9 56.2523C154.099 56.8095 154.199 57.4345 154.199 58.1265V64.3554H151.801ZM145.738 54.5986H148.154V64.3554H145.738V54.5986Z" fill="white"/>
<path d="M168.292 64.5572C167.532 64.5572 166.829 64.3596 166.183 63.9646C165.537 63.5695 165.016 63.0291 164.621 62.3431C164.226 61.6573 164.029 60.8854 164.029 60.0279V59.8994L165.223 59.8717V59.9636C165.223 60.4413 165.342 60.8656 165.581 61.236C165.82 61.6066 166.131 61.8974 166.514 62.1088C166.897 62.32 167.305 62.4258 167.74 62.4258C168.445 62.4258 169.045 62.1839 169.541 61.6998C170.037 61.2163 170.285 60.4659 170.285 59.4493C170.285 58.4264 170.039 57.6776 169.546 57.2028C169.053 56.7283 168.451 56.4908 167.74 56.4908C167.311 56.4908 166.906 56.5935 166.523 56.7986C166.14 57.0039 165.828 57.2871 165.586 57.6484C165.344 58.0099 165.223 58.4326 165.223 58.9163L164.029 58.8612C164.029 57.9975 164.226 57.232 164.621 56.5643C165.016 55.897 165.537 55.3745 166.183 54.9979C166.829 54.6214 167.532 54.433 168.292 54.433C169.082 54.433 169.818 54.6257 170.501 55.0119C171.184 55.3976 171.735 55.9642 172.155 56.7114C172.574 57.4586 172.784 58.3711 172.784 59.4493C172.784 60.5577 172.579 61.4918 172.169 62.2511C171.758 63.0106 171.213 63.585 170.533 63.9739C169.853 64.3628 169.106 64.5572 168.292 64.5572ZM162.798 54.5983H165.214V68.3697H162.798V54.5983Z" fill="white"/>
<path d="M174.962 64.3554V54.5986H177.378L177.378 57.8417L176.817 57.5293C176.879 57.1066 176.992 56.7071 177.157 56.3301C177.323 55.9536 177.543 55.6229 177.819 55.3381C178.094 55.0533 178.428 54.8313 178.82 54.6722C179.212 54.5128 179.659 54.4333 180.162 54.4333C180.56 54.4333 180.874 54.4623 181.103 54.5203C181.333 54.5788 181.475 54.6261 181.53 54.6628L181.09 56.8771C181.028 56.8343 180.904 56.7805 180.717 56.7163C180.53 56.6519 180.281 56.6197 179.969 56.6197C179.473 56.6197 179.057 56.704 178.724 56.8725C178.39 57.041 178.125 57.2675 177.929 57.5521C177.733 57.8369 177.592 58.1495 177.507 58.4893C177.421 58.8293 177.378 59.1676 177.378 59.5044V64.3554H174.962Z" fill="white"/>
<path d="M183.845 60.258V58.5398H190.672L190.396 58.9992V58.7604C190.396 58.3379 190.301 57.9412 190.111 57.5706C189.921 57.2002 189.633 56.8999 189.247 56.6701C188.862 56.4406 188.371 56.3257 187.777 56.3257C187.189 56.3257 186.679 56.4497 186.248 56.6977C185.816 56.946 185.482 57.3027 185.246 57.7681C185.011 58.2337 184.893 58.791 184.893 59.4402C184.893 60.1079 185.006 60.6821 185.233 61.163C185.459 61.6437 185.791 62.0111 186.229 62.2653C186.667 62.5195 187.202 62.6465 187.833 62.6465C188.261 62.6465 188.632 62.6069 188.944 62.527C189.257 62.4475 189.512 62.3388 189.711 62.2011C189.91 62.063 190.061 61.9148 190.161 61.7554C190.263 61.5962 190.322 61.437 190.341 61.2776H192.748C192.711 61.688 192.575 62.0879 192.339 62.4766C192.103 62.8655 191.774 63.2176 191.351 63.5332C190.929 63.8485 190.416 64.0996 189.812 64.2864C189.209 64.4732 188.522 64.5666 187.75 64.5666C186.703 64.5666 185.787 64.3523 185.003 63.9235C184.219 63.4948 183.608 62.8977 183.17 62.1322C182.732 61.3665 182.513 60.4907 182.513 59.5046C182.513 58.4941 182.735 57.6089 183.179 56.8494C183.623 56.0901 184.24 55.4975 185.031 55.0716C185.821 54.6461 186.727 54.4333 187.75 54.4333C188.803 54.4333 189.714 54.6475 190.483 55.0763C191.252 55.505 191.844 56.1006 192.261 56.8633C192.677 57.6256 192.886 58.5123 192.886 59.5229C192.886 59.6514 192.882 59.7892 192.876 59.9364C192.87 60.0833 192.861 60.1906 192.849 60.258H183.845Z" fill="white"/>
<path d="M198.894 64.5572C198.312 64.5572 197.759 64.493 197.236 64.3644C196.712 64.2358 196.246 64.0428 195.839 63.7855C195.432 63.5282 195.11 63.2084 194.874 62.8254C194.639 62.4429 194.521 62.0001 194.521 61.4979V61.2867H196.928V61.452C196.928 61.8503 197.11 62.1486 197.475 62.3477C197.839 62.5468 198.337 62.6462 198.967 62.6462C199.31 62.6462 199.633 62.6096 199.937 62.5361C200.24 62.4626 200.485 62.3493 200.671 62.196C200.858 62.043 200.952 61.8471 200.952 61.6082C200.952 61.2221 200.754 60.9467 200.359 60.7813C199.964 60.616 199.344 60.4659 198.499 60.3312C198.033 60.2517 197.574 60.1444 197.121 60.0097C196.668 59.8749 196.256 59.6941 195.885 59.4673C195.514 59.241 195.217 58.9592 194.994 58.6223C194.77 58.2857 194.659 57.8751 194.659 57.3912C194.659 56.7481 194.85 56.2078 195.233 55.7696C195.615 55.3318 196.13 54.9995 196.776 54.773C197.422 54.5465 198.134 54.433 198.912 54.433C199.659 54.433 200.355 54.5554 200.998 54.8004C201.641 55.0454 202.16 55.3976 202.555 55.857C202.95 56.3163 203.148 56.8706 203.148 57.5198V57.6669H200.759V57.5474C200.759 57.2656 200.67 57.0361 200.492 56.8583C200.315 56.6808 200.085 56.549 199.803 56.4632C199.522 56.3775 199.225 56.3346 198.912 56.3346C198.636 56.3346 198.352 56.3638 198.058 56.4219C197.764 56.4803 197.519 56.5812 197.323 56.7251C197.127 56.869 197.029 57.0697 197.029 57.3269C197.029 57.5719 197.13 57.771 197.332 57.924C197.534 58.0772 197.816 58.2042 198.177 58.3054C198.539 58.4063 198.955 58.4969 199.427 58.5764C199.874 58.6499 200.325 58.7507 200.782 58.8795C201.238 59.0081 201.656 59.1798 202.036 59.394C202.415 59.6084 202.723 59.8886 202.959 60.2346C203.195 60.5808 203.313 61.0081 203.313 61.5164C203.313 62.0553 203.19 62.5146 202.945 62.8942C202.7 63.2742 202.368 63.588 201.949 63.836C201.529 64.0842 201.056 64.2664 200.529 64.3826C200.002 64.4989 199.457 64.5572 198.894 64.5572Z" fill="white"/>
<path d="M209.394 64.5572C208.812 64.5572 208.26 64.493 207.736 64.3644C207.212 64.2358 206.747 64.0428 206.34 63.7855C205.932 63.5282 205.611 63.2084 205.375 62.8254C205.139 62.4429 205.021 62.0001 205.021 61.4979V61.2867H207.428V61.452C207.428 61.8503 207.611 62.1486 207.975 62.3477C208.339 62.5468 208.837 62.6462 209.468 62.6462C209.811 62.6462 210.134 62.6096 210.437 62.5361C210.74 62.4626 210.985 62.3493 211.172 62.196C211.359 62.043 211.452 61.8471 211.452 61.6082C211.452 61.2221 211.255 60.9467 210.86 60.7813C210.465 60.616 209.845 60.4659 208.999 60.3312C208.534 60.2517 208.074 60.1444 207.621 60.0097C207.168 59.8749 206.756 59.6941 206.386 59.4673C206.015 59.241 205.718 58.9592 205.494 58.6223C205.271 58.2857 205.159 57.8751 205.159 57.3912C205.159 56.7481 205.35 56.2078 205.733 55.7696C206.116 55.3318 206.63 54.9995 207.277 54.773C207.923 54.5465 208.635 54.433 209.413 54.433C210.16 54.433 210.855 54.5554 211.498 54.8004C212.141 55.0454 212.66 55.3976 213.055 55.857C213.451 56.3163 213.648 56.8706 213.648 57.5198V57.6669H211.259V57.5474C211.259 57.2656 211.171 57.0361 210.993 56.8583C210.815 56.6808 210.585 56.549 210.304 56.4632C210.022 56.3775 209.725 56.3346 209.413 56.3346C209.137 56.3346 208.852 56.3638 208.558 56.4219C208.264 56.4803 208.019 56.5812 207.823 56.7251C207.627 56.869 207.529 57.0697 207.529 57.3269C207.529 57.5719 207.63 57.771 207.833 57.924C208.035 58.0772 208.316 58.2042 208.678 58.3054C209.039 58.4063 209.456 58.4969 209.927 58.5764C210.374 58.6499 210.826 58.7507 211.282 58.8795C211.738 59.0081 212.156 59.1798 212.536 59.394C212.916 59.6084 213.224 59.8886 213.46 60.2346C213.695 60.5808 213.813 61.0081 213.813 61.5164C213.813 62.0553 213.691 62.5146 213.446 62.8942C213.201 63.2742 212.869 63.588 212.449 63.836C212.029 64.0842 211.556 64.2664 211.03 64.3826C210.503 64.4989 209.958 64.5572 209.394 64.5572Z" fill="white"/>
<path d="M217.241 64.6125C216.861 64.6125 216.539 64.4805 216.276 64.2174C216.012 63.9541 215.881 63.6325 215.881 63.2527C215.881 62.8791 216.012 62.559 216.276 62.2925C216.539 62.0262 216.861 61.8931 217.241 61.8931C217.614 61.8931 217.934 62.0262 218.201 62.2925C218.467 62.559 218.6 62.8791 218.6 63.2527C218.6 63.6325 218.467 63.9541 218.201 64.2174C217.934 64.4805 217.614 64.6125 217.241 64.6125Z" fill="white"/>
<path d="M60.3283 20.1364C63.2965 20.1364 65.7079 22.5478 65.7079 25.5159C65.7079 28.4842 63.2965 30.8953 60.3283 30.8953C57.3601 30.8953 54.9487 28.4842 54.9487 25.5159C54.9487 22.5478 57.3601 20.1364 60.3283 20.1364Z" fill="#54D499"/>
<path d="M49.8412 64.4937H19.8003V57.4888L33.9769 43.4224C35.9247 41.2966 37.3635 39.4395 38.2963 37.8537C39.2293 36.2678 39.6957 34.7639 39.6957 33.3392C39.6957 31.3915 39.2067 29.8621 38.223 28.7484C37.2391 27.6345 35.8342 27.0777 34.0081 27.0777C32.0406 27.0777 30.4915 27.7561 29.3579 29.1103C28.2244 30.4642 27.6562 32.2452 27.6562 34.4528H19.7834C19.7834 31.7843 19.5658 29.3448 20.8379 27.1371C22.1127 24.9322 23.9134 23.1993 26.2427 21.9469C28.5691 20.692 31.2095 20.0644 34.1578 20.0644C38.6723 20.0644 42.1804 21.1471 44.6794 23.3152C47.1754 25.4833 48.4248 28.5421 48.4248 32.4968C48.4248 34.6649 47.8652 36.8698 46.7402 39.1172C45.6178 41.3674 43.69 43.985 40.962 46.9759L30.9974 57.4804H49.8412V64.4937Z" fill="white"/>
<path d="M64.9572 34.4637H56.1855V64.4819H64.9572V34.4637Z" fill="white"/>
<path d="M43.1334 0C58.7883 0.0735451 74.0194 9.22676 81.3042 23.4374C88.4192 37.3228 87.232 55.1262 77.9968 68.025C68.5495 81.2207 51.2493 88.3612 34.9894 85.294C17.6637 82.0291 3.01492 67.3352 0.411372 49.1644C-1.85293 33.3707 5.35554 16.5369 18.9441 7.35255C25.9264 2.63474 34.3109 0.067774 42.7179 0H43.1334ZM42.8791 6.98511C33.8274 7.03042 24.8692 10.5977 18.2968 16.7915C12.8581 21.9137 9.05883 28.7545 7.62561 36.0903C4.91756 49.9728 11.1053 65.218 23.3088 73.2009C34.9017 80.7853 50.8931 80.9097 62.681 73.2009C71.2265 67.6095 77.211 58.3007 78.6639 48.1722C80.2865 36.8365 76.1311 24.8338 67.8513 16.9411C61.3241 10.7194 52.4536 7.08961 43.3455 6.98788C43.1901 6.98511 43.0344 6.98511 42.8791 6.98511Z" fill="white"/>
</svg>
